999
dxfrw 0.5.11
0
SECTION
2
HEADER
9
$ACADVER
1
AC1021
9
$HANDSEED
5
20000
9
$DWGCODEPAGE
3
ANSI_1252
9
$INSBASE
10
0
20
0
30
0
9
$EXTMIN
10
-10
20
-90
30
0
9
$EXTMAX
10
590
20
210
30
0
9
$LIMMIN
10
0
20
0
9
$LIMMAX
10
420
20
297
9
$ORTHOMODE
70
0
9
$LTSCALE
40
1
9
$TEXTSTYLE
7
Standard
9
$CLAYER
8
1
9
$DIMASZ
40
2.5
9
$DIMLFAC
40
1
9
$DIMSCALE
40
1
9
$DIMEXO
40
0.625
9
$DIMEXE
40
1.25
9
$DIMTXT
40
2.5
9
$DIMTSZ
40
0
9
$DIMAUNIT
70
0
9
$DIMADEC
70
2
9
$DIMLUNIT
70
2
9
$DIMSTYLE
2
Standard
9
$DIMGAP
40
0.625
9
$DIMTIH
70
0
9
$LUNITS
70
2
9
$LUPREC
70
4
9
$AUNITS
70
0
9
$AUPREC
70
2
9
$SPLINESEGS
70
8
9
$GRIDMODE
70
1
9
$SNAPSTYLE
70
0
9
$PINSBASE
10
-61.3536585366
20
4.26829268293
30
0
9
$PLIMMIN
10
0
20
0
9
$PLIMMAX
10
297
20
210
9
$INSUNITS
70
4
9
$PSVPSCALE
40
0
0
ENDSEC
0
SECTION
2
CLASSES
0
ENDSEC
0
SECTION
2
TABLES
0
TABLE
2
VPORT
5
8
330
0
100
AcDbSymbolTable
70
1
0
VPORT
5
31
330
2
100
AcDbSymbolTableRecord
100
AcDbViewportTableRecord
2
*ACTIVE
70
0
10
0
20
0
11
1
21
1
12
334.346723536
22
136.457774214
13
0
23
0
14
10
24
10
15
10
25
10
16
0
26
0
36
1
17
0
27
0
37
0
40
437.571239085
41
2.04833141542
42
50
43
0
44
0
50
0
51
0
71
0
72
100
73
1
74
3
75
0
76
1
77
0
78
0
281
0
65
1
110
0
120
0
130
0
111
1
121
0
131
0
112
0
122
1
132
0
79
0
146
0
348
10020
60
7
61
5
292
1
282
1
141
0
142
0
63
250
421
3358443
0
ENDTAB
0
TABLE
2
LTYPE
5
5
330
0
100
AcDbSymbolTable
70
4
0
LTYPE
5
14
330
5
100
AcDbSymbolTableRecord
100
AcDbLinetypeTableRecord
2
ByBlock
70
0
3

72
65
73
0
40
0
0
LTYPE
5
15
330
5
100
AcDbSymbolTableRecord
100
AcDbLinetypeTableRecord
2
ByLayer
70
0
3

72
65
73
0
40
0
0
LTYPE
5
16
330
5
100
AcDbSymbolTableRecord
100
AcDbLinetypeTableRecord
2
Continuous
70
0
3
Solid line
72
65
73
0
40
0
0
LTYPE
5
32
330
5
100
AcDbSymbolTableRecord
100
AcDbLinetypeTableRecord
2
DOT
70
0
3
Dot . . . . . . . . . . . . . . . . . . . . . .
72
65
73
2
40
6.35
49
0
74
0
49
-6.35
74
0
0
LTYPE
5
33
330
5
100
AcDbSymbolTableRecord
100
AcDbLinetypeTableRecord
2
DOT2
70
0
3
Dot (.5x) .....................................
72
65
73
2
40
3.175
49
0
74
0
49
-3.175
74
0
0
LTYPE
5
34
330
5
100
AcDbSymbolTableRecord
100
AcDbLinetypeTableRecord
2
DOTX2
70
0
3
Dot (2x) .  .  .  .  .  .  .  .  .  .  .  .  .
72
65
73
2
40
12.7
49
0
74
0
49
-12.7
74
0
0
LTYPE
5
35
330
5
100
AcDbSymbolTableRecord
100
AcDbLinetypeTableRecord
2
DASHED
70
0
3
Dot . . . . . . . . . . . . . . . . . . . . . .
72
65
73
2
40
19.05
49
12.7
74
0
49
-6.35
74
0
0
LTYPE
5
36
330
5
100
AcDbSymbolTableRecord
100
AcDbLinetypeTableRecord
2
DASHED2
70
0
3
Dashed (.5x) _ _ _ _ _ _ _ _ _ _ _ _ _ _ _ _ _
72
65
73
2
40
9.525
49
6.35
74
0
49
-3.175
74
0
0
LTYPE
5
37
330
5
100
AcDbSymbolTableRecord
100
AcDbLinetypeTableRecord
2
DASHEDX2
70
0
3
Dashed (2x) ____  ____  ____  ____  ____  ___
72
65
73
2
40
38.1
49
25.4
74
0
49
-12.7
74
0
0
LTYPE
5
38
330
5
100
AcDbSymbolTableRecord
100
AcDbLinetypeTableRecord
2
DASHDOT
70
0
3
Dash dot __ . __ . __ . __ . __ . __ . __ . __
72
65
73
4
40
25.4
49
12.7
74
0
49
-6.35
74
0
49
0
74
0
49
-6.35
74
0
0
LTYPE
5
39
330
5
100
AcDbSymbolTableRecord
100
AcDbLinetypeTableRecord
2
DASHDOT2
70
0
3
Dash dot (.5x) _._._._._._._._._._._._._._._.
72
65
73
4
40
12.7
49
6.35
74
0
49
-3.175
74
0
49
0
74
0
49
-3.175
74
0
0
LTYPE
5
3A
330
5
100
AcDbSymbolTableRecord
100
AcDbLinetypeTableRecord
2
DASHDOTX2
70
0
3
Dash dot (2x) ____  .  ____  .  ____  .  ___
72
65
73
4
40
50.8
49
25.4
74
0
49
-12.7
74
0
49
0
74
0
49
-12.7
74
0
0
LTYPE
5
3B
330
5
100
AcDbSymbolTableRecord
100
AcDbLinetypeTableRecord
2
DIVIDE
70
0
3
Divide ____ . . ____ . . ____ . . ____ . . ____
72
65
73
6
40
31.75
49
12.7
74
0
49
-6.35
74
0
49
0
74
0
49
-6.35
74
0
49
0
74
0
49
-6.35
74
0
0
LTYPE
5
3C
330
5
100
AcDbSymbolTableRecord
100
AcDbLinetypeTableRecord
2
DIVIDE2
70
0
3
Divide (.5x) __..__..__..__..__..__..__..__.._
72
65
73
6
40
15.875
49
6.35
74
0
49
-3.175
74
0
49
0
74
0
49
-3.175
74
0
49
0
74
0
49
-3.175
74
0
0
LTYPE
5
3D
330
5
100
AcDbSymbolTableRecord
100
AcDbLinetypeTableRecord
2
DIVIDEX2
70
0
3
Divide (2x) ________  .  .  ________  .  .  _
72
65
73
6
40
63.5
49
25.4
74
0
49
-12.7
74
0
49
0
74
0
49
-12.7
74
0
49
0
74
0
49
-12.7
74
0
0
LTYPE
5
3E
330
5
100
AcDbSymbolTableRecord
100
AcDbLinetypeTableRecord
2
BORDER
70
0
3
Border __ __ . __ __ . __ __ . __ __ . __ __ .
72
65
73
6
40
44.45
49
12.7
74
0
49
-6.35
74
0
49
12.7
74
0
49
-6.35
74
0
49
0
74
0
49
-6.35
74
0
0
LTYPE
5
3F
330
5
100
AcDbSymbolTableRecord
100
AcDbLinetypeTableRecord
2
BORDER2
70
0
3
Border (.5x) __.__.__.__.__.__.__.__.__.__.__.
72
65
73
6
40
22.225
49
6.35
74
0
49
-3.175
74
0
49
6.35
74
0
49
-3.175
74
0
49
0
74
0
49
-3.175
74
0
0
LTYPE
5
40
330
5
100
AcDbSymbolTableRecord
100
AcDbLinetypeTableRecord
2
BORDERX2
70
0
3
Border (2x) ____  ____  .  ____  ____  .  ___
72
65
73
6
40
88.9
49
25.4
74
0
49
-12.7
74
0
49
25.4
74
0
49
-12.7
74
0
49
0
74
0
49
-12.7
74
0
0
LTYPE
5
41
330
5
100
AcDbSymbolTableRecord
100
AcDbLinetypeTableRecord
2
CENTER
70
0
3
Center ____ _ ____ _ ____ _ ____ _ ____ _ ____
72
65
73
4
40
50.8
49
31.75
74
0
49
-6.35
74
0
49
6.35
74
0
49
-6.35
74
0
0
LTYPE
5
42
330
5
100
AcDbSymbolTableRecord
100
AcDbLinetypeTableRecord
2
CENTER2
70
0
3
Center (.5x) ___ _ ___ _ ___ _ ___ _ ___ _ ___
72
65
73
4
40
28.575
49
19.05
74
0
49
-3.175
74
0
49
3.175
74
0
49
-3.175
74
0
0
LTYPE
5
43
330
5
100
AcDbSymbolTableRecord
100
AcDbLinetypeTableRecord
2
CENTERX2
70
0
3
Center (2x) ________  __  ________  __  _____
72
65
73
4
40
101.6
49
63.5
74
0
49
-12.7
74
0
49
12.7
74
0
49
-12.7
74
0
0
ENDTAB
0
TABLE
2
LAYER
5
2
330
0
100
AcDbSymbolTable
70
1
0
LAYER
5
10
330
2
100
AcDbSymbolTableRecord
100
AcDbLayerTableRecord
2
0
70
4
62
1
6
CONTINUOUS
370
0
390
F
0
LAYER
5
44
330
2
100
AcDbSymbolTableRecord
100
AcDbLayerTableRecord
2
1
70
4
62
1
6
CONTINUOUS
370
0
390
F
0
LAYER
5
45
330
2
100
AcDbSymbolTableRecord
100
AcDbLayerTableRecord
2
reference_600x300
70
4
62
255
6
CONTINUOUS
370
0
390
F
0
ENDTAB
0
TABLE
2
STYLE
5
3
330
0
100
AcDbSymbolTable
70
3
0
STYLE
5
46
330
2
100
AcDbSymbolTableRecord
100
AcDbTextStyleTableRecord
2
Standard
70
0
40
0
41
1
50
0
71
0
42
1
3
txt
4

0
ENDTAB
0
TABLE
2
VIEW
5
6
330
0
100
AcDbSymbolTable
70
0
0
ENDTAB
0
TABLE
2
UCS
5
7
330
0
100
AcDbSymbolTable
70
0
0
ENDTAB
0
TABLE
2
APPID
5
9
330
0
100
AcDbSymbolTable
70
1
0
APPID
5
12
330
9
100
AcDbSymbolTableRecord
100
AcDbRegAppTableRecord
2
ACAD
70
0
0
ENDTAB
0
TABLE
2
DIMSTYLE
5
A
330
0
100
AcDbSymbolTable
70
1
100
AcDbDimStyleTable
71
1
0
DIMSTYLE
105
47
330
A
100
AcDbSymbolTableRecord
100
AcDbDimStyleTableRecord
2
Standard
70
0
40
1
41
2.5
42
0.625
43
0.38
44
1.25
45
0
46
0
47
0
48
0
140
2.5
141
0.09
142
0
143
25.4
144
1
145
0
146
1
147
0.625
148
0
71
0
72
0
73
0
74
1
75
0
76
0
77
0
78
0
79
0
170
0
171
2
172
0
173
0
174
0
175
0
176
0
177
0
178
0
179
0
271
4
272
4
273
2
274
2
275
0
276
0
277
2
278
46
279
0
280
0
281
0
282
0
283
1
284
0
285
0
286
0
288
0
289
3
340
Standard
341

371
-2
372
-2
0
ENDTAB
0
TABLE
2
BLOCK_RECORD
5
1
330
0
100
AcDbSymbolTable
70
2
0
BLOCK_RECORD
5
1F
330
1
100
AcDbSymbolTableRecord
100
AcDbBlockTableRecord
2
*Model_Space
70
0
280
1
281
0
0
BLOCK_RECORD
5
1E
330
1
100
AcDbSymbolTableRecord
100
AcDbBlockTableRecord
2
*Paper_Space
70
0
280
1
281
0
0
ENDTAB
0
ENDSEC
0
SECTION
2
BLOCKS
0
BLOCK
5
20
330
1F
100
AcDbEntity
8
0
100
AcDbBlockBegin
2
*Model_Space
70
0
10
0
20
0
30
0
3
*Model_Space
1

0
ENDBLK
5
21
330
1F
100
AcDbEntity
8
0
100
AcDbBlockEnd
0
BLOCK
5
1C
330
1B
100
AcDbEntity
8
0
100
AcDbBlockBegin
2
*Paper_Space
70
0
10
0
20
0
30
0
3
*Paper_Space
1

0
ENDBLK
5
1D
330
1F
100
AcDbEntity
8
0
100
AcDbBlockEnd
0
ENDSEC
0
SECTION
2
ENTITIES
0
ARC
5
48
100
AcDbEntity
8
0
6
ByLayer
62
256
370
-1
100
AcDbCircle
10
310
20
10
40
10
100
AcDbArc
50
270
51
0
0
LINE
5
49
100
AcDbEntity
8
0
6
ByLayer
62
256
370
-1
100
AcDbLine
10
10
20
0
11
310
21
0
0
ARC
5
4A
100
AcDbEntity
8
0
6
ByLayer
62
256
370
-1
100
AcDbCircle
10
10
20
10
40
10
100
AcDbArc
50
180
51
270
0
LINE
5
4B
100
AcDbEntity
8
0
6
ByLayer
62
256
370
-1
100
AcDbLine
10
0
20
190
11
0
21
10
0
ARC
5
4C
100
AcDbEntity
8
0
6
ByLayer
62
256
370
-1
100
AcDbCircle
10
10
20
190
40
10
100
AcDbArc
50
90
51
180
0
LINE
5
4D
100
AcDbEntity
8
0
6
ByLayer
62
256
370
-1
100
AcDbLine
10
310
20
200
11
10
21
200
0
LINE
5
4E
100
AcDbEntity
8
0
6
ByLayer
62
256
370
-1
100
AcDbLine
10
320
20
10
11
320
21
190
0
ARC
5
4F
100
AcDbEntity
8
0
6
ByLayer
62
256
370
-1
100
AcDbCircle
10
310
20
190
40
10
100
AcDbArc
50
0
51
90
0
LINE
5
50
100
AcDbEntity
8
0
6
ByLayer
62
256
370
-1
100
AcDbLine
10
199.747015641
20
94.4253424623
11
212.536652048
21
100.119655465
0
LINE
5
51
100
AcDbEntity
8
0
6
ByLayer
62
256
370
-1
100
AcDbLine
10
212.536652048
20
100.119655465
11
206.842339045
21
112.909291872
0
LINE
5
52
100
AcDbEntity
8
0
6
ByLayer
62
256
370
-1
100
AcDbLine
10
206.842339045
20
112.909291872
11
194.052702638
21
107.214978869
0
LINE
5
53
100
AcDbEntity
8
0
6
ByLayer
62
256
370
-1
100
AcDbLine
10
194.052702638
20
107.214978869
11
199.747015641
21
94.4253424623
0
LINE
5
54
100
AcDbEntity
8
0
6
ByLayer
62
256
370
-1
100
AcDbLine
10
192.019019422
20
111.782706157
11
204.808655829
21
117.477019161
0
LINE
5
55
100
AcDbEntity
8
0
6
ByLayer
62
256
370
-1
100
AcDbLine
10
204.808655829
20
117.477019161
11
199.114342826
21
130.266655568
0
LINE
5
56
100
AcDbEntity
8
0
6
ByLayer
62
256
370
-1
100
AcDbLine
10
199.114342826
20
130.266655568
11
186.324706419
21
124.572342564
0
LINE
5
57
100
AcDbEntity
8
0
6
ByLayer
62
256
370
-1
100
AcDbLine
10
186.324706419
20
124.572342564
11
192.019019422
21
111.782706157
0
LINE
5
58
100
AcDbEntity
8
0
6
ByLayer
62
256
370
-1
100
AcDbLine
10
184.291023204
20
129.140069853
11
197.080659611
21
134.834382856
0
LINE
5
59
100
AcDbEntity
8
0
6
ByLayer
62
256
370
-1
100
AcDbLine
10
197.080659611
20
134.834382856
11
191.386346608
21
147.624019263
0
LINE
5
5A
100
AcDbEntity
8
0
6
ByLayer
62
256
370
-1
100
AcDbLine
10
191.386346608
20
147.624019263
11
178.596710201
21
141.92970626
0
LINE
5
5B
100
AcDbEntity
8
0
6
ByLayer
62
256
370
-1
100
AcDbLine
10
178.596710201
20
141.92970626
11
184.291023204
21
129.140069853
0
LINE
5
5C
100
AcDbEntity
8
0
6
ByLayer
62
256
370
-1
100
AcDbLine
10
176.563026985
20
146.497433548
11
189.352663392
21
152.191746551
0
LINE
5
5D
100
AcDbEntity
8
0
6
ByLayer
62
256
370
-1
100
AcDbLine
10
189.352663392
20
152.191746551
11
183.658350389
21
164.981382958
0
LINE
5
5E
100
AcDbEntity
8
0
6
ByLayer
62
256
370
-1
100
AcDbLine
10
183.658350389
20
164.981382958
11
170.868713982
21
159.287069955
0
LINE
5
5F
100
AcDbEntity
8
0
6
ByLayer
62
256
370
-1
100
AcDbLine
10
170.868713982
20
159.287069955
11
176.563026985
21
146.497433548
0
LINE
5
60
100
AcDbEntity
8
0
6
ByLayer
62
256
370
-1
100
AcDbLine
10
217.104379336
20
102.153338681
11
229.894015743
21
107.847651684
0
LINE
5
61
100
AcDbEntity
8
0
6
ByLayer
62
256
370
-1
100
AcDbLine
10
229.894015743
20
107.847651684
11
224.19970274
21
120.637288091
0
LINE
5
62
100
AcDbEntity
8
0
6
ByLayer
62
256
370
-1
100
AcDbLine
10
224.19970274
20
120.637288091
11
211.410066333
21
114.942975088
0
LINE
5
63
100
AcDbEntity
8
0
6
ByLayer
62
256
370
-1
100
AcDbLine
10
211.410066333
20
114.942975088
11
217.104379336
21
102.153338681
0
LINE
5
64
100
AcDbEntity
8
0
6
ByLayer
62
256
370
-1
100
AcDbLine
10
209.376383117
20
119.510702376
11
222.166019524
21
125.205015379
0
LINE
5
65
100
AcDbEntity
8
0
6
ByLayer
62
256
370
-1
100
AcDbLine
10
222.166019524
20
125.205015379
11
216.471706521
21
137.994651786
0
LINE
5
66
100
AcDbEntity
8
0
6
ByLayer
62
256
370
-1
100
AcDbLine
10
216.471706521
20
137.994651786
11
203.682070114
21
132.300338783
0
LINE
5
67
100
AcDbEntity
8
0
6
ByLayer
62
256
370
-1
100
AcDbLine
10
203.682070114
20
132.300338783
11
209.376383117
21
119.510702376
0
LINE
5
68
100
AcDbEntity
8
0
6
ByLayer
62
256
370
-1
100
AcDbLine
10
201.648386899
20
136.868066071
11
214.438023306
21
142.562379074
0
LINE
5
69
100
AcDbEntity
8
0
6
ByLayer
62
256
370
-1
100
AcDbLine
10
214.438023306
20
142.562379074
11
208.743710303
21
155.352015481
0
LINE
5
6A
100
AcDbEntity
8
0
6
ByLayer
62
256
370
-1
100
AcDbLine
10
208.743710303
20
155.352015481
11
195.954073896
21
149.657702478
0
LINE
5
6B
100
AcDbEntity
8
0
6
ByLayer
62
256
370
-1
100
AcDbLine
10
195.954073896
20
149.657702478
11
201.648386899
21
136.868066071
0
LINE
5
6C
100
AcDbEntity
8
0
6
ByLayer
62
256
370
-1
100
AcDbLine
10
193.920390681
20
154.225429766
11
206.710027088
21
159.919742769
0
LINE
5
6D
100
AcDbEntity
8
0
6
ByLayer
62
256
370
-1
100
AcDbLine
10
206.710027088
20
159.919742769
11
201.015714084
21
172.709379176
0
LINE
5
6E
100
AcDbEntity
8
0
6
ByLayer
62
256
370
-1
100
AcDbLine
10
201.015714084
20
172.709379176
11
188.226077677
21
167.015066173
0
LINE
5
6F
100
AcDbEntity
8
0
6
ByLayer
62
256
370
-1
100
AcDbLine
10
188.226077677
20
167.015066173
11
193.920390681
21
154.225429766
0
LINE
5
70
100
AcDbEntity
8
0
6
ByLayer
62
256
370
-1
100
AcDbLine
10
224.832375554
20
84.7959749855
11
237.622011961
21
90.4902879886
0
LINE
5
71
100
AcDbEntity
8
0
6
ByLayer
62
256
370
-1
100
AcDbLine
10
237.622011961
20
90.4902879886
11
231.927698958
21
103.279924396
0
LINE
5
72
100
AcDbEntity
8
0
6
ByLayer
62
256
370
-1
100
AcDbLine
10
231.927698958
20
103.279924396
11
219.138062551
21
97.5856113925
0
LINE
5
73
100
AcDbEntity
8
0
6
ByLayer
62
256
370
-1
100
AcDbLine
10
219.138062551
20
97.5856113925
11
224.832375554
21
84.7959749855
0
LINE
5
74
100
AcDbEntity
8
0
6
ByLayer
62
256
370
-1
100
AcDbLine
10
242.189739249
20
92.523971204
11
254.979375656
21
98.218284207
0
LINE
5
75
100
AcDbEntity
8
0
6
ByLayer
62
256
370
-1
100
AcDbLine
10
254.979375656
20
98.218284207
11
249.285062653
21
111.007920614
0
LINE
5
76
100
AcDbEntity
8
0
6
ByLayer
62
256
370
-1
100
AcDbLine
10
249.285062653
20
111.007920614
11
236.495426246
21
105.313607611
0
LINE
5
77
100
AcDbEntity
8
0
6
ByLayer
62
256
370
-1
100
AcDbLine
10
236.495426246
20
105.313607611
11
242.189739249
21
92.523971204
0
LINE
5
78
100
AcDbEntity
8
0
6
ByLayer
62
256
370
-1
100
AcDbLine
10
232.834796459
20
113.53551673
11
245.624432866
21
119.229829733
0
LINE
5
79
100
AcDbEntity
8
0
6
ByLayer
62
256
370
-1
100
AcDbLine
10
245.624432866
20
119.229829733
11
239.930119863
21
132.01946614
0
LINE
5
7A
100
AcDbEntity
8
0
6
ByLayer
62
256
370
-1
100
AcDbLine
10
239.930119863
20
132.01946614
11
227.140483456
21
126.325153137
0
LINE
5
7B
100
AcDbEntity
8
0
6
ByLayer
62
256
370
-1
100
AcDbLine
10
227.140483456
20
126.325153137
11
232.834796459
21
113.53551673
0
LINE
5
7C
100
AcDbEntity
8
0
6
ByLayer
62
256
370
-1
100
AcDbLine
10
225.10680024
20
130.892880425
11
237.896436647
21
136.587193428
0
LINE
5
7D
100
AcDbEntity
8
0
6
ByLayer
62
256
370
-1
100
AcDbLine
10
237.896436647
20
136.587193428
11
232.202123644
21
149.376829835
0
LINE
5
7E
100
AcDbEntity
8
0
6
ByLayer
62
256
370
-1
100
AcDbLine
10
232.202123644
20
149.376829835
11
219.412487237
21
143.682516832
0
LINE
5
7F
100
AcDbEntity
8
0
6
ByLayer
62
256
370
-1
100
AcDbLine
10
219.412487237
20
143.682516832
11
225.10680024
21
130.892880425
0
LINE
5
80
100
AcDbEntity
8
0
6
ByLayer
62
256
370
-1
100
AcDbLine
10
217.378804022
20
148.25024412
11
230.168440429
21
153.944557123
0
LINE
5
81
100
AcDbEntity
8
0
6
ByLayer
62
256
370
-1
100
AcDbLine
10
230.168440429
20
153.944557123
11
224.474127426
21
166.73419353
0
LINE
5
82
100
AcDbEntity
8
0
6
ByLayer
62
256
370
-1
100
AcDbLine
10
224.474127426
20
166.73419353
11
211.684491019
21
161.039880527
0
LINE
5
83
100
AcDbEntity
8
0
6
ByLayer
62
256
370
-1
100
AcDbLine
10
211.684491019
20
161.039880527
11
217.378804022
21
148.25024412
0
LINE
5
84
100
AcDbEntity
8
0
6
ByLayer
62
256
370
-1
100
AcDbLine
10
209.650807803
20
165.607607815
11
222.44044421
21
171.301920818
0
LINE
5
85
100
AcDbEntity
8
0
6
ByLayer
62
256
370
-1
100
AcDbLine
10
222.44044421
20
171.301920818
11
216.746131207
21
184.091557225
0
LINE
5
86
100
AcDbEntity
8
0
6
ByLayer
62
256
370
-1
100
AcDbLine
10
216.746131207
20
184.091557225
11
203.9564948
21
178.397244222
0
LINE
5
87
100
AcDbEntity
8
0
6
ByLayer
62
256
370
-1
100
AcDbLine
10
203.9564948
20
178.397244222
11
209.650807803
21
165.607607815
0
LINE
5
88
100
AcDbEntity
8
0
6
ByLayer
62
256
370
-1
100
AcDbLine
10
252.632580012
20
115.782240202
11
265.422216419
21
121.476553205
0
LINE
5
89
100
AcDbEntity
8
0
6
ByLayer
62
256
370
-1
100
AcDbLine
10
265.422216419
20
121.476553205
11
259.727903416
21
134.266189612
0
LINE
5
8A
100
AcDbEntity
8
0
6
ByLayer
62
256
370
-1
100
AcDbLine
10
259.727903416
20
134.266189612
11
246.938267009
21
128.571876609
0
LINE
5
8B
100
AcDbEntity
8
0
6
ByLayer
62
256
370
-1
100
AcDbLine
10
246.938267009
20
128.571876609
11
252.632580012
21
115.782240202
0
LINE
5
8C
100
AcDbEntity
8
0
6
ByLayer
62
256
370
-1
100
AcDbLine
10
244.904583794
20
133.139603898
11
257.694220201
21
138.833916901
0
LINE
5
8D
100
AcDbEntity
8
0
6
ByLayer
62
256
370
-1
100
AcDbLine
10
257.694220201
20
138.833916901
11
251.999907198
21
151.623553308
0
LINE
5
8E
100
AcDbEntity
8
0
6
ByLayer
62
256
370
-1
100
AcDbLine
10
251.999907198
20
151.623553308
11
239.210270791
21
145.929240305
0
LINE
5
8F
100
AcDbEntity
8
0
6
ByLayer
62
256
370
-1
100
AcDbLine
10
239.210270791
20
145.929240305
11
244.904583794
21
133.139603898
0
LINE
5
90
100
AcDbEntity
8
0
6
ByLayer
62
256
370
-1
100
AcDbLine
10
237.176587576
20
150.496967593
11
249.966223983
21
156.191280596
0
LINE
5
91
100
AcDbEntity
8
0
6
ByLayer
62
256
370
-1
100
AcDbLine
10
249.966223983
20
156.191280596
11
244.271910979
21
168.980917003
0
LINE
5
92
100
AcDbEntity
8
0
6
ByLayer
62
256
370
-1
100
AcDbLine
10
244.271910979
20
168.980917003
11
231.482274572
21
163.286604
0
LINE
5
93
100
AcDbEntity
8
0
6
ByLayer
62
256
370
-1
100
AcDbLine
10
231.482274572
20
163.286604
11
237.176587576
21
150.496967593
0
LINE
5
94
100
AcDbEntity
8
0
6
ByLayer
62
256
370
-1
100
AcDbLine
10
229.448591357
20
167.854331288
11
242.238227764
21
173.548644291
0
LINE
5
95
100
AcDbEntity
8
0
6
ByLayer
62
256
370
-1
100
AcDbLine
10
242.238227764
20
173.548644291
11
236.543914761
21
186.338280698
0
LINE
5
96
100
AcDbEntity
8
0
6
ByLayer
62
256
370
-1
100
AcDbLine
10
236.543914761
20
186.338280698
11
223.754278354
21
180.643967695
0
LINE
5
97
100
AcDbEntity
8
0
6
ByLayer
62
256
370
-1
100
AcDbLine
10
223.754278354
20
180.643967695
11
229.448591357
21
167.854331288
0
LINE
5
98
100
AcDbEntity
8
0
6
ByLayer
62
256
370
-1
100
AcDbLine
10
274.870783425
20
112.547690929
11
287.660419832
21
118.242003932
0
LINE
5
99
100
AcDbEntity
8
0
6
ByLayer
62
256
370
-1
100
AcDbLine
10
287.660419832
20
118.242003932
11
281.966106828
21
131.031640339
0
LINE
5
9A
100
AcDbEntity
8
0
6
ByLayer
62
256
370
-1
100
AcDbLine
10
281.966106828
20
131.031640339
11
269.176470421
21
125.337327336
0
LINE
5
9B
100
AcDbEntity
8
0
6
ByLayer
62
256
370
-1
100
AcDbLine
10
269.176470421
20
125.337327336
11
274.870783425
21
112.547690929
0
LINE
5
9C
100
AcDbEntity
8
0
6
ByLayer
62
256
370
-1
100
AcDbLine
10
267.142787206
20
129.905054624
11
279.932423613
21
135.599367627
0
LINE
5
9D
100
AcDbEntity
8
0
6
ByLayer
62
256
370
-1
100
AcDbLine
10
279.932423613
20
135.599367627
11
274.23811061
21
148.389004034
0
LINE
5
9E
100
AcDbEntity
8
0
6
ByLayer
62
256
370
-1
100
AcDbLine
10
274.23811061
20
148.389004034
11
261.448474203
21
142.694691031
0
LINE
5
9F
100
AcDbEntity
8
0
6
ByLayer
62
256
370
-1
100
AcDbLine
10
261.448474203
20
142.694691031
11
267.142787206
21
129.905054624
0
LINE
5
A0
100
AcDbEntity
8
0
6
ByLayer
62
256
370
-1
100
AcDbLine
10
259.414790988
20
147.262418319
11
272.204427395
21
152.956731323
0
LINE
5
A1
100
AcDbEntity
8
0
6
ByLayer
62
256
370
-1
100
AcDbLine
10
272.204427395
20
152.956731323
11
266.510114392
21
165.74636773
0
LINE
5
A2
100
AcDbEntity
8
0
6
ByLayer
62
256
370
-1
100
AcDbLine
10
266.510114392
20
165.74636773
11
253.720477985
21
160.052054726
0
LINE
5
A3
100
AcDbEntity
8
0
6
ByLayer
62
256
370
-1
100
AcDbLine
10
253.720477985
20
160.052054726
11
259.414790988
21
147.262418319
0
LINE
5
A4
100
AcDbEntity
8
0
6
ByLayer
62
256
370
-1
100
AcDbLine
10
251.686794769
20
164.619782015
11
264.476431176
21
170.314095018
0
LINE
5
A5
100
AcDbEntity
8
0
6
ByLayer
62
256
370
-1
100
AcDbLine
10
264.476431176
20
170.314095018
11
258.782118173
21
183.103731425
0
LINE
5
A6
100
AcDbEntity
8
0
6
ByLayer
62
256
370
-1
100
AcDbLine
10
258.782118173
20
183.103731425
11
245.992481766
21
177.409418422
0
LINE
5
A7
100
AcDbEntity
8
0
6
ByLayer
62
256
370
-1
100
AcDbLine
10
245.992481766
20
177.409418422
11
251.686794769
21
164.619782015
0
LINE
5
A8
100
AcDbEntity
8
0
6
ByLayer
62
256
370
-1
100
AcDbLine
10
287.957412367
20
129.867914453
11
300.747048774
21
135.562227456
0
LINE
5
A9
100
AcDbEntity
8
0
6
ByLayer
62
256
370
-1
100
AcDbLine
10
300.747048774
20
135.562227456
11
295.052735771
21
148.351863863
0
LINE
5
AA
100
AcDbEntity
8
0
6
ByLayer
62
256
370
-1
100
AcDbLine
10
295.052735771
20
148.351863863
11
282.263099364
21
142.65755086
0
LINE
5
AB
100
AcDbEntity
8
0
6
ByLayer
62
256
370
-1
100
AcDbLine
10
282.263099364
20
142.65755086
11
287.957412367
21
129.867914453
0
LINE
5
AC
100
AcDbEntity
8
0
6
ByLayer
62
256
370
-1
100
AcDbLine
10
280.229416149
20
147.225278148
11
293.019052556
21
152.919591151
0
LINE
5
AD
100
AcDbEntity
8
0
6
ByLayer
62
256
370
-1
100
AcDbLine
10
293.019052556
20
152.919591151
11
287.324739553
21
165.709227558
0
LINE
5
AE
100
AcDbEntity
8
0
6
ByLayer
62
256
370
-1
100
AcDbLine
10
287.324739553
20
165.709227558
11
274.535103146
21
160.014914555
0
LINE
5
AF
100
AcDbEntity
8
0
6
ByLayer
62
256
370
-1
100
AcDbLine
10
274.535103146
20
160.014914555
11
280.229416149
21
147.225278148
0
LINE
5
B0
100
AcDbEntity
8
0
6
ByLayer
62
256
370
-1
100
AcDbLine
10
272.501419931
20
164.582641843
11
285.291056338
21
170.276954846
0
LINE
5
B1
100
AcDbEntity
8
0
6
ByLayer
62
256
370
-1
100
AcDbLine
10
285.291056338
20
170.276954846
11
279.596743334
21
183.066591253
0
LINE
5
B2
100
AcDbEntity
8
0
6
ByLayer
62
256
370
-1
100
AcDbLine
10
279.596743334
20
183.066591253
11
266.807106927
21
177.37227825
0
LINE
5
B3
100
AcDbEntity
8
0
6
ByLayer
62
256
370
-1
100
AcDbLine
10
266.807106927
20
177.37227825
11
272.501419931
21
164.582641843
0
LINE
5
B4
100
AcDbEntity
8
0
6
ByLayer
62
256
370
-1
100
AcDbLine
10
209.065017725
20
69.2649576469
11
218.432846214
21
79.6689852036
0
LINE
5
B5
100
AcDbEntity
8
0
6
ByLayer
62
256
370
-1
100
AcDbLine
10
218.432846214
20
79.6689852036
11
208.028818657
21
89.0368136926
0
LINE
5
B6
100
AcDbEntity
8
0
6
ByLayer
62
256
370
-1
100
AcDbLine
10
208.028818657
20
89.0368136926
11
198.660990168
21
78.6327861359
0
LINE
5
B7
100
AcDbEntity
8
0
6
ByLayer
62
256
370
-1
100
AcDbLine
10
198.660990168
20
78.6327861359
11
209.065017725
21
69.2649576469
0
LINE
5
B8
100
AcDbEntity
8
0
6
ByLayer
62
256
370
-1
100
AcDbLine
10
198
20
47
11
203.470235799
21
59.8870679483
0
LINE
5
B9
100
AcDbEntity
8
0
6
ByLayer
62
256
370
-1
100
AcDbLine
10
203.470235799
20
59.8870679483
11
190.583167851
21
65.3573037472
0
LINE
5
BA
100
AcDbEntity
8
0
6
ByLayer
62
256
370
-1
100
AcDbLine
10
190.583167851
20
65.3573037472
11
185.112932052
21
52.4702357988
0
LINE
5
BB
100
AcDbEntity
8
0
6
ByLayer
62
256
370
-1
100
AcDbLine
10
185.112932052
20
52.4702357988
11
198
21
47
0
LINE
5
BC
100
AcDbEntity
8
0
6
ByLayer
62
256
370
-1
100
AcDbLine
10
181.372810338
20
88.981209888
11
194.162446745
21
94.675522891
0
LINE
5
BD
100
AcDbEntity
8
0
6
ByLayer
62
256
370
-1
100
AcDbLine
10
194.162446745
20
94.675522891
11
188.468133742
21
107.465159298
0
LINE
5
BE
100
AcDbEntity
8
0
6
ByLayer
62
256
370
-1
100
AcDbLine
10
175.678497335
20
101.770846295
11
181.372810338
21
88.981209888
0
LINE
5
BF
100
AcDbEntity
8
0
6
ByLayer
62
256
370
-1
100
AcDbLine
10
175.678497335
20
101.770846295
11
188.468133742
21
107.465159298
0
LINE
5
C0
100
AcDbEntity
8
0
6
ByLayer
62
256
370
-1
100
AcDbLine
10
184.400767311
20
116.600613874
11
171.611130904
21
110.906300871
0
LINE
5
C1
100
AcDbEntity
8
0
6
ByLayer
62
256
370
-1
100
AcDbLine
10
184.400767311
20
116.600613874
11
178.706454308
21
129.390250281
0
LINE
5
C2
100
AcDbEntity
8
0
6
ByLayer
62
256
370
-1
100
AcDbLine
10
178.706454308
20
129.390250281
11
165.916817901
21
123.695937278
0
LINE
5
C3
100
AcDbEntity
8
0
6
ByLayer
62
256
370
-1
100
AcDbLine
10
165.916817901
20
123.695937278
11
171.611130904
21
110.906300871
0
LINE
5
C4
100
AcDbEntity
8
0
6
ByLayer
62
256
370
-1
100
AcDbLine
10
120.252984359
20
94.4253424623
11
107.463347952
21
100.119655465
0
LINE
5
C5
100
AcDbEntity
8
0
6
ByLayer
62
256
370
-1
100
AcDbLine
10
107.463347952
20
100.119655465
11
113.157660955
21
112.909291872
0
LINE
5
C6
100
AcDbEntity
8
0
6
ByLayer
62
256
370
-1
100
AcDbLine
10
113.157660955
20
112.909291872
11
125.947297362
21
107.214978869
0
LINE
5
C7
100
AcDbEntity
8
0
6
ByLayer
62
256
370
-1
100
AcDbLine
10
125.947297362
20
107.214978869
11
120.252984359
21
94.4253424623
0
LINE
5
C8
100
AcDbEntity
8
0
6
ByLayer
62
256
370
-1
100
AcDbLine
10
127.980980578
20
111.782706157
11
115.191344171
21
117.477019161
0
LINE
5
C9
100
AcDbEntity
8
0
6
ByLayer
62
256
370
-1
100
AcDbLine
10
115.191344171
20
117.477019161
11
120.885657174
21
130.266655568
0
LINE
5
CA
100
AcDbEntity
8
0
6
ByLayer
62
256
370
-1
100
AcDbLine
10
120.885657174
20
130.266655568
11
133.675293581
21
124.572342564
0
LINE
5
CB
100
AcDbEntity
8
0
6
ByLayer
62
256
370
-1
100
AcDbLine
10
133.675293581
20
124.572342564
11
127.980980578
21
111.782706157
0
LINE
5
CC
100
AcDbEntity
8
0
6
ByLayer
62
256
370
-1
100
AcDbLine
10
135.708976796
20
129.140069853
11
122.919340389
21
134.834382856
0
LINE
5
CD
100
AcDbEntity
8
0
6
ByLayer
62
256
370
-1
100
AcDbLine
10
122.919340389
20
134.834382856
11
128.613653392
21
147.624019263
0
LINE
5
CE
100
AcDbEntity
8
0
6
ByLayer
62
256
370
-1
100
AcDbLine
10
128.613653392
20
147.624019263
11
141.403289799
21
141.92970626
0
LINE
5
CF
100
AcDbEntity
8
0
6
ByLayer
62
256
370
-1
100
AcDbLine
10
141.403289799
20
141.92970626
11
135.708976796
21
129.140069853
0
LINE
5
D0
100
AcDbEntity
8
0
6
ByLayer
62
256
370
-1
100
AcDbLine
10
143.436973015
20
146.497433548
11
130.647336608
21
152.191746551
0
LINE
5
D1
100
AcDbEntity
8
0
6
ByLayer
62
256
370
-1
100
AcDbLine
10
130.647336608
20
152.191746551
11
136.341649611
21
164.981382958
0
LINE
5
D2
100
AcDbEntity
8
0
6
ByLayer
62
256
370
-1
100
AcDbLine
10
136.341649611
20
164.981382958
11
149.131286018
21
159.287069955
0
LINE
5
D3
100
AcDbEntity
8
0
6
ByLayer
62
256
370
-1
100
AcDbLine
10
149.131286018
20
159.287069955
11
143.436973015
21
146.497433548
0
LINE
5
D4
100
AcDbEntity
8
0
6
ByLayer
62
256
370
-1
100
AcDbLine
10
102.895620664
20
102.153338681
11
90.1059842572
21
107.847651684
0
LINE
5
D5
100
AcDbEntity
8
0
6
ByLayer
62
256
370
-1
100
AcDbLine
10
90.1059842572
20
107.847651684
11
95.8002972602
21
120.637288091
0
LINE
5
D6
100
AcDbEntity
8
0
6
ByLayer
62
256
370
-1
100
AcDbLine
10
95.8002972602
20
120.637288091
11
108.589933667
21
114.942975088
0
LINE
5
D7
100
AcDbEntity
8
0
6
ByLayer
62
256
370
-1
100
AcDbLine
10
108.589933667
20
114.942975088
11
102.895620664
21
102.153338681
0
LINE
5
D8
100
AcDbEntity
8
0
6
ByLayer
62
256
370
-1
100
AcDbLine
10
110.623616883
20
119.510702376
11
97.8339804756
21
125.205015379
0
LINE
5
D9
100
AcDbEntity
8
0
6
ByLayer
62
256
370
-1
100
AcDbLine
10
97.8339804756
20
125.205015379
11
103.528293479
21
137.994651786
0
LINE
5
DA
100
AcDbEntity
8
0
6
ByLayer
62
256
370
-1
100
AcDbLine
10
103.528293479
20
137.994651786
11
116.317929886
21
132.300338783
0
LINE
5
DB
100
AcDbEntity
8
0
6
ByLayer
62
256
370
-1
100
AcDbLine
10
116.317929886
20
132.300338783
11
110.623616883
21
119.510702376
0
LINE
5
DC
100
AcDbEntity
8
0
6
ByLayer
62
256
370
-1
100
AcDbLine
10
118.351613101
20
136.868066071
11
105.561976694
21
142.562379074
0
LINE
5
DD
100
AcDbEntity
8
0
6
ByLayer
62
256
370
-1
100
AcDbLine
10
105.561976694
20
142.562379074
11
111.256289697
21
155.352015481
0
LINE
5
DE
100
AcDbEntity
8
0
6
ByLayer
62
256
370
-1
100
AcDbLine
10
111.256289697
20
155.352015481
11
124.045926104
21
149.657702478
0
LINE
5
DF
100
AcDbEntity
8
0
6
ByLayer
62
256
370
-1
100
AcDbLine
10
124.045926104
20
149.657702478
11
118.351613101
21
136.868066071
0
LINE
5
E0
100
AcDbEntity
8
0
6
ByLayer
62
256
370
-1
100
AcDbLine
10
126.079609319
20
154.225429766
11
113.289972912
21
159.919742769
0
LINE
5
E1
100
AcDbEntity
8
0
6
ByLayer
62
256
370
-1
100
AcDbLine
10
113.289972912
20
159.919742769
11
118.984285916
21
172.709379176
0
LINE
5
E2
100
AcDbEntity
8
0
6
ByLayer
62
256
370
-1
100
AcDbLine
10
118.984285916
20
172.709379176
11
131.773922323
21
167.015066173
0
LINE
5
E3
100
AcDbEntity
8
0
6
ByLayer
62
256
370
-1
100
AcDbLine
10
131.773922323
20
167.015066173
11
126.079609319
21
154.225429766
0
LINE
5
E4
100
AcDbEntity
8
0
6
ByLayer
62
256
370
-1
100
AcDbLine
10
95.1676244457
20
84.7959749855
11
82.3779880387
21
90.4902879886
0
LINE
5
E5
100
AcDbEntity
8
0
6
ByLayer
62
256
370
-1
100
AcDbLine
10
82.3779880387
20
90.4902879886
11
88.0723010418
21
103.279924396
0
LINE
5
E6
100
AcDbEntity
8
0
6
ByLayer
62
256
370
-1
100
AcDbLine
10
88.0723010418
20
103.279924396
11
100.861937449
21
97.5856113925
0
LINE
5
E7
100
AcDbEntity
8
0
6
ByLayer
62
256
370
-1
100
AcDbLine
10
100.861937449
20
97.5856113925
11
95.1676244457
21
84.7959749855
0
LINE
5
E8
100
AcDbEntity
8
0
6
ByLayer
62
256
370
-1
100
AcDbLine
10
77.8102607505
20
92.523971204
11
65.0206243435
21
98.218284207
0
LINE
5
E9
100
AcDbEntity
8
0
6
ByLayer
62
256
370
-1
100
AcDbLine
10
65.0206243435
20
98.218284207
11
70.7149373466
21
111.007920614
0
LINE
5
EA
100
AcDbEntity
8
0
6
ByLayer
62
256
370
-1
100
AcDbLine
10
70.7149373466
20
111.007920614
11
83.5045737536
21
105.313607611
0
LINE
5
EB
100
AcDbEntity
8
0
6
ByLayer
62
256
370
-1
100
AcDbLine
10
83.5045737536
20
105.313607611
11
77.8102607505
21
92.523971204
0
LINE
5
EC
100
AcDbEntity
8
0
6
ByLayer
62
256
370
-1
100
AcDbLine
10
87.1652035413
20
113.53551673
11
74.3755671343
21
119.229829733
0
LINE
5
ED
100
AcDbEntity
8
0
6
ByLayer
62
256
370
-1
100
AcDbLine
10
74.3755671343
20
119.229829733
11
80.0698801373
21
132.01946614
0
LINE
5
EE
100
AcDbEntity
8
0
6
ByLayer
62
256
370
-1
100
AcDbLine
10
80.0698801373
20
132.01946614
11
92.8595165443
21
126.325153137
0
LINE
5
EF
100
AcDbEntity
8
0
6
ByLayer
62
256
370
-1
100
AcDbLine
10
92.8595165443
20
126.325153137
11
87.1652035413
21
113.53551673
0
LINE
5
F0
100
AcDbEntity
8
0
6
ByLayer
62
256
370
-1
100
AcDbLine
10
94.8931997597
20
130.892880425
11
82.1035633527
21
136.587193428
0
LINE
5
F1
100
AcDbEntity
8
0
6
ByLayer
62
256
370
-1
100
AcDbLine
10
82.1035633527
20
136.587193428
11
87.7978763558
21
149.376829835
0
LINE
5
F2
100
AcDbEntity
8
0
6
ByLayer
62
256
370
-1
100
AcDbLine
10
87.7978763558
20
149.376829835
11
100.587512763
21
143.682516832
0
LINE
5
F3
100
AcDbEntity
8
0
6
ByLayer
62
256
370
-1
100
AcDbLine
10
100.587512763
20
143.682516832
11
94.8931997597
21
130.892880425
0
LINE
5
F4
100
AcDbEntity
8
0
6
ByLayer
62
256
370
-1
100
AcDbLine
10
102.621195978
20
148.25024412
11
89.8315595712
21
153.944557123
0
LINE
5
F5
100
AcDbEntity
8
0
6
ByLayer
62
256
370
-1
100
AcDbLine
10
89.8315595712
20
153.944557123
11
95.5258725742
21
166.73419353
0
LINE
5
F6
100
AcDbEntity
8
0
6
ByLayer
62
256
370
-1
100
AcDbLine
10
95.5258725742
20
166.73419353
11
108.315508981
21
161.039880527
0
LINE
5
F7
100
AcDbEntity
8
0
6
ByLayer
62
256
370
-1
100
AcDbLine
10
108.315508981
20
161.039880527
11
102.621195978
21
148.25024412
0
LINE
5
F8
100
AcDbEntity
8
0
6
ByLayer
62
256
370
-1
100
AcDbLine
10
110.349192197
20
165.607607815
11
97.5595557896
21
171.301920818
0
LINE
5
F9
100
AcDbEntity
8
0
6
ByLayer
62
256
370
-1
100
AcDbLine
10
97.5595557896
20
171.301920818
11
103.253868793
21
184.091557225
0
LINE
5
FA
100
AcDbEntity
8
0
6
ByLayer
62
256
370
-1
100
AcDbLine
10
103.253868793
20
184.091557225
11
116.0435052
21
178.397244222
0
LINE
5
FB
100
AcDbEntity
8
0
6
ByLayer
62
256
370
-1
100
AcDbLine
10
116.0435052
20
178.397244222
11
110.349192197
21
165.607607815
0
LINE
5
FC
100
AcDbEntity
8
0
6
ByLayer
62
256
370
-1
100
AcDbLine
10
67.3674199876
20
115.782240202
11
54.5777835806
21
121.476553205
0
LINE
5
FD
100
AcDbEntity
8
0
6
ByLayer
62
256
370
-1
100
AcDbLine
10
54.5777835806
20
121.476553205
11
60.2720965837
21
134.266189612
0
LINE
5
FE
100
AcDbEntity
8
0
6
ByLayer
62
256
370
-1
100
AcDbLine
10
60.2720965837
20
134.266189612
11
73.0617329907
21
128.571876609
0
LINE
5
FF
100
AcDbEntity
8
0
6
ByLayer
62
256
370
-1
100
AcDbLine
10
73.0617329907
20
128.571876609
11
67.3674199876
21
115.782240202
0
LINE
5
100
100
AcDbEntity
8
0
6
ByLayer
62
256
370
-1
100
AcDbLine
10
75.095416206
20
133.139603898
11
62.305779799
21
138.833916901
0
LINE
5
101
100
AcDbEntity
8
0
6
ByLayer
62
256
370
-1
100
AcDbLine
10
62.305779799
20
138.833916901
11
68.0000928021
21
151.623553308
0
LINE
5
102
100
AcDbEntity
8
0
6
ByLayer
62
256
370
-1
100
AcDbLine
10
68.0000928021
20
151.623553308
11
80.7897292091
21
145.929240305
0
LINE
5
103
100
AcDbEntity
8
0
6
ByLayer
62
256
370
-1
100
AcDbLine
10
80.7897292091
20
145.929240305
11
75.095416206
21
133.139603898
0
LINE
5
104
100
AcDbEntity
8
0
6
ByLayer
62
256
370
-1
100
AcDbLine
10
82.8234124245
20
150.496967593
11
70.0337760175
21
156.191280596
0
LINE
5
105
100
AcDbEntity
8
0
6
ByLayer
62
256
370
-1
100
AcDbLine
10
70.0337760175
20
156.191280596
11
75.7280890206
21
168.980917003
0
LINE
5
106
100
AcDbEntity
8
0
6
ByLayer
62
256
370
-1
100
AcDbLine
10
75.7280890206
20
168.980917003
11
88.5177254275
21
163.286604
0
LINE
5
107
100
AcDbEntity
8
0
6
ByLayer
62
256
370
-1
100
AcDbLine
10
88.5177254275
20
163.286604
11
82.8234124245
21
150.496967593
0
LINE
5
108
100
AcDbEntity
8
0
6
ByLayer
62
256
370
-1
100
AcDbLine
10
90.5514086429
20
167.854331288
11
77.7617722359
21
173.548644291
0
LINE
5
109
100
AcDbEntity
8
0
6
ByLayer
62
256
370
-1
100
AcDbLine
10
77.7617722359
20
173.548644291
11
83.456085239
21
186.338280698
0
LINE
5
10A
100
AcDbEntity
8
0
6
ByLayer
62
256
370
-1
100
AcDbLine
10
83.456085239
20
186.338280698
11
96.245721646
21
180.643967695
0
LINE
5
10B
100
AcDbEntity
8
0
6
ByLayer
62
256
370
-1
100
AcDbLine
10
96.245721646
20
180.643967695
11
90.5514086429
21
167.854331288
0
LINE
5
10C
100
AcDbEntity
8
0
6
ByLayer
62
256
370
-1
100
AcDbLine
10
45.1292165755
20
112.547690929
11
32.3395801685
21
118.242003932
0
LINE
5
10D
100
AcDbEntity
8
0
6
ByLayer
62
256
370
-1
100
AcDbLine
10
32.3395801685
20
118.242003932
11
38.0338931716
21
131.031640339
0
LINE
5
10E
100
AcDbEntity
8
0
6
ByLayer
62
256
370
-1
100
AcDbLine
10
38.0338931716
20
131.031640339
11
50.8235295785
21
125.337327336
0
LINE
5
10F
100
AcDbEntity
8
0
6
ByLayer
62
256
370
-1
100
AcDbLine
10
50.8235295785
20
125.337327336
11
45.1292165755
21
112.547690929
0
LINE
5
110
100
AcDbEntity
8
0
6
ByLayer
62
256
370
-1
100
AcDbLine
10
52.8572127939
20
129.905054624
11
40.0675763869
21
135.599367627
0
LINE
5
111
100
AcDbEntity
8
0
6
ByLayer
62
256
370
-1
100
AcDbLine
10
40.0675763869
20
135.599367627
11
45.76188939
21
148.389004034
0
LINE
5
112
100
AcDbEntity
8
0
6
ByLayer
62
256
370
-1
100
AcDbLine
10
45.76188939
20
148.389004034
11
58.551525797
21
142.694691031
0
LINE
5
113
100
AcDbEntity
8
0
6
ByLayer
62
256
370
-1
100
AcDbLine
10
58.551525797
20
142.694691031
11
52.8572127939
21
129.905054624
0
LINE
5
114
100
AcDbEntity
8
0
6
ByLayer
62
256
370
-1
100
AcDbLine
10
60.5852090124
20
147.262418319
11
47.7955726054
21
152.956731323
0
LINE
5
115
100
AcDbEntity
8
0
6
ByLayer
62
256
370
-1
100
AcDbLine
10
47.7955726054
20
152.956731323
11
53.4898856084
21
165.74636773
0
LINE
5
116
100
AcDbEntity
8
0
6
ByLayer
62
256
370
-1
100
AcDbLine
10
53.4898856084
20
165.74636773
11
66.2795220154
21
160.052054726
0
LINE
5
117
100
AcDbEntity
8
0
6
ByLayer
62
256
370
-1
100
AcDbLine
10
66.2795220154
20
160.052054726
11
60.5852090124
21
147.262418319
0
LINE
5
118
100
AcDbEntity
8
0
6
ByLayer
62
256
370
-1
100
AcDbLine
10
68.3132052308
20
164.619782015
11
55.5235688238
21
170.314095018
0
LINE
5
119
100
AcDbEntity
8
0
6
ByLayer
62
256
370
-1
100
AcDbLine
10
55.5235688238
20
170.314095018
11
61.2178818269
21
183.103731425
0
LINE
5
11A
100
AcDbEntity
8
0
6
ByLayer
62
256
370
-1
100
AcDbLine
10
61.2178818269
20
183.103731425
11
74.0075182339
21
177.409418422
0
LINE
5
11B
100
AcDbEntity
8
0
6
ByLayer
62
256
370
-1
100
AcDbLine
10
74.0075182339
20
177.409418422
11
68.3132052308
21
164.619782015
0
LINE
5
11C
100
AcDbEntity
8
0
6
ByLayer
62
256
370
-1
100
AcDbLine
10
32.0425876326
20
129.867914453
11
19.2529512256
21
135.562227456
0
LINE
5
11D
100
AcDbEntity
8
0
6
ByLayer
62
256
370
-1
100
AcDbLine
10
19.2529512256
20
135.562227456
11
24.9472642286
21
148.351863863
0
LINE
5
11E
100
AcDbEntity
8
0
6
ByLayer
62
256
370
-1
100
AcDbLine
10
24.9472642286
20
148.351863863
11
37.7369006356
21
142.65755086
0
LINE
5
11F
100
AcDbEntity
8
0
6
ByLayer
62
256
370
-1
100
AcDbLine
10
37.7369006356
20
142.65755086
11
32.0425876326
21
129.867914453
0
LINE
5
120
100
AcDbEntity
8
0
6
ByLayer
62
256
370
-1
100
AcDbLine
10
39.770583851
20
147.225278148
11
26.980947444
21
152.919591151
0
LINE
5
121
100
AcDbEntity
8
0
6
ByLayer
62
256
370
-1
100
AcDbLine
10
26.980947444
20
152.919591151
11
32.6752604471
21
165.709227558
0
LINE
5
122
100
AcDbEntity
8
0
6
ByLayer
62
256
370
-1
100
AcDbLine
10
32.6752604471
20
165.709227558
11
45.4648968541
21
160.014914555
0
LINE
5
123
100
AcDbEntity
8
0
6
ByLayer
62
256
370
-1
100
AcDbLine
10
45.4648968541
20
160.014914555
11
39.770583851
21
147.225278148
0
LINE
5
124
100
AcDbEntity
8
0
6
ByLayer
62
256
370
-1
100
AcDbLine
10
47.4985800695
20
164.582641843
11
34.7089436625
21
170.276954846
0
LINE
5
125
100
AcDbEntity
8
0
6
ByLayer
62
256
370
-1
100
AcDbLine
10
34.7089436625
20
170.276954846
11
40.4032566655
21
183.066591253
0
LINE
5
126
100
AcDbEntity
8
0
6
ByLayer
62
256
370
-1
100
AcDbLine
10
40.4032566655
20
183.066591253
11
53.1928930725
21
177.37227825
0
LINE
5
127
100
AcDbEntity
8
0
6
ByLayer
62
256
370
-1
100
AcDbLine
10
53.1928930725
20
177.37227825
11
47.4985800695
21
164.582641843
0
LINE
5
128
100
AcDbEntity
8
0
6
ByLayer
62
256
370
-1
100
AcDbLine
10
110.934982275
20
69.2649576469
11
101.567153786
21
79.6689852036
0
LINE
5
129
100
AcDbEntity
8
0
6
ByLayer
62
256
370
-1
100
AcDbLine
10
101.567153786
20
79.6689852036
11
111.971181343
21
89.0368136926
0
LINE
5
12A
100
AcDbEntity
8
0
6
ByLayer
62
256
370
-1
100
AcDbLine
10
111.971181343
20
89.0368136926
11
121.339009832
21
78.6327861359
0
LINE
5
12B
100
AcDbEntity
8
0
6
ByLayer
62
256
370
-1
100
AcDbLine
10
121.339009832
20
78.6327861359
11
110.934982275
21
69.2649576469
0
LINE
5
12C
100
AcDbEntity
8
0
6
ByLayer
62
256
370
-1
100
AcDbLine
10
122
20
47
11
116.529764201
21
59.8870679483
0
LINE
5
12D
100
AcDbEntity
8
0
6
ByLayer
62
256
370
-1
100
AcDbLine
10
116.529764201
20
59.8870679483
11
129.416832149
21
65.3573037472
0
LINE
5
12E
100
AcDbEntity
8
0
6
ByLayer
62
256
370
-1
100
AcDbLine
10
129.416832149
20
65.3573037472
11
134.887067948
21
52.4702357988
0
LINE
5
12F
100
AcDbEntity
8
0
6
ByLayer
62
256
370
-1
100
AcDbLine
10
134.887067948
20
52.4702357988
11
122
21
47
0
LINE
5
130
100
AcDbEntity
8
0
6
ByLayer
62
256
370
-1
100
AcDbLine
10
138.627189662
20
88.981209888
11
125.837553255
21
94.675522891
0
LINE
5
131
100
AcDbEntity
8
0
6
ByLayer
62
256
370
-1
100
AcDbLine
10
125.837553255
20
94.675522891
11
131.531866258
21
107.465159298
0
LINE
5
132
100
AcDbEntity
8
0
6
ByLayer
62
256
370
-1
100
AcDbLine
10
144.321502665
20
101.770846295
11
138.627189662
21
88.981209888
0
LINE
5
133
100
AcDbEntity
8
0
6
ByLayer
62
256
370
-1
100
AcDbLine
10
144.321502665
20
101.770846295
11
131.531866258
21
107.465159298
0
LINE
5
134
100
AcDbEntity
8
0
6
ByLayer
62
256
370
-1
100
AcDbLine
10
135.599232689
20
116.600613874
11
148.388869096
21
110.906300871
0
LINE
5
135
100
AcDbEntity
8
0
6
ByLayer
62
256
370
-1
100
AcDbLine
10
135.599232689
20
116.600613874
11
141.293545692
21
129.390250281
0
LINE
5
136
100
AcDbEntity
8
0
6
ByLayer
62
256
370
-1
100
AcDbLine
10
141.293545692
20
129.390250281
11
154.083182099
21
123.695937278
0
LINE
5
137
100
AcDbEntity
8
0
6
ByLayer
62
256
370
-1
100
AcDbLine
10
154.083182099
20
123.695937278
11
148.388869096
21
110.906300871
0
ARC
5
138
100
AcDbEntity
8
0
6
ByLayer
62
256
370
-1
100
AcDbCircle
10
303
20
183
40
1
100
AcDbArc
50
180
51
270
0
LINE
5
139
100
AcDbEntity
8
0
6
ByLayer
62
256
370
-1
100
AcDbLine
10
303
20
182
11
307
21
182
0
ARC
5
13A
100
AcDbEntity
8
0
6
ByLayer
62
256
370
-1
100
AcDbCircle
10
307
20
183
40
1
100
AcDbArc
50
270
51
0
0
LINE
5
13B
100
AcDbEntity
8
0
6
ByLayer
62
256
370
-1
100
AcDbLine
10
308
20
183
11
308
21
187
0
ARC
5
13C
100
AcDbEntity
8
0
6
ByLayer
62
256
370
-1
100
AcDbCircle
10
307
20
187
40
1
100
AcDbArc
50
0
51
90
0
LINE
5
13D
100
AcDbEntity
8
0
6
ByLayer
62
256
370
-1
100
AcDbLine
10
302
20
187
11
302
21
183
0
LINE
5
13E
100
AcDbEntity
8
0
6
ByLayer
62
256
370
-1
100
AcDbLine
10
307
20
188
11
303
21
188
0
ARC
5
13F
100
AcDbEntity
8
0
6
ByLayer
62
256
370
-1
100
AcDbCircle
10
303
20
187
40
1
100
AcDbArc
50
90
51
180
0
ARC
5
140
100
AcDbEntity
8
0
6
ByLayer
62
256
370
-1
100
AcDbCircle
10
303
20
17
40
1
100
AcDbArc
50
90
51
180
0
LINE
5
141
100
AcDbEntity
8
0
6
ByLayer
62
256
370
-1
100
AcDbLine
10
307
20
18
11
303
21
18
0
ARC
5
142
100
AcDbEntity
8
0
6
ByLayer
62
256
370
-1
100
AcDbCircle
10
307
20
17
40
1
100
AcDbArc
50
0
51
90
0
LINE
5
143
100
AcDbEntity
8
0
6
ByLayer
62
256
370
-1
100
AcDbLine
10
308
20
13
11
308
21
17
0
ARC
5
144
100
AcDbEntity
8
0
6
ByLayer
62
256
370
-1
100
AcDbCircle
10
307
20
13
40
1
100
AcDbArc
50
270
51
0
0
LINE
5
145
100
AcDbEntity
8
0
6
ByLayer
62
256
370
-1
100
AcDbLine
10
303
20
12
11
307
21
12
0
LINE
5
146
100
AcDbEntity
8
0
6
ByLayer
62
256
370
-1
100
AcDbLine
10
302
20
17
11
302
21
13
0
ARC
5
147
100
AcDbEntity
8
0
6
ByLayer
62
256
370
-1
100
AcDbCircle
10
303
20
13
40
1
100
AcDbArc
50
180
51
270
0
ARC
5
148
100
AcDbEntity
8
0
6
ByLayer
62
256
370
-1
100
AcDbCircle
10
190
20
17
40
1
100
AcDbArc
50
90
51
180
0
LINE
5
149
100
AcDbEntity
8
0
6
ByLayer
62
256
370
-1
100
AcDbLine
10
194
20
18
11
190
21
18
0
ARC
5
14A
100
AcDbEntity
8
0
6
ByLayer
62
256
370
-1
100
AcDbCircle
10
194
20
17
40
1
100
AcDbArc
50
0
51
90
0
LINE
5
14B
100
AcDbEntity
8
0
6
ByLayer
62
256
370
-1
100
AcDbLine
10
195
20
13
11
195
21
17
0
ARC
5
14C
100
AcDbEntity
8
0
6
ByLayer
62
256
370
-1
100
AcDbCircle
10
194
20
13
40
1
100
AcDbArc
50
270
51
0
0
LINE
5
14D
100
AcDbEntity
8
0
6
ByLayer
62
256
370
-1
100
AcDbLine
10
189
20
17
11
189
21
13
0
LINE
5
14E
100
AcDbEntity
8
0
6
ByLayer
62
256
370
-1
100
AcDbLine
10
190
20
12
11
194
21
12
0
ARC
5
14F
100
AcDbEntity
8
0
6
ByLayer
62
256
370
-1
100
AcDbCircle
10
190
20
13
40
1
100
AcDbArc
50
180
51
270
0
ARC
5
150
100
AcDbEntity
8
0
6
ByLayer
62
256
370
-1
100
AcDbCircle
10
126
20
17
40
1
100
AcDbArc
50
90
51
180
0
LINE
5
151
100
AcDbEntity
8
0
6
ByLayer
62
256
370
-1
100
AcDbLine
10
126
20
18
11
130
21
18
0
ARC
5
152
100
AcDbEntity
8
0
6
ByLayer
62
256
370
-1
100
AcDbCircle
10
130
20
17
40
1
100
AcDbArc
50
0
51
90
0
LINE
5
153
100
AcDbEntity
8
0
6
ByLayer
62
256
370
-1
100
AcDbLine
10
131
20
17
11
131
21
13
0
ARC
5
154
100
AcDbEntity
8
0
6
ByLayer
62
256
370
-1
100
AcDbCircle
10
130
20
13
40
1
100
AcDbArc
50
270
51
0
0
LINE
5
155
100
AcDbEntity
8
0
6
ByLayer
62
256
370
-1
100
AcDbLine
10
130
20
12
11
126
21
12
0
LINE
5
156
100
AcDbEntity
8
0
6
ByLayer
62
256
370
-1
100
AcDbLine
10
125
20
13
11
125
21
17
0
ARC
5
157
100
AcDbEntity
8
0
6
ByLayer
62
256
370
-1
100
AcDbCircle
10
126
20
13
40
1
100
AcDbArc
50
180
51
270
0
ARC
5
158
100
AcDbEntity
8
0
6
ByLayer
62
256
370
-1
100
AcDbCircle
10
13
20
13
40
1
100
AcDbArc
50
180
51
270
0
LINE
5
159
100
AcDbEntity
8
0
6
ByLayer
62
256
370
-1
100
AcDbLine
10
12
20
13
11
12
21
17
0
ARC
5
15A
100
AcDbEntity
8
0
6
ByLayer
62
256
370
-1
100
AcDbCircle
10
13
20
17
40
1
100
AcDbArc
50
90
51
180
0
LINE
5
15B
100
AcDbEntity
8
0
6
ByLayer
62
256
370
-1
100
AcDbLine
10
13
20
18
11
17
21
18
0
ARC
5
15C
100
AcDbEntity
8
0
6
ByLayer
62
256
370
-1
100
AcDbCircle
10
17
20
17
40
1
100
AcDbArc
50
0
51
90
0
LINE
5
15D
100
AcDbEntity
8
0
6
ByLayer
62
256
370
-1
100
AcDbLine
10
18
20
17
11
18
21
13
0
LINE
5
15E
100
AcDbEntity
8
0
6
ByLayer
62
256
370
-1
100
AcDbLine
10
17
20
12
11
13
21
12
0
ARC
5
15F
100
AcDbEntity
8
0
6
ByLayer
62
256
370
-1
100
AcDbCircle
10
17
20
13
40
1
100
AcDbArc
50
270
51
0
0
ARC
5
160
100
AcDbEntity
8
0
6
ByLayer
62
256
370
-1
100
AcDbCircle
10
13
20
187
40
1
100
AcDbArc
50
90
51
180
0
LINE
5
161
100
AcDbEntity
8
0
6
ByLayer
62
256
370
-1
100
AcDbLine
10
13
20
188
11
17
21
188
0
ARC
5
162
100
AcDbEntity
8
0
6
ByLayer
62
256
370
-1
100
AcDbCircle
10
17
20
187
40
1
100
AcDbArc
50
0
51
90
0
LINE
5
163
100
AcDbEntity
8
0
6
ByLayer
62
256
370
-1
100
AcDbLine
10
18
20
187
11
18
21
183
0
ARC
5
164
100
AcDbEntity
8
0
6
ByLayer
62
256
370
-1
100
AcDbCircle
10
17
20
183
40
1
100
AcDbArc
50
270
51
0
0
LINE
5
165
100
AcDbEntity
8
0
6
ByLayer
62
256
370
-1
100
AcDbLine
10
17
20
182
11
13
21
182
0
LINE
5
166
100
AcDbEntity
8
0
6
ByLayer
62
256
370
-1
100
AcDbLine
10
12
20
183
11
12
21
187
0
ARC
5
167
100
AcDbEntity
8
0
6
ByLayer
62
256
370
-1
100
AcDbCircle
10
13
20
183
40
1
100
AcDbArc
50
180
51
270
0
LINE
5
168
100
AcDbEntity
8
reference_600x300
6
ByLayer
62
256
370
-1
100
AcDbLine
10
-10
20
210
11
590
21
210
0
LINE
5
169
100
AcDbEntity
8
reference_600x300
6
ByLayer
62
256
370
-1
100
AcDbLine
10
590
20
210
11
590
21
-90
0
LINE
5
16A
100
AcDbEntity
8
reference_600x300
6
ByLayer
62
256
370
-1
100
AcDbLine
10
590
20
-90
11
-10
21
-90
0
LINE
5
16B
100
AcDbEntity
8
reference_600x300
6
ByLayer
62
256
370
-1
100
AcDbLine
10
-10
20
-90
11
-10
21
210
0
ARC
5
16C
100
AcDbEntity
8
0
6
ByLayer
62
256
370
-1
100
AcDbCircle
10
133
20
187
40
1
100
AcDbArc
50
90
51
180
0
LINE
5
16D
100
AcDbEntity
8
0
6
ByLayer
62
256
370
-1
100
AcDbLine
10
133
20
188
11
137
21
188
0
ARC
5
16E
100
AcDbEntity
8
0
6
ByLayer
62
256
370
-1
100
AcDbCircle
10
137
20
187
40
1
100
AcDbArc
50
0
51
90
0
LINE
5
16F
100
AcDbEntity
8
0
6
ByLayer
62
256
370
-1
100
AcDbLine
10
132
20
183
11
132
21
187
0
ARC
5
170
100
AcDbEntity
8
0
6
ByLayer
62
256
370
-1
100
AcDbCircle
10
133
20
183
40
1
100
AcDbArc
50
180
51
270
0
LINE
5
171
100
AcDbEntity
8
0
6
ByLayer
62
256
370
-1
100
AcDbLine
10
137
20
182
11
133
21
182
0
LINE
5
172
100
AcDbEntity
8
0
6
ByLayer
62
256
370
-1
100
AcDbLine
10
138
20
187
11
138
21
183
0
ARC
5
173
100
AcDbEntity
8
0
6
ByLayer
62
256
370
-1
100
AcDbCircle
10
137
20
183
40
1
100
AcDbArc
50
270
51
0
0
ARC
5
174
100
AcDbEntity
8
0
6
ByLayer
62
256
370
-1
100
AcDbCircle
10
187
20
187
40
1
100
AcDbArc
50
360
51
90
0
LINE
5
175
100
AcDbEntity
8
0
6
ByLayer
62
256
370
-1
100
AcDbLine
10
187
20
188
11
183
21
188
0
ARC
5
176
100
AcDbEntity
8
0
6
ByLayer
62
256
370
-1
100
AcDbCircle
10
183
20
187
40
1
100
AcDbArc
50
90
51
180
0
LINE
5
177
100
AcDbEntity
8
0
6
ByLayer
62
256
370
-1
100
AcDbLine
10
188
20
183
11
188
21
187
0
ARC
5
178
100
AcDbEntity
8
0
6
ByLayer
62
256
370
-1
100
AcDbCircle
10
187
20
183
40
1
100
AcDbArc
50
270
51
360
0
LINE
5
179
100
AcDbEntity
8
0
6
ByLayer
62
256
370
-1
100
AcDbLine
10
183
20
182
11
187
21
182
0
LINE
5
17A
100
AcDbEntity
8
0
6
ByLayer
62
256
370
-1
100
AcDbLine
10
182
20
187
11
182
21
183
0
ARC
5
17B
100
AcDbEntity
8
0
6
ByLayer
62
256
370
-1
100
AcDbCircle
10
183
20
183
40
1
100
AcDbArc
50
180
51
270
0
ARC
5
17C
100
AcDbEntity
8
0
6
ByLayer
62
256
370
-1
100
AcDbCircle
10
303
20
97
40
1
100
AcDbArc
50
90
51
180
0
LINE
5
17D
100
AcDbEntity
8
0
6
ByLayer
62
256
370
-1
100
AcDbLine
10
303
20
98
11
307
21
98
0
ARC
5
17E
100
AcDbEntity
8
0
6
ByLayer
62
256
370
-1
100
AcDbCircle
10
307
20
97
40
1
100
AcDbArc
50
0
51
90
0
LINE
5
17F
100
AcDbEntity
8
0
6
ByLayer
62
256
370
-1
100
AcDbLine
10
308
20
97
11
308
21
93
0
ARC
5
180
100
AcDbEntity
8
0
6
ByLayer
62
256
370
-1
100
AcDbCircle
10
307
20
93
40
1
100
AcDbArc
50
270
51
0
0
LINE
5
181
100
AcDbEntity
8
0
6
ByLayer
62
256
370
-1
100
AcDbLine
10
307
20
92
11
303
21
92
0
LINE
5
182
100
AcDbEntity
8
0
6
ByLayer
62
256
370
-1
100
AcDbLine
10
302
20
93
11
302
21
97
0
ARC
5
183
100
AcDbEntity
8
0
6
ByLayer
62
256
370
-1
100
AcDbCircle
10
303
20
93
40
1
100
AcDbArc
50
180
51
270
0
ARC
5
184
100
AcDbEntity
8
0
6
ByLayer
62
256
370
-1
100
AcDbCircle
10
13
20
97
40
1
100
AcDbArc
50
90
51
180
0
LINE
5
185
100
AcDbEntity
8
0
6
ByLayer
62
256
370
-1
100
AcDbLine
10
13
20
98
11
17
21
98
0
ARC
5
186
100
AcDbEntity
8
0
6
ByLayer
62
256
370
-1
100
AcDbCircle
10
17
20
97
40
1
100
AcDbArc
50
0
51
90
0
LINE
5
187
100
AcDbEntity
8
0
6
ByLayer
62
256
370
-1
100
AcDbLine
10
18
20
97
11
18
21
93
0
ARC
5
188
100
AcDbEntity
8
0
6
ByLayer
62
256
370
-1
100
AcDbCircle
10
17
20
93
40
1
100
AcDbArc
50
270
51
0
0
LINE
5
189
100
AcDbEntity
8
0
6
ByLayer
62
256
370
-1
100
AcDbLine
10
17
20
92
11
13
21
92
0
LINE
5
18A
100
AcDbEntity
8
0
6
ByLayer
62
256
370
-1
100
AcDbLine
10
12
20
93
11
12
21
97
0
ARC
5
18B
100
AcDbEntity
8
0
6
ByLayer
62
256
370
-1
100
AcDbCircle
10
13
20
93
40
1
100
AcDbArc
50
180
51
270
0
LINE
5
18C
100
AcDbEntity
8
1
6
ByLayer
62
256
370
-1
100
AcDbLine
10
580
20
-26
11
580
21
-46
0
ARC
5
18D
100
AcDbEntity
8
1
6
ByLayer
62
256
370
-1
100
AcDbCircle
10
570
20
-26
40
10
100
AcDbArc
50
360
51
90
0
ARC
5
18E
100
AcDbEntity
8
1
6
ByLayer
62
256
370
-1
100
AcDbCircle
10
563
20
-33
40
1
100
AcDbArc
50
180
51
270
0
LINE
5
18F
100
AcDbEntity
8
1
6
ByLayer
62
256
370
-1
100
AcDbLine
10
562
20
-33
11
562
21
-29
0
ARC
5
190
100
AcDbEntity
8
1
6
ByLayer
62
256
370
-1
100
AcDbCircle
10
563
20
-29
40
1
100
AcDbArc
50
90
51
180
0
LINE
5
191
100
AcDbEntity
8
1
6
ByLayer
62
256
370
-1
100
AcDbLine
10
563
20
-28
11
567
21
-28
0
ARC
5
192
100
AcDbEntity
8
1
6
ByLayer
62
256
370
-1
100
AcDbCircle
10
567
20
-29
40
1
100
AcDbArc
50
360
51
90
0
LINE
5
193
100
AcDbEntity
8
1
6
ByLayer
62
256
370
-1
100
AcDbLine
10
568
20
-29
11
568
21
-33
0
LINE
5
194
100
AcDbEntity
8
1
6
ByLayer
62
256
370
-1
100
AcDbLine
10
567
20
-34
11
563
21
-34
0
ARC
5
195
100
AcDbEntity
8
1
6
ByLayer
62
256
370
-1
100
AcDbCircle
10
567
20
-33
40
1
100
AcDbArc
50
270
51
360
0
LINE
5
196
100
AcDbEntity
8
1
6
ByLayer
62
256
370
-1
100
AcDbLine
10
410
20
-31
11
410
21
-16
0
LINE
5
197
100
AcDbEntity
8
1
6
ByLayer
62
256
370
-1
100
AcDbLine
10
410
20
-16
11
570
21
-16
0
ARC
5
198
100
AcDbEntity
8
1
6
ByLayer
62
256
370
-1
100
AcDbCircle
10
483
20
-33
40
1
100
AcDbArc
50
180
51
270
0
LINE
5
199
100
AcDbEntity
8
1
6
ByLayer
62
256
370
-1
100
AcDbLine
10
482
20
-33
11
482
21
-29
0
ARC
5
19A
100
AcDbEntity
8
1
6
ByLayer
62
256
370
-1
100
AcDbCircle
10
483
20
-29
40
1
100
AcDbArc
50
90
51
180
0
LINE
5
19B
100
AcDbEntity
8
1
6
ByLayer
62
256
370
-1
100
AcDbLine
10
483
20
-28
11
487
21
-28
0
ARC
5
19C
100
AcDbEntity
8
1
6
ByLayer
62
256
370
-1
100
AcDbCircle
10
487
20
-29
40
1
100
AcDbArc
50
360
51
90
0
LINE
5
19D
100
AcDbEntity
8
1
6
ByLayer
62
256
370
-1
100
AcDbLine
10
488
20
-29
11
488
21
-33
0
LINE
5
19E
100
AcDbEntity
8
1
6
ByLayer
62
256
370
-1
100
AcDbLine
10
487
20
-34
11
483
21
-34
0
ARC
5
19F
100
AcDbEntity
8
1
6
ByLayer
62
256
370
-1
100
AcDbCircle
10
487
20
-33
40
1
100
AcDbArc
50
270
51
360
0
LINE
5
1A0
100
AcDbEntity
8
1
6
ByLayer
62
256
370
-1
100
AcDbLine
10
580
20
-46
11
472
21
-46
0
ARC
5
1A1
100
AcDbEntity
8
1
6
ByLayer
62
256
370
-1
100
AcDbCircle
10
472
20
-44
40
2
100
AcDbArc
50
180
51
270
0
LINE
5
1A2
100
AcDbEntity
8
1
6
ByLayer
62
256
370
-1
100
AcDbLine
10
470
20
-44
11
470
21
-33
0
LINE
5
1A3
100
AcDbEntity
8
1
6
ByLayer
62
256
370
-1
100
AcDbLine
10
410
20
-31
11
468
21
-31
0
ARC
5
1A4
100
AcDbEntity
8
1
6
ByLayer
62
256
370
-1
100
AcDbCircle
10
468
20
-33
40
2
100
AcDbArc
50
360
51
90
0
LINE
5
1A5
100
AcDbEntity
8
1
6
ByLayer
62
256
370
-1
100
AcDbLine
10
580
20
-60
11
580
21
-80
0
ARC
5
1A6
100
AcDbEntity
8
1
6
ByLayer
62
256
370
-1
100
AcDbCircle
10
570
20
-60
40
10
100
AcDbArc
50
360
51
90
0
ARC
5
1A7
100
AcDbEntity
8
1
6
ByLayer
62
256
370
-1
100
AcDbCircle
10
563
20
-67
40
1
100
AcDbArc
50
180
51
270
0
LINE
5
1A8
100
AcDbEntity
8
1
6
ByLayer
62
256
370
-1
100
AcDbLine
10
562
20
-67
11
562
21
-63
0
ARC
5
1A9
100
AcDbEntity
8
1
6
ByLayer
62
256
370
-1
100
AcDbCircle
10
563
20
-63
40
1
100
AcDbArc
50
90
51
180
0
LINE
5
1AA
100
AcDbEntity
8
1
6
ByLayer
62
256
370
-1
100
AcDbLine
10
563
20
-62
11
567
21
-62
0
ARC
5
1AB
100
AcDbEntity
8
1
6
ByLayer
62
256
370
-1
100
AcDbCircle
10
567
20
-63
40
1
100
AcDbArc
50
360
51
90
0
LINE
5
1AC
100
AcDbEntity
8
1
6
ByLayer
62
256
370
-1
100
AcDbLine
10
568
20
-63
11
568
21
-67
0
LINE
5
1AD
100
AcDbEntity
8
1
6
ByLayer
62
256
370
-1
100
AcDbLine
10
567
20
-68
11
563
21
-68
0
ARC
5
1AE
100
AcDbEntity
8
1
6
ByLayer
62
256
370
-1
100
AcDbCircle
10
567
20
-67
40
1
100
AcDbArc
50
270
51
360
0
LINE
5
1AF
100
AcDbEntity
8
1
6
ByLayer
62
256
370
-1
100
AcDbLine
10
410
20
-65
11
410
21
-50
0
LINE
5
1B0
100
AcDbEntity
8
1
6
ByLayer
62
256
370
-1
100
AcDbLine
10
410
20
-50
11
570
21
-50
0
ARC
5
1B1
100
AcDbEntity
8
1
6
ByLayer
62
256
370
-1
100
AcDbCircle
10
483
20
-67
40
1
100
AcDbArc
50
180
51
270
0
LINE
5
1B2
100
AcDbEntity
8
1
6
ByLayer
62
256
370
-1
100
AcDbLine
10
482
20
-67
11
482
21
-63
0
ARC
5
1B3
100
AcDbEntity
8
1
6
ByLayer
62
256
370
-1
100
AcDbCircle
10
483
20
-63
40
1
100
AcDbArc
50
90
51
180
0
LINE
5
1B4
100
AcDbEntity
8
1
6
ByLayer
62
256
370
-1
100
AcDbLine
10
483
20
-62
11
487
21
-62
0
ARC
5
1B5
100
AcDbEntity
8
1
6
ByLayer
62
256
370
-1
100
AcDbCircle
10
487
20
-63
40
1
100
AcDbArc
50
360
51
90
0
LINE
5
1B6
100
AcDbEntity
8
1
6
ByLayer
62
256
370
-1
100
AcDbLine
10
488
20
-63
11
488
21
-67
0
LINE
5
1B7
100
AcDbEntity
8
1
6
ByLayer
62
256
370
-1
100
AcDbLine
10
487
20
-68
11
483
21
-68
0
ARC
5
1B8
100
AcDbEntity
8
1
6
ByLayer
62
256
370
-1
100
AcDbCircle
10
487
20
-67
40
1
100
AcDbArc
50
270
51
360
0
LINE
5
1B9
100
AcDbEntity
8
1
6
ByLayer
62
256
370
-1
100
AcDbLine
10
580
20
-80
11
472
21
-80
0
ARC
5
1BA
100
AcDbEntity
8
1
6
ByLayer
62
256
370
-1
100
AcDbCircle
10
472
20
-78
40
2
100
AcDbArc
50
180
51
270
0
LINE
5
1BB
100
AcDbEntity
8
1
6
ByLayer
62
256
370
-1
100
AcDbLine
10
470
20
-78
11
470
21
-67
0
LINE
5
1BC
100
AcDbEntity
8
1
6
ByLayer
62
256
370
-1
100
AcDbLine
10
410
20
-65
11
468
21
-65
0
ARC
5
1BD
100
AcDbEntity
8
1
6
ByLayer
62
256
370
-1
100
AcDbCircle
10
468
20
-67
40
2
100
AcDbArc
50
360
51
90
0
ARC
5
1BE
100
AcDbEntity
8
1
6
ByLayer
62
256
370
-1
100
AcDbCircle
10
10
20
-27
40
10
100
AcDbArc
50
90
51
180
0
ARC
5
1BF
100
AcDbEntity
8
1
6
ByLayer
62
256
370
-1
100
AcDbCircle
10
122
20
-40
40
2
100
AcDbArc
50
180
51
270
0
ARC
5
1C0
100
AcDbEntity
8
1
6
ByLayer
62
256
370
-1
100
AcDbCircle
10
28
20
-45
40
2
100
AcDbArc
50
270
51
360
0
LINE
5
1C1
100
AcDbEntity
8
1
6
ByLayer
62
256
370
-1
100
AcDbLine
10
120
20
-40
11
120
21
-29
0
ARC
5
1C2
100
AcDbEntity
8
1
6
ByLayer
62
256
370
-1
100
AcDbCircle
10
118
20
-29
40
2
100
AcDbArc
50
360
51
90
0
LINE
5
1C3
100
AcDbEntity
8
1
6
ByLayer
62
256
370
-1
100
AcDbLine
10
30
20
-29
11
30
21
-45
0
LINE
5
1C4
100
AcDbEntity
8
1
6
ByLayer
62
256
370
-1
100
AcDbLine
10
118
20
-27
11
32
21
-27
0
ARC
5
1C5
100
AcDbEntity
8
1
6
ByLayer
62
256
370
-1
100
AcDbCircle
10
32
20
-29
40
2
100
AcDbArc
50
90
51
180
0
ARC
5
1C6
100
AcDbEntity
8
1
6
ByLayer
62
256
370
-1
100
AcDbCircle
10
17
20
-30
40
1
100
AcDbArc
50
360
51
90
0
LINE
5
1C7
100
AcDbEntity
8
1
6
ByLayer
62
256
370
-1
100
AcDbLine
10
18
20
-34
11
18
21
-30
0
ARC
5
1C8
100
AcDbEntity
8
1
6
ByLayer
62
256
370
-1
100
AcDbCircle
10
17
20
-34
40
1
100
AcDbArc
50
270
51
360
0
LINE
5
1C9
100
AcDbEntity
8
1
6
ByLayer
62
256
370
-1
100
AcDbLine
10
13
20
-35
11
17
21
-35
0
ARC
5
1CA
100
AcDbEntity
8
1
6
ByLayer
62
256
370
-1
100
AcDbCircle
10
13
20
-34
40
1
100
AcDbArc
50
180
51
270
0
LINE
5
1CB
100
AcDbEntity
8
1
6
ByLayer
62
256
370
-1
100
AcDbLine
10
12
20
-30
11
12
21
-34
0
LINE
5
1CC
100
AcDbEntity
8
1
6
ByLayer
62
256
370
-1
100
AcDbLine
10
17
20
-29
11
13
21
-29
0
ARC
5
1CD
100
AcDbEntity
8
1
6
ByLayer
62
256
370
-1
100
AcDbCircle
10
13
20
-30
40
1
100
AcDbArc
50
90
51
180
0
ARC
5
1CE
100
AcDbEntity
8
1
6
ByLayer
62
256
370
-1
100
AcDbCircle
10
137
20
-30
40
1
100
AcDbArc
50
360
51
90
0
LINE
5
1CF
100
AcDbEntity
8
1
6
ByLayer
62
256
370
-1
100
AcDbLine
10
137
20
-29
11
133
21
-29
0
ARC
5
1D0
100
AcDbEntity
8
1
6
ByLayer
62
256
370
-1
100
AcDbCircle
10
133
20
-30
40
1
100
AcDbArc
50
90
51
180
0
LINE
5
1D1
100
AcDbEntity
8
1
6
ByLayer
62
256
370
-1
100
AcDbLine
10
132
20
-30
11
132
21
-34
0
ARC
5
1D2
100
AcDbEntity
8
1
6
ByLayer
62
256
370
-1
100
AcDbCircle
10
133
20
-34
40
1
100
AcDbArc
50
180
51
270
0
LINE
5
1D3
100
AcDbEntity
8
1
6
ByLayer
62
256
370
-1
100
AcDbLine
10
133
20
-35
11
137
21
-35
0
LINE
5
1D4
100
AcDbEntity
8
1
6
ByLayer
62
256
370
-1
100
AcDbLine
10
138
20
-34
11
138
21
-30
0
ARC
5
1D5
100
AcDbEntity
8
1
6
ByLayer
62
256
370
-1
100
AcDbCircle
10
137
20
-34
40
1
100
AcDbArc
50
270
51
360
0
LINE
5
1D6
100
AcDbEntity
8
1
6
ByLayer
62
256
370
-1
100
AcDbLine
10
0
20
-27
11
0
21
-47
0
LINE
5
1D7
100
AcDbEntity
8
1
6
ByLayer
62
256
370
-1
100
AcDbLine
10
0
20
-47
11
28
21
-47
0
ARC
5
1D8
100
AcDbEntity
8
1
6
ByLayer
62
256
370
-1
100
AcDbCircle
10
310
20
-27
40
10
100
AcDbArc
50
360
51
90
0
ARC
5
1D9
100
AcDbEntity
8
1
6
ByLayer
62
256
370
-1
100
AcDbCircle
10
198
20
-40
40
2
100
AcDbArc
50
270
51
360
0
ARC
5
1DA
100
AcDbEntity
8
1
6
ByLayer
62
256
370
-1
100
AcDbCircle
10
292
20
-45
40
2
100
AcDbArc
50
180
51
270
0
LINE
5
1DB
100
AcDbEntity
8
1
6
ByLayer
62
256
370
-1
100
AcDbLine
10
200
20
-40
11
200
21
-29
0
ARC
5
1DC
100
AcDbEntity
8
1
6
ByLayer
62
256
370
-1
100
AcDbCircle
10
202
20
-29
40
2
100
AcDbArc
50
90
51
180
0
LINE
5
1DD
100
AcDbEntity
8
1
6
ByLayer
62
256
370
-1
100
AcDbLine
10
290
20
-29
11
290
21
-45
0
LINE
5
1DE
100
AcDbEntity
8
1
6
ByLayer
62
256
370
-1
100
AcDbLine
10
202
20
-27
11
288
21
-27
0
ARC
5
1DF
100
AcDbEntity
8
1
6
ByLayer
62
256
370
-1
100
AcDbCircle
10
288
20
-29
40
2
100
AcDbArc
50
360
51
90
0
ARC
5
1E0
100
AcDbEntity
8
1
6
ByLayer
62
256
370
-1
100
AcDbCircle
10
303
20
-30
40
1
100
AcDbArc
50
90
51
180
0
LINE
5
1E1
100
AcDbEntity
8
1
6
ByLayer
62
256
370
-1
100
AcDbLine
10
302
20
-34
11
302
21
-30
0
ARC
5
1E2
100
AcDbEntity
8
1
6
ByLayer
62
256
370
-1
100
AcDbCircle
10
303
20
-34
40
1
100
AcDbArc
50
180
51
270
0
LINE
5
1E3
100
AcDbEntity
8
1
6
ByLayer
62
256
370
-1
100
AcDbLine
10
307
20
-35
11
303
21
-35
0
ARC
5
1E4
100
AcDbEntity
8
1
6
ByLayer
62
256
370
-1
100
AcDbCircle
10
307
20
-34
40
1
100
AcDbArc
50
270
51
360
0
LINE
5
1E5
100
AcDbEntity
8
1
6
ByLayer
62
256
370
-1
100
AcDbLine
10
308
20
-30
11
308
21
-34
0
LINE
5
1E6
100
AcDbEntity
8
1
6
ByLayer
62
256
370
-1
100
AcDbLine
10
303
20
-29
11
307
21
-29
0
ARC
5
1E7
100
AcDbEntity
8
1
6
ByLayer
62
256
370
-1
100
AcDbCircle
10
307
20
-30
40
1
100
AcDbArc
50
360
51
90
0
ARC
5
1E8
100
AcDbEntity
8
1
6
ByLayer
62
256
370
-1
100
AcDbCircle
10
183
20
-30
40
1
100
AcDbArc
50
90
51
180
0
LINE
5
1E9
100
AcDbEntity
8
1
6
ByLayer
62
256
370
-1
100
AcDbLine
10
183
20
-29
11
187
21
-29
0
ARC
5
1EA
100
AcDbEntity
8
1
6
ByLayer
62
256
370
-1
100
AcDbCircle
10
187
20
-30
40
1
100
AcDbArc
50
360
51
90
0
LINE
5
1EB
100
AcDbEntity
8
1
6
ByLayer
62
256
370
-1
100
AcDbLine
10
188
20
-30
11
188
21
-34
0
ARC
5
1EC
100
AcDbEntity
8
1
6
ByLayer
62
256
370
-1
100
AcDbCircle
10
187
20
-34
40
1
100
AcDbArc
50
270
51
360
0
LINE
5
1ED
100
AcDbEntity
8
1
6
ByLayer
62
256
370
-1
100
AcDbLine
10
187
20
-35
11
183
21
-35
0
LINE
5
1EE
100
AcDbEntity
8
1
6
ByLayer
62
256
370
-1
100
AcDbLine
10
182
20
-34
11
182
21
-30
0
ARC
5
1EF
100
AcDbEntity
8
1
6
ByLayer
62
256
370
-1
100
AcDbCircle
10
183
20
-34
40
1
100
AcDbArc
50
180
51
270
0
LINE
5
1F0
100
AcDbEntity
8
1
6
ByLayer
62
256
370
-1
100
AcDbLine
10
320
20
-27
11
320
21
-47
0
LINE
5
1F1
100
AcDbEntity
8
1
6
ByLayer
62
256
370
-1
100
AcDbLine
10
320
20
-47
11
292
21
-47
0
LINE
5
1F2
100
AcDbEntity
8
1
6
ByLayer
62
256
370
-1
100
AcDbLine
10
585
20
200
11
585
21
170
0
LINE
5
1F3
100
AcDbEntity
8
1
6
ByLayer
62
256
370
-1
100
AcDbLine
10
325
20
170
11
325
21
200
0
LINE
5
1F4
100
AcDbEntity
8
1
6
ByLayer
62
256
370
-1
100
AcDbLine
10
325
20
200
11
585
21
200
0
ARC
5
1F5
100
AcDbEntity
8
1
6
ByLayer
62
256
370
-1
100
AcDbCircle
10
447
20
122
40
2
100
AcDbArc
50
180
51
270
0
LINE
5
1F6
100
AcDbEntity
8
1
6
ByLayer
62
256
370
-1
100
AcDbLine
10
585
20
170
11
467
21
170
0
ARC
5
1F7
100
AcDbEntity
8
1
6
ByLayer
62
256
370
-1
100
AcDbCircle
10
467
20
168
40
2
100
AcDbArc
50
90
51
180
0
LINE
5
1F8
100
AcDbEntity
8
1
6
ByLayer
62
256
370
-1
100
AcDbLine
10
445
20
122
11
445
21
168
0
LINE
5
1F9
100
AcDbEntity
8
1
6
ByLayer
62
256
370
-1
100
AcDbLine
10
443
20
170
11
325
21
170
0
ARC
5
1FA
100
AcDbEntity
8
1
6
ByLayer
62
256
370
-1
100
AcDbCircle
10
443
20
168
40
2
100
AcDbArc
50
360
51
90
0
LINE
5
1FB
100
AcDbEntity
8
1
6
ByLayer
62
256
370
-1
100
AcDbLine
10
465
20
168
11
465
21
122
0
LINE
5
1FC
100
AcDbEntity
8
1
6
ByLayer
62
256
370
-1
100
AcDbLine
10
463
20
120
11
447
21
120
0
ARC
5
1FD
100
AcDbEntity
8
1
6
ByLayer
62
256
370
-1
100
AcDbCircle
10
463
20
122
40
2
100
AcDbArc
50
270
51
360
0
ARC
5
1FE
100
AcDbEntity
8
1
6
ByLayer
62
256
370
-1
100
AcDbCircle
10
489
20
183
40
1
100
AcDbArc
50
270
51
360
0
LINE
5
1FF
100
AcDbEntity
8
1
6
ByLayer
62
256
370
-1
100
AcDbLine
10
489
20
182
11
485
21
182
0
ARC
5
200
100
AcDbEntity
8
1
6
ByLayer
62
256
370
-1
100
AcDbCircle
10
485
20
183
40
1
100
AcDbArc
50
180
51
270
0
LINE
5
201
100
AcDbEntity
8
1
6
ByLayer
62
256
370
-1
100
AcDbLine
10
484
20
183
11
484
21
187
0
ARC
5
202
100
AcDbEntity
8
1
6
ByLayer
62
256
370
-1
100
AcDbCircle
10
485
20
187
40
1
100
AcDbArc
50
90
51
180
0
LINE
5
203
100
AcDbEntity
8
1
6
ByLayer
62
256
370
-1
100
AcDbLine
10
485
20
188
11
489
21
188
0
LINE
5
204
100
AcDbEntity
8
1
6
ByLayer
62
256
370
-1
100
AcDbLine
10
490
20
187
11
490
21
183
0
ARC
5
205
100
AcDbEntity
8
1
6
ByLayer
62
256
370
-1
100
AcDbCircle
10
489
20
187
40
1
100
AcDbArc
50
360
51
90
0
ARC
5
206
100
AcDbEntity
8
1
6
ByLayer
62
256
370
-1
100
AcDbCircle
10
425
20
183
40
1
100
AcDbArc
50
270
51
360
0
LINE
5
207
100
AcDbEntity
8
1
6
ByLayer
62
256
370
-1
100
AcDbLine
10
425
20
182
11
421
21
182
0
ARC
5
208
100
AcDbEntity
8
1
6
ByLayer
62
256
370
-1
100
AcDbCircle
10
421
20
183
40
1
100
AcDbArc
50
180
51
270
0
LINE
5
209
100
AcDbEntity
8
1
6
ByLayer
62
256
370
-1
100
AcDbLine
10
420
20
183
11
420
21
187
0
ARC
5
20A
100
AcDbEntity
8
1
6
ByLayer
62
256
370
-1
100
AcDbCircle
10
421
20
187
40
1
100
AcDbArc
50
90
51
180
0
LINE
5
20B
100
AcDbEntity
8
1
6
ByLayer
62
256
370
-1
100
AcDbLine
10
421
20
188
11
425
21
188
0
LINE
5
20C
100
AcDbEntity
8
1
6
ByLayer
62
256
370
-1
100
AcDbLine
10
426
20
187
11
426
21
183
0
ARC
5
20D
100
AcDbEntity
8
1
6
ByLayer
62
256
370
-1
100
AcDbCircle
10
425
20
187
40
1
100
AcDbArc
50
360
51
90
0
ARC
5
20E
100
AcDbEntity
8
1
6
ByLayer
62
256
370
-1
100
AcDbCircle
10
570
20
22
40
10
100
AcDbArc
50
270
51
360
0
ARC
5
20F
100
AcDbEntity
8
1
6
ByLayer
62
256
370
-1
100
AcDbCircle
10
557
20
134
40
2
100
AcDbArc
50
180
51
270
0
ARC
5
210
100
AcDbEntity
8
1
6
ByLayer
62
256
370
-1
100
AcDbCircle
10
552
20
40
40
2
100
AcDbArc
50
90
51
180
0
LINE
5
211
100
AcDbEntity
8
1
6
ByLayer
62
256
370
-1
100
AcDbLine
10
557
20
132
11
568
21
132
0
ARC
5
212
100
AcDbEntity
8
1
6
ByLayer
62
256
370
-1
100
AcDbCircle
10
568
20
130
40
2
100
AcDbArc
50
360
51
90
0
LINE
5
213
100
AcDbEntity
8
1
6
ByLayer
62
256
370
-1
100
AcDbLine
10
580
20
160
11
580
21
22
0
ARC
5
214
100
AcDbEntity
8
1
6
ByLayer
62
256
370
-1
100
AcDbCircle
10
578
20
160
40
2
100
AcDbArc
50
360
51
90
0
LINE
5
215
100
AcDbEntity
8
1
6
ByLayer
62
256
370
-1
100
AcDbLine
10
557
20
162
11
578
21
162
0
LINE
5
216
100
AcDbEntity
8
1
6
ByLayer
62
256
370
-1
100
AcDbLine
10
555
20
160
11
555
21
134
0
ARC
5
217
100
AcDbEntity
8
1
6
ByLayer
62
256
370
-1
100
AcDbCircle
10
557
20
160
40
2
100
AcDbArc
50
90
51
180
0
LINE
5
218
100
AcDbEntity
8
1
6
ByLayer
62
256
370
-1
100
AcDbLine
10
568
20
42
11
552
21
42
0
LINE
5
219
100
AcDbEntity
8
1
6
ByLayer
62
256
370
-1
100
AcDbLine
10
570
20
130
11
570
21
44
0
ARC
5
21A
100
AcDbEntity
8
1
6
ByLayer
62
256
370
-1
100
AcDbCircle
10
568
20
44
40
2
100
AcDbArc
50
270
51
360
0
ARC
5
21B
100
AcDbEntity
8
1
6
ByLayer
62
256
370
-1
100
AcDbCircle
10
567
20
29
40
1
100
AcDbArc
50
360
51
90
0
LINE
5
21C
100
AcDbEntity
8
1
6
ByLayer
62
256
370
-1
100
AcDbLine
10
563
20
30
11
567
21
30
0
ARC
5
21D
100
AcDbEntity
8
1
6
ByLayer
62
256
370
-1
100
AcDbCircle
10
563
20
29
40
1
100
AcDbArc
50
90
51
180
0
LINE
5
21E
100
AcDbEntity
8
1
6
ByLayer
62
256
370
-1
100
AcDbLine
10
562
20
25
11
562
21
29
0
ARC
5
21F
100
AcDbEntity
8
1
6
ByLayer
62
256
370
-1
100
AcDbCircle
10
563
20
25
40
1
100
AcDbArc
50
180
51
270
0
LINE
5
220
100
AcDbEntity
8
1
6
ByLayer
62
256
370
-1
100
AcDbLine
10
567
20
24
11
563
21
24
0
LINE
5
221
100
AcDbEntity
8
1
6
ByLayer
62
256
370
-1
100
AcDbLine
10
568
20
29
11
568
21
25
0
ARC
5
222
100
AcDbEntity
8
1
6
ByLayer
62
256
370
-1
100
AcDbCircle
10
567
20
25
40
1
100
AcDbArc
50
270
51
360
0
ARC
5
223
100
AcDbEntity
8
1
6
ByLayer
62
256
370
-1
100
AcDbCircle
10
567
20
149
40
1
100
AcDbArc
50
360
51
90
0
LINE
5
224
100
AcDbEntity
8
1
6
ByLayer
62
256
370
-1
100
AcDbLine
10
568
20
149
11
568
21
145
0
ARC
5
225
100
AcDbEntity
8
1
6
ByLayer
62
256
370
-1
100
AcDbCircle
10
567
20
145
40
1
100
AcDbArc
50
270
51
360
0
LINE
5
226
100
AcDbEntity
8
1
6
ByLayer
62
256
370
-1
100
AcDbLine
10
567
20
144
11
563
21
144
0
ARC
5
227
100
AcDbEntity
8
1
6
ByLayer
62
256
370
-1
100
AcDbCircle
10
563
20
145
40
1
100
AcDbArc
50
180
51
270
0
LINE
5
228
100
AcDbEntity
8
1
6
ByLayer
62
256
370
-1
100
AcDbLine
10
562
20
145
11
562
21
149
0
LINE
5
229
100
AcDbEntity
8
1
6
ByLayer
62
256
370
-1
100
AcDbLine
10
563
20
150
11
567
21
150
0
ARC
5
22A
100
AcDbEntity
8
1
6
ByLayer
62
256
370
-1
100
AcDbCircle
10
563
20
149
40
1
100
AcDbArc
50
90
51
180
0
LINE
5
22B
100
AcDbEntity
8
1
6
ByLayer
62
256
370
-1
100
AcDbLine
10
570
20
12
11
550
21
12
0
LINE
5
22C
100
AcDbEntity
8
1
6
ByLayer
62
256
370
-1
100
AcDbLine
10
550
20
12
11
550
21
40
0
ARC
5
22D
100
AcDbEntity
8
1
6
ByLayer
62
256
370
-1
100
AcDbCircle
10
530
20
22
40
10
100
AcDbArc
50
270
51
360
0
ARC
5
22E
100
AcDbEntity
8
1
6
ByLayer
62
256
370
-1
100
AcDbCircle
10
517
20
134
40
2
100
AcDbArc
50
180
51
270
0
ARC
5
22F
100
AcDbEntity
8
1
6
ByLayer
62
256
370
-1
100
AcDbCircle
10
512
20
40
40
2
100
AcDbArc
50
90
51
180
0
LINE
5
230
100
AcDbEntity
8
1
6
ByLayer
62
256
370
-1
100
AcDbLine
10
517
20
132
11
528
21
132
0
ARC
5
231
100
AcDbEntity
8
1
6
ByLayer
62
256
370
-1
100
AcDbCircle
10
528
20
130
40
2
100
AcDbArc
50
360
51
90
0
LINE
5
232
100
AcDbEntity
8
1
6
ByLayer
62
256
370
-1
100
AcDbLine
10
540
20
160
11
540
21
22
0
ARC
5
233
100
AcDbEntity
8
1
6
ByLayer
62
256
370
-1
100
AcDbCircle
10
538
20
160
40
2
100
AcDbArc
50
360
51
90
0
LINE
5
234
100
AcDbEntity
8
1
6
ByLayer
62
256
370
-1
100
AcDbLine
10
517
20
162
11
538
21
162
0
LINE
5
235
100
AcDbEntity
8
1
6
ByLayer
62
256
370
-1
100
AcDbLine
10
515
20
160
11
515
21
134
0
ARC
5
236
100
AcDbEntity
8
1
6
ByLayer
62
256
370
-1
100
AcDbCircle
10
517
20
160
40
2
100
AcDbArc
50
90
51
180
0
LINE
5
237
100
AcDbEntity
8
1
6
ByLayer
62
256
370
-1
100
AcDbLine
10
528
20
42
11
512
21
42
0
LINE
5
238
100
AcDbEntity
8
1
6
ByLayer
62
256
370
-1
100
AcDbLine
10
530
20
130
11
530
21
44
0
ARC
5
239
100
AcDbEntity
8
1
6
ByLayer
62
256
370
-1
100
AcDbCircle
10
528
20
44
40
2
100
AcDbArc
50
270
51
360
0
ARC
5
23A
100
AcDbEntity
8
1
6
ByLayer
62
256
370
-1
100
AcDbCircle
10
527
20
29
40
1
100
AcDbArc
50
360
51
90
0
LINE
5
23B
100
AcDbEntity
8
1
6
ByLayer
62
256
370
-1
100
AcDbLine
10
523
20
30
11
527
21
30
0
ARC
5
23C
100
AcDbEntity
8
1
6
ByLayer
62
256
370
-1
100
AcDbCircle
10
523
20
29
40
1
100
AcDbArc
50
90
51
180
0
LINE
5
23D
100
AcDbEntity
8
1
6
ByLayer
62
256
370
-1
100
AcDbLine
10
522
20
25
11
522
21
29
0
ARC
5
23E
100
AcDbEntity
8
1
6
ByLayer
62
256
370
-1
100
AcDbCircle
10
523
20
25
40
1
100
AcDbArc
50
180
51
270
0
LINE
5
23F
100
AcDbEntity
8
1
6
ByLayer
62
256
370
-1
100
AcDbLine
10
527
20
24
11
523
21
24
0
LINE
5
240
100
AcDbEntity
8
1
6
ByLayer
62
256
370
-1
100
AcDbLine
10
528
20
29
11
528
21
25
0
ARC
5
241
100
AcDbEntity
8
1
6
ByLayer
62
256
370
-1
100
AcDbCircle
10
527
20
25
40
1
100
AcDbArc
50
270
51
360
0
ARC
5
242
100
AcDbEntity
8
1
6
ByLayer
62
256
370
-1
100
AcDbCircle
10
527
20
149
40
1
100
AcDbArc
50
360
51
90
0
LINE
5
243
100
AcDbEntity
8
1
6
ByLayer
62
256
370
-1
100
AcDbLine
10
528
20
149
11
528
21
145
0
ARC
5
244
100
AcDbEntity
8
1
6
ByLayer
62
256
370
-1
100
AcDbCircle
10
527
20
145
40
1
100
AcDbArc
50
270
51
360
0
LINE
5
245
100
AcDbEntity
8
1
6
ByLayer
62
256
370
-1
100
AcDbLine
10
527
20
144
11
523
21
144
0
ARC
5
246
100
AcDbEntity
8
1
6
ByLayer
62
256
370
-1
100
AcDbCircle
10
523
20
145
40
1
100
AcDbArc
50
180
51
270
0
LINE
5
247
100
AcDbEntity
8
1
6
ByLayer
62
256
370
-1
100
AcDbLine
10
522
20
145
11
522
21
149
0
LINE
5
248
100
AcDbEntity
8
1
6
ByLayer
62
256
370
-1
100
AcDbLine
10
523
20
150
11
527
21
150
0
ARC
5
249
100
AcDbEntity
8
1
6
ByLayer
62
256
370
-1
100
AcDbCircle
10
523
20
149
40
1
100
AcDbArc
50
90
51
180
0
LINE
5
24A
100
AcDbEntity
8
1
6
ByLayer
62
256
370
-1
100
AcDbLine
10
530
20
12
11
510
21
12
0
LINE
5
24B
100
AcDbEntity
8
1
6
ByLayer
62
256
370
-1
100
AcDbLine
10
510
20
12
11
510
21
40
0
ARC
5
24C
100
AcDbEntity
8
1
6
ByLayer
62
256
370
-1
100
AcDbCircle
10
490
20
22
40
10
100
AcDbArc
50
270
51
360
0
ARC
5
24D
100
AcDbEntity
8
1
6
ByLayer
62
256
370
-1
100
AcDbCircle
10
477
20
134
40
2
100
AcDbArc
50
180
51
270
0
ARC
5
24E
100
AcDbEntity
8
1
6
ByLayer
62
256
370
-1
100
AcDbCircle
10
472
20
40
40
2
100
AcDbArc
50
90
51
180
0
LINE
5
24F
100
AcDbEntity
8
1
6
ByLayer
62
256
370
-1
100
AcDbLine
10
477
20
132
11
488
21
132
0
ARC
5
250
100
AcDbEntity
8
1
6
ByLayer
62
256
370
-1
100
AcDbCircle
10
488
20
130
40
2
100
AcDbArc
50
360
51
90
0
LINE
5
251
100
AcDbEntity
8
1
6
ByLayer
62
256
370
-1
100
AcDbLine
10
500
20
160
11
500
21
22
0
ARC
5
252
100
AcDbEntity
8
1
6
ByLayer
62
256
370
-1
100
AcDbCircle
10
498
20
160
40
2
100
AcDbArc
50
360
51
90
0
LINE
5
253
100
AcDbEntity
8
1
6
ByLayer
62
256
370
-1
100
AcDbLine
10
477
20
162
11
498
21
162
0
LINE
5
254
100
AcDbEntity
8
1
6
ByLayer
62
256
370
-1
100
AcDbLine
10
475
20
160
11
475
21
134
0
ARC
5
255
100
AcDbEntity
8
1
6
ByLayer
62
256
370
-1
100
AcDbCircle
10
477
20
160
40
2
100
AcDbArc
50
90
51
180
0
LINE
5
256
100
AcDbEntity
8
1
6
ByLayer
62
256
370
-1
100
AcDbLine
10
488
20
42
11
472
21
42
0
LINE
5
257
100
AcDbEntity
8
1
6
ByLayer
62
256
370
-1
100
AcDbLine
10
490
20
130
11
490
21
44
0
ARC
5
258
100
AcDbEntity
8
1
6
ByLayer
62
256
370
-1
100
AcDbCircle
10
488
20
44
40
2
100
AcDbArc
50
270
51
360
0
ARC
5
259
100
AcDbEntity
8
1
6
ByLayer
62
256
370
-1
100
AcDbCircle
10
487
20
29
40
1
100
AcDbArc
50
360
51
90
0
LINE
5
25A
100
AcDbEntity
8
1
6
ByLayer
62
256
370
-1
100
AcDbLine
10
483
20
30
11
487
21
30
0
ARC
5
25B
100
AcDbEntity
8
1
6
ByLayer
62
256
370
-1
100
AcDbCircle
10
483
20
29
40
1
100
AcDbArc
50
90
51
180
0
LINE
5
25C
100
AcDbEntity
8
1
6
ByLayer
62
256
370
-1
100
AcDbLine
10
482
20
25
11
482
21
29
0
ARC
5
25D
100
AcDbEntity
8
1
6
ByLayer
62
256
370
-1
100
AcDbCircle
10
483
20
25
40
1
100
AcDbArc
50
180
51
270
0
LINE
5
25E
100
AcDbEntity
8
1
6
ByLayer
62
256
370
-1
100
AcDbLine
10
487
20
24
11
483
21
24
0
LINE
5
25F
100
AcDbEntity
8
1
6
ByLayer
62
256
370
-1
100
AcDbLine
10
488
20
29
11
488
21
25
0
ARC
5
260
100
AcDbEntity
8
1
6
ByLayer
62
256
370
-1
100
AcDbCircle
10
487
20
25
40
1
100
AcDbArc
50
270
51
360
0
ARC
5
261
100
AcDbEntity
8
1
6
ByLayer
62
256
370
-1
100
AcDbCircle
10
487
20
149
40
1
100
AcDbArc
50
360
51
90
0
LINE
5
262
100
AcDbEntity
8
1
6
ByLayer
62
256
370
-1
100
AcDbLine
10
488
20
149
11
488
21
145
0
ARC
5
263
100
AcDbEntity
8
1
6
ByLayer
62
256
370
-1
100
AcDbCircle
10
487
20
145
40
1
100
AcDbArc
50
270
51
360
0
LINE
5
264
100
AcDbEntity
8
1
6
ByLayer
62
256
370
-1
100
AcDbLine
10
487
20
144
11
483
21
144
0
ARC
5
265
100
AcDbEntity
8
1
6
ByLayer
62
256
370
-1
100
AcDbCircle
10
483
20
145
40
1
100
AcDbArc
50
180
51
270
0
LINE
5
266
100
AcDbEntity
8
1
6
ByLayer
62
256
370
-1
100
AcDbLine
10
482
20
145
11
482
21
149
0
LINE
5
267
100
AcDbEntity
8
1
6
ByLayer
62
256
370
-1
100
AcDbLine
10
483
20
150
11
487
21
150
0
ARC
5
268
100
AcDbEntity
8
1
6
ByLayer
62
256
370
-1
100
AcDbCircle
10
483
20
149
40
1
100
AcDbArc
50
90
51
180
0
LINE
5
269
100
AcDbEntity
8
1
6
ByLayer
62
256
370
-1
100
AcDbLine
10
490
20
12
11
470
21
12
0
LINE
5
26A
100
AcDbEntity
8
1
6
ByLayer
62
256
370
-1
100
AcDbLine
10
470
20
12
11
470
21
40
0
ARC
5
26B
100
AcDbEntity
8
1
6
ByLayer
62
256
370
-1
100
AcDbCircle
10
425
20
22
40
10
100
AcDbArc
50
270
51
360
0
ARC
5
26C
100
AcDbEntity
8
1
6
ByLayer
62
256
370
-1
100
AcDbCircle
10
412
20
134
40
2
100
AcDbArc
50
180
51
270
0
ARC
5
26D
100
AcDbEntity
8
1
6
ByLayer
62
256
370
-1
100
AcDbCircle
10
407
20
40
40
2
100
AcDbArc
50
90
51
180
0
LINE
5
26E
100
AcDbEntity
8
1
6
ByLayer
62
256
370
-1
100
AcDbLine
10
412
20
132
11
423
21
132
0
ARC
5
26F
100
AcDbEntity
8
1
6
ByLayer
62
256
370
-1
100
AcDbCircle
10
423
20
130
40
2
100
AcDbArc
50
360
51
90
0
LINE
5
270
100
AcDbEntity
8
1
6
ByLayer
62
256
370
-1
100
AcDbLine
10
435
20
160
11
435
21
22
0
ARC
5
271
100
AcDbEntity
8
1
6
ByLayer
62
256
370
-1
100
AcDbCircle
10
433
20
160
40
2
100
AcDbArc
50
360
51
90
0
LINE
5
272
100
AcDbEntity
8
1
6
ByLayer
62
256
370
-1
100
AcDbLine
10
412
20
162
11
433
21
162
0
LINE
5
273
100
AcDbEntity
8
1
6
ByLayer
62
256
370
-1
100
AcDbLine
10
410
20
160
11
410
21
134
0
ARC
5
274
100
AcDbEntity
8
1
6
ByLayer
62
256
370
-1
100
AcDbCircle
10
412
20
160
40
2
100
AcDbArc
50
90
51
180
0
LINE
5
275
100
AcDbEntity
8
1
6
ByLayer
62
256
370
-1
100
AcDbLine
10
423
20
42
11
407
21
42
0
LINE
5
276
100
AcDbEntity
8
1
6
ByLayer
62
256
370
-1
100
AcDbLine
10
425
20
130
11
425
21
44
0
ARC
5
277
100
AcDbEntity
8
1
6
ByLayer
62
256
370
-1
100
AcDbCircle
10
423
20
44
40
2
100
AcDbArc
50
270
51
360
0
ARC
5
278
100
AcDbEntity
8
1
6
ByLayer
62
256
370
-1
100
AcDbCircle
10
422
20
29
40
1
100
AcDbArc
50
360
51
90
0
LINE
5
279
100
AcDbEntity
8
1
6
ByLayer
62
256
370
-1
100
AcDbLine
10
418
20
30
11
422
21
30
0
ARC
5
27A
100
AcDbEntity
8
1
6
ByLayer
62
256
370
-1
100
AcDbCircle
10
418
20
29
40
1
100
AcDbArc
50
90
51
180
0
LINE
5
27B
100
AcDbEntity
8
1
6
ByLayer
62
256
370
-1
100
AcDbLine
10
417
20
25
11
417
21
29
0
ARC
5
27C
100
AcDbEntity
8
1
6
ByLayer
62
256
370
-1
100
AcDbCircle
10
418
20
25
40
1
100
AcDbArc
50
180
51
270
0
LINE
5
27D
100
AcDbEntity
8
1
6
ByLayer
62
256
370
-1
100
AcDbLine
10
422
20
24
11
418
21
24
0
LINE
5
27E
100
AcDbEntity
8
1
6
ByLayer
62
256
370
-1
100
AcDbLine
10
423
20
29
11
423
21
25
0
ARC
5
27F
100
AcDbEntity
8
1
6
ByLayer
62
256
370
-1
100
AcDbCircle
10
422
20
25
40
1
100
AcDbArc
50
270
51
360
0
ARC
5
280
100
AcDbEntity
8
1
6
ByLayer
62
256
370
-1
100
AcDbCircle
10
422
20
149
40
1
100
AcDbArc
50
360
51
90
0
LINE
5
281
100
AcDbEntity
8
1
6
ByLayer
62
256
370
-1
100
AcDbLine
10
423
20
149
11
423
21
145
0
ARC
5
282
100
AcDbEntity
8
1
6
ByLayer
62
256
370
-1
100
AcDbCircle
10
422
20
145
40
1
100
AcDbArc
50
270
51
360
0
LINE
5
283
100
AcDbEntity
8
1
6
ByLayer
62
256
370
-1
100
AcDbLine
10
422
20
144
11
418
21
144
0
ARC
5
284
100
AcDbEntity
8
1
6
ByLayer
62
256
370
-1
100
AcDbCircle
10
418
20
145
40
1
100
AcDbArc
50
180
51
270
0
LINE
5
285
100
AcDbEntity
8
1
6
ByLayer
62
256
370
-1
100
AcDbLine
10
417
20
145
11
417
21
149
0
LINE
5
286
100
AcDbEntity
8
1
6
ByLayer
62
256
370
-1
100
AcDbLine
10
418
20
150
11
422
21
150
0
ARC
5
287
100
AcDbEntity
8
1
6
ByLayer
62
256
370
-1
100
AcDbCircle
10
418
20
149
40
1
100
AcDbArc
50
90
51
180
0
LINE
5
288
100
AcDbEntity
8
1
6
ByLayer
62
256
370
-1
100
AcDbLine
10
425
20
12
11
405
21
12
0
LINE
5
289
100
AcDbEntity
8
1
6
ByLayer
62
256
370
-1
100
AcDbLine
10
405
20
12
11
405
21
40
0
ARC
5
28A
100
AcDbEntity
8
1
6
ByLayer
62
256
370
-1
100
AcDbCircle
10
385
20
22
40
10
100
AcDbArc
50
270
51
360
0
ARC
5
28B
100
AcDbEntity
8
1
6
ByLayer
62
256
370
-1
100
AcDbCircle
10
372
20
134
40
2
100
AcDbArc
50
180
51
270
0
ARC
5
28C
100
AcDbEntity
8
1
6
ByLayer
62
256
370
-1
100
AcDbCircle
10
367
20
40
40
2
100
AcDbArc
50
90
51
180
0
LINE
5
28D
100
AcDbEntity
8
1
6
ByLayer
62
256
370
-1
100
AcDbLine
10
372
20
132
11
383
21
132
0
ARC
5
28E
100
AcDbEntity
8
1
6
ByLayer
62
256
370
-1
100
AcDbCircle
10
383
20
130
40
2
100
AcDbArc
50
360
51
90
0
LINE
5
28F
100
AcDbEntity
8
1
6
ByLayer
62
256
370
-1
100
AcDbLine
10
395
20
160
11
395
21
22
0
ARC
5
290
100
AcDbEntity
8
1
6
ByLayer
62
256
370
-1
100
AcDbCircle
10
393
20
160
40
2
100
AcDbArc
50
360
51
90
0
LINE
5
291
100
AcDbEntity
8
1
6
ByLayer
62
256
370
-1
100
AcDbLine
10
372
20
162
11
393
21
162
0
LINE
5
292
100
AcDbEntity
8
1
6
ByLayer
62
256
370
-1
100
AcDbLine
10
370
20
160
11
370
21
134
0
ARC
5
293
100
AcDbEntity
8
1
6
ByLayer
62
256
370
-1
100
AcDbCircle
10
372
20
160
40
2
100
AcDbArc
50
90
51
180
0
LINE
5
294
100
AcDbEntity
8
1
6
ByLayer
62
256
370
-1
100
AcDbLine
10
383
20
42
11
367
21
42
0
LINE
5
295
100
AcDbEntity
8
1
6
ByLayer
62
256
370
-1
100
AcDbLine
10
385
20
130
11
385
21
44
0
ARC
5
296
100
AcDbEntity
8
1
6
ByLayer
62
256
370
-1
100
AcDbCircle
10
383
20
44
40
2
100
AcDbArc
50
270
51
360
0
ARC
5
297
100
AcDbEntity
8
1
6
ByLayer
62
256
370
-1
100
AcDbCircle
10
382
20
29
40
1
100
AcDbArc
50
360
51
90
0
LINE
5
298
100
AcDbEntity
8
1
6
ByLayer
62
256
370
-1
100
AcDbLine
10
378
20
30
11
382
21
30
0
ARC
5
299
100
AcDbEntity
8
1
6
ByLayer
62
256
370
-1
100
AcDbCircle
10
378
20
29
40
1
100
AcDbArc
50
90
51
180
0
LINE
5
29A
100
AcDbEntity
8
1
6
ByLayer
62
256
370
-1
100
AcDbLine
10
377
20
25
11
377
21
29
0
ARC
5
29B
100
AcDbEntity
8
1
6
ByLayer
62
256
370
-1
100
AcDbCircle
10
378
20
25
40
1
100
AcDbArc
50
180
51
270
0
LINE
5
29C
100
AcDbEntity
8
1
6
ByLayer
62
256
370
-1
100
AcDbLine
10
382
20
24
11
378
21
24
0
LINE
5
29D
100
AcDbEntity
8
1
6
ByLayer
62
256
370
-1
100
AcDbLine
10
383
20
29
11
383
21
25
0
ARC
5
29E
100
AcDbEntity
8
1
6
ByLayer
62
256
370
-1
100
AcDbCircle
10
382
20
25
40
1
100
AcDbArc
50
270
51
360
0
ARC
5
29F
100
AcDbEntity
8
1
6
ByLayer
62
256
370
-1
100
AcDbCircle
10
382
20
149
40
1
100
AcDbArc
50
360
51
90
0
LINE
5
2A0
100
AcDbEntity
8
1
6
ByLayer
62
256
370
-1
100
AcDbLine
10
383
20
149
11
383
21
145
0
ARC
5
2A1
100
AcDbEntity
8
1
6
ByLayer
62
256
370
-1
100
AcDbCircle
10
382
20
145
40
1
100
AcDbArc
50
270
51
360
0
LINE
5
2A2
100
AcDbEntity
8
1
6
ByLayer
62
256
370
-1
100
AcDbLine
10
382
20
144
11
378
21
144
0
ARC
5
2A3
100
AcDbEntity
8
1
6
ByLayer
62
256
370
-1
100
AcDbCircle
10
378
20
145
40
1
100
AcDbArc
50
180
51
270
0
LINE
5
2A4
100
AcDbEntity
8
1
6
ByLayer
62
256
370
-1
100
AcDbLine
10
377
20
145
11
377
21
149
0
LINE
5
2A5
100
AcDbEntity
8
1
6
ByLayer
62
256
370
-1
100
AcDbLine
10
378
20
150
11
382
21
150
0
ARC
5
2A6
100
AcDbEntity
8
1
6
ByLayer
62
256
370
-1
100
AcDbCircle
10
378
20
149
40
1
100
AcDbArc
50
90
51
180
0
LINE
5
2A7
100
AcDbEntity
8
1
6
ByLayer
62
256
370
-1
100
AcDbLine
10
385
20
12
11
365
21
12
0
LINE
5
2A8
100
AcDbEntity
8
1
6
ByLayer
62
256
370
-1
100
AcDbLine
10
365
20
12
11
365
21
40
0
ARC
5
2A9
100
AcDbEntity
8
1
6
ByLayer
62
256
370
-1
100
AcDbCircle
10
345
20
22
40
10
100
AcDbArc
50
270
51
360
0
ARC
5
2AA
100
AcDbEntity
8
1
6
ByLayer
62
256
370
-1
100
AcDbCircle
10
332
20
134
40
2
100
AcDbArc
50
180
51
270
0
ARC
5
2AB
100
AcDbEntity
8
1
6
ByLayer
62
256
370
-1
100
AcDbCircle
10
327
20
40
40
2
100
AcDbArc
50
90
51
180
0
LINE
5
2AC
100
AcDbEntity
8
1
6
ByLayer
62
256
370
-1
100
AcDbLine
10
332
20
132
11
343
21
132
0
ARC
5
2AD
100
AcDbEntity
8
1
6
ByLayer
62
256
370
-1
100
AcDbCircle
10
343
20
130
40
2
100
AcDbArc
50
360
51
90
0
LINE
5
2AE
100
AcDbEntity
8
1
6
ByLayer
62
256
370
-1
100
AcDbLine
10
355
20
160
11
355
21
22
0
ARC
5
2AF
100
AcDbEntity
8
1
6
ByLayer
62
256
370
-1
100
AcDbCircle
10
353
20
160
40
2
100
AcDbArc
50
360
51
90
0
LINE
5
2B0
100
AcDbEntity
8
1
6
ByLayer
62
256
370
-1
100
AcDbLine
10
332
20
162
11
353
21
162
0
LINE
5
2B1
100
AcDbEntity
8
1
6
ByLayer
62
256
370
-1
100
AcDbLine
10
330
20
160
11
330
21
134
0
ARC
5
2B2
100
AcDbEntity
8
1
6
ByLayer
62
256
370
-1
100
AcDbCircle
10
332
20
160
40
2
100
AcDbArc
50
90
51
180
0
LINE
5
2B3
100
AcDbEntity
8
1
6
ByLayer
62
256
370
-1
100
AcDbLine
10
343
20
42
11
327
21
42
0
LINE
5
2B4
100
AcDbEntity
8
1
6
ByLayer
62
256
370
-1
100
AcDbLine
10
345
20
130
11
345
21
44
0
ARC
5
2B5
100
AcDbEntity
8
1
6
ByLayer
62
256
370
-1
100
AcDbCircle
10
343
20
44
40
2
100
AcDbArc
50
270
51
360
0
ARC
5
2B6
100
AcDbEntity
8
1
6
ByLayer
62
256
370
-1
100
AcDbCircle
10
342
20
29
40
1
100
AcDbArc
50
360
51
90
0
LINE
5
2B7
100
AcDbEntity
8
1
6
ByLayer
62
256
370
-1
100
AcDbLine
10
338
20
30
11
342
21
30
0
ARC
5
2B8
100
AcDbEntity
8
1
6
ByLayer
62
256
370
-1
100
AcDbCircle
10
338
20
29
40
1
100
AcDbArc
50
90
51
180
0
LINE
5
2B9
100
AcDbEntity
8
1
6
ByLayer
62
256
370
-1
100
AcDbLine
10
337
20
25
11
337
21
29
0
ARC
5
2BA
100
AcDbEntity
8
1
6
ByLayer
62
256
370
-1
100
AcDbCircle
10
338
20
25
40
1
100
AcDbArc
50
180
51
270
0
LINE
5
2BB
100
AcDbEntity
8
1
6
ByLayer
62
256
370
-1
100
AcDbLine
10
342
20
24
11
338
21
24
0
LINE
5
2BC
100
AcDbEntity
8
1
6
ByLayer
62
256
370
-1
100
AcDbLine
10
343
20
29
11
343
21
25
0
ARC
5
2BD
100
AcDbEntity
8
1
6
ByLayer
62
256
370
-1
100
AcDbCircle
10
342
20
25
40
1
100
AcDbArc
50
270
51
360
0
ARC
5
2BE
100
AcDbEntity
8
1
6
ByLayer
62
256
370
-1
100
AcDbCircle
10
342
20
149
40
1
100
AcDbArc
50
360
51
90
0
LINE
5
2BF
100
AcDbEntity
8
1
6
ByLayer
62
256
370
-1
100
AcDbLine
10
343
20
149
11
343
21
145
0
ARC
5
2C0
100
AcDbEntity
8
1
6
ByLayer
62
256
370
-1
100
AcDbCircle
10
342
20
145
40
1
100
AcDbArc
50
270
51
360
0
LINE
5
2C1
100
AcDbEntity
8
1
6
ByLayer
62
256
370
-1
100
AcDbLine
10
342
20
144
11
338
21
144
0
ARC
5
2C2
100
AcDbEntity
8
1
6
ByLayer
62
256
370
-1
100
AcDbCircle
10
338
20
145
40
1
100
AcDbArc
50
180
51
270
0
LINE
5
2C3
100
AcDbEntity
8
1
6
ByLayer
62
256
370
-1
100
AcDbLine
10
337
20
145
11
337
21
149
0
LINE
5
2C4
100
AcDbEntity
8
1
6
ByLayer
62
256
370
-1
100
AcDbLine
10
338
20
150
11
342
21
150
0
ARC
5
2C5
100
AcDbEntity
8
1
6
ByLayer
62
256
370
-1
100
AcDbCircle
10
338
20
149
40
1
100
AcDbArc
50
90
51
180
0
LINE
5
2C6
100
AcDbEntity
8
1
6
ByLayer
62
256
370
-1
100
AcDbLine
10
345
20
12
11
325
21
12
0
LINE
5
2C7
100
AcDbEntity
8
1
6
ByLayer
62
256
370
-1
100
AcDbLine
10
325
20
12
11
325
21
40
0
LINE
5
2C8
100
AcDbEntity
8
1
6
ByLayer
62
256
370
-1
100
AcDbLine
10
146
20
-17
11
10
21
-17
0
ARC
5
2C9
100
AcDbEntity
8
1
6
ByLayer
62
256
370
-1
100
AcDbCircle
10
146
20
-19
40
2
100
AcDbArc
50
0
51
90
0
LINE
5
2CA
100
AcDbEntity
8
1
6
ByLayer
62
256
370
-1
100
AcDbLine
10
174
20
-17
11
310
21
-17
0
ARC
5
2CB
100
AcDbEntity
8
1
6
ByLayer
62
256
370
-1
100
AcDbCircle
10
174
20
-19
40
2
100
AcDbArc
50
90
51
180
0
LINE
5
2CC
100
AcDbEntity
8
1
6
ByLayer
62
256
370
-1
100
AcDbLine
10
148
20
-19
11
148
21
-25
0
ARC
5
2CD
100
AcDbEntity
8
1
6
ByLayer
62
256
370
-1
100
AcDbCircle
10
150
20
-25
40
2
100
AcDbArc
50
180
51
270
0
LINE
5
2CE
100
AcDbEntity
8
1
6
ByLayer
62
256
370
-1
100
AcDbLine
10
172
20
-25
11
172
21
-19
0
LINE
5
2CF
100
AcDbEntity
8
1
6
ByLayer
62
256
370
-1
100
AcDbLine
10
150
20
-27
11
170
21
-27
0
ARC
5
2D0
100
AcDbEntity
8
1
6
ByLayer
62
256
370
-1
100
AcDbCircle
10
170
20
-25
40
2
100
AcDbArc
50
270
51
0
0
LINE
5
2D1
100
AcDbEntity
8
1
6
ByLayer
62
256
370
-1
100
AcDbLine
10
122
20
-42
11
198
21
-42
0
ARC
5
2D2
100
AcDbEntity
8
1
6
ByLayer
62
256
370
-1
100
AcDbCircle
10
10
20
-60
40
10
100
AcDbArc
50
90
51
180
0
ARC
5
2D3
100
AcDbEntity
8
1
6
ByLayer
62
256
370
-1
100
AcDbCircle
10
122
20
-73
40
2
100
AcDbArc
50
180
51
270
0
ARC
5
2D4
100
AcDbEntity
8
1
6
ByLayer
62
256
370
-1
100
AcDbCircle
10
28
20
-78
40
2
100
AcDbArc
50
270
51
360
0
LINE
5
2D5
100
AcDbEntity
8
1
6
ByLayer
62
256
370
-1
100
AcDbLine
10
120
20
-73
11
120
21
-62
0
ARC
5
2D6
100
AcDbEntity
8
1
6
ByLayer
62
256
370
-1
100
AcDbCircle
10
118
20
-62
40
2
100
AcDbArc
50
360
51
90
0
LINE
5
2D7
100
AcDbEntity
8
1
6
ByLayer
62
256
370
-1
100
AcDbLine
10
30
20
-62
11
30
21
-78
0
LINE
5
2D8
100
AcDbEntity
8
1
6
ByLayer
62
256
370
-1
100
AcDbLine
10
118
20
-60
11
32
21
-60
0
ARC
5
2D9
100
AcDbEntity
8
1
6
ByLayer
62
256
370
-1
100
AcDbCircle
10
32
20
-62
40
2
100
AcDbArc
50
90
51
180
0
ARC
5
2DA
100
AcDbEntity
8
1
6
ByLayer
62
256
370
-1
100
AcDbCircle
10
17
20
-63
40
1
100
AcDbArc
50
360
51
90
0
LINE
5
2DB
100
AcDbEntity
8
1
6
ByLayer
62
256
370
-1
100
AcDbLine
10
18
20
-67
11
18
21
-63
0
ARC
5
2DC
100
AcDbEntity
8
1
6
ByLayer
62
256
370
-1
100
AcDbCircle
10
17
20
-67
40
1
100
AcDbArc
50
270
51
360
0
LINE
5
2DD
100
AcDbEntity
8
1
6
ByLayer
62
256
370
-1
100
AcDbLine
10
13
20
-68
11
17
21
-68
0
ARC
5
2DE
100
AcDbEntity
8
1
6
ByLayer
62
256
370
-1
100
AcDbCircle
10
13
20
-67
40
1
100
AcDbArc
50
180
51
270
0
LINE
5
2DF
100
AcDbEntity
8
1
6
ByLayer
62
256
370
-1
100
AcDbLine
10
12
20
-63
11
12
21
-67
0
LINE
5
2E0
100
AcDbEntity
8
1
6
ByLayer
62
256
370
-1
100
AcDbLine
10
17
20
-62
11
13
21
-62
0
ARC
5
2E1
100
AcDbEntity
8
1
6
ByLayer
62
256
370
-1
100
AcDbCircle
10
13
20
-63
40
1
100
AcDbArc
50
90
51
180
0
ARC
5
2E2
100
AcDbEntity
8
1
6
ByLayer
62
256
370
-1
100
AcDbCircle
10
137
20
-63
40
1
100
AcDbArc
50
360
51
90
0
LINE
5
2E3
100
AcDbEntity
8
1
6
ByLayer
62
256
370
-1
100
AcDbLine
10
137
20
-62
11
133
21
-62
0
ARC
5
2E4
100
AcDbEntity
8
1
6
ByLayer
62
256
370
-1
100
AcDbCircle
10
133
20
-63
40
1
100
AcDbArc
50
90
51
180
0
LINE
5
2E5
100
AcDbEntity
8
1
6
ByLayer
62
256
370
-1
100
AcDbLine
10
132
20
-63
11
132
21
-67
0
ARC
5
2E6
100
AcDbEntity
8
1
6
ByLayer
62
256
370
-1
100
AcDbCircle
10
133
20
-67
40
1
100
AcDbArc
50
180
51
270
0
LINE
5
2E7
100
AcDbEntity
8
1
6
ByLayer
62
256
370
-1
100
AcDbLine
10
133
20
-68
11
137
21
-68
0
LINE
5
2E8
100
AcDbEntity
8
1
6
ByLayer
62
256
370
-1
100
AcDbLine
10
138
20
-67
11
138
21
-63
0
ARC
5
2E9
100
AcDbEntity
8
1
6
ByLayer
62
256
370
-1
100
AcDbCircle
10
137
20
-67
40
1
100
AcDbArc
50
270
51
360
0
LINE
5
2EA
100
AcDbEntity
8
1
6
ByLayer
62
256
370
-1
100
AcDbLine
10
0
20
-60
11
0
21
-80
0
LINE
5
2EB
100
AcDbEntity
8
1
6
ByLayer
62
256
370
-1
100
AcDbLine
10
0
20
-80
11
28
21
-80
0
ARC
5
2EC
100
AcDbEntity
8
1
6
ByLayer
62
256
370
-1
100
AcDbCircle
10
310
20
-60
40
10
100
AcDbArc
50
360
51
90
0
ARC
5
2ED
100
AcDbEntity
8
1
6
ByLayer
62
256
370
-1
100
AcDbCircle
10
198
20
-73
40
2
100
AcDbArc
50
270
51
360
0
ARC
5
2EE
100
AcDbEntity
8
1
6
ByLayer
62
256
370
-1
100
AcDbCircle
10
292
20
-78
40
2
100
AcDbArc
50
180
51
270
0
LINE
5
2EF
100
AcDbEntity
8
1
6
ByLayer
62
256
370
-1
100
AcDbLine
10
200
20
-73
11
200
21
-62
0
ARC
5
2F0
100
AcDbEntity
8
1
6
ByLayer
62
256
370
-1
100
AcDbCircle
10
202
20
-62
40
2
100
AcDbArc
50
90
51
180
0
LINE
5
2F1
100
AcDbEntity
8
1
6
ByLayer
62
256
370
-1
100
AcDbLine
10
290
20
-62
11
290
21
-78
0
LINE
5
2F2
100
AcDbEntity
8
1
6
ByLayer
62
256
370
-1
100
AcDbLine
10
202
20
-60
11
288
21
-60
0
ARC
5
2F3
100
AcDbEntity
8
1
6
ByLayer
62
256
370
-1
100
AcDbCircle
10
288
20
-62
40
2
100
AcDbArc
50
360
51
90
0
ARC
5
2F4
100
AcDbEntity
8
1
6
ByLayer
62
256
370
-1
100
AcDbCircle
10
303
20
-63
40
1
100
AcDbArc
50
90
51
180
0
LINE
5
2F5
100
AcDbEntity
8
1
6
ByLayer
62
256
370
-1
100
AcDbLine
10
302
20
-67
11
302
21
-63
0
ARC
5
2F6
100
AcDbEntity
8
1
6
ByLayer
62
256
370
-1
100
AcDbCircle
10
303
20
-67
40
1
100
AcDbArc
50
180
51
270
0
LINE
5
2F7
100
AcDbEntity
8
1
6
ByLayer
62
256
370
-1
100
AcDbLine
10
307
20
-68
11
303
21
-68
0
ARC
5
2F8
100
AcDbEntity
8
1
6
ByLayer
62
256
370
-1
100
AcDbCircle
10
307
20
-67
40
1
100
AcDbArc
50
270
51
360
0
LINE
5
2F9
100
AcDbEntity
8
1
6
ByLayer
62
256
370
-1
100
AcDbLine
10
308
20
-63
11
308
21
-67
0
LINE
5
2FA
100
AcDbEntity
8
1
6
ByLayer
62
256
370
-1
100
AcDbLine
10
303
20
-62
11
307
21
-62
0
ARC
5
2FB
100
AcDbEntity
8
1
6
ByLayer
62
256
370
-1
100
AcDbCircle
10
307
20
-63
40
1
100
AcDbArc
50
360
51
90
0
ARC
5
2FC
100
AcDbEntity
8
1
6
ByLayer
62
256
370
-1
100
AcDbCircle
10
183
20
-63
40
1
100
AcDbArc
50
90
51
180
0
LINE
5
2FD
100
AcDbEntity
8
1
6
ByLayer
62
256
370
-1
100
AcDbLine
10
183
20
-62
11
187
21
-62
0
ARC
5
2FE
100
AcDbEntity
8
1
6
ByLayer
62
256
370
-1
100
AcDbCircle
10
187
20
-63
40
1
100
AcDbArc
50
360
51
90
0
LINE
5
2FF
100
AcDbEntity
8
1
6
ByLayer
62
256
370
-1
100
AcDbLine
10
188
20
-63
11
188
21
-67
0
ARC
5
300
100
AcDbEntity
8
1
6
ByLayer
62
256
370
-1
100
AcDbCircle
10
187
20
-67
40
1
100
AcDbArc
50
270
51
360
0
LINE
5
301
100
AcDbEntity
8
1
6
ByLayer
62
256
370
-1
100
AcDbLine
10
187
20
-68
11
183
21
-68
0
LINE
5
302
100
AcDbEntity
8
1
6
ByLayer
62
256
370
-1
100
AcDbLine
10
182
20
-67
11
182
21
-63
0
ARC
5
303
100
AcDbEntity
8
1
6
ByLayer
62
256
370
-1
100
AcDbCircle
10
183
20
-67
40
1
100
AcDbArc
50
180
51
270
0
LINE
5
304
100
AcDbEntity
8
1
6
ByLayer
62
256
370
-1
100
AcDbLine
10
320
20
-60
11
320
21
-80
0
LINE
5
305
100
AcDbEntity
8
1
6
ByLayer
62
256
370
-1
100
AcDbLine
10
320
20
-80
11
292
21
-80
0
LINE
5
306
100
AcDbEntity
8
1
6
ByLayer
62
256
370
-1
100
AcDbLine
10
146
20
-50
11
10
21
-50
0
ARC
5
307
100
AcDbEntity
8
1
6
ByLayer
62
256
370
-1
100
AcDbCircle
10
146
20
-52
40
2
100
AcDbArc
50
0
51
90
0
LINE
5
308
100
AcDbEntity
8
1
6
ByLayer
62
256
370
-1
100
AcDbLine
10
174
20
-50
11
310
21
-50
0
ARC
5
309
100
AcDbEntity
8
1
6
ByLayer
62
256
370
-1
100
AcDbCircle
10
174
20
-52
40
2
100
AcDbArc
50
90
51
180
0
LINE
5
30A
100
AcDbEntity
8
1
6
ByLayer
62
256
370
-1
100
AcDbLine
10
148
20
-52
11
148
21
-58
0
ARC
5
30B
100
AcDbEntity
8
1
6
ByLayer
62
256
370
-1
100
AcDbCircle
10
150
20
-58
40
2
100
AcDbArc
50
180
51
270
0
LINE
5
30C
100
AcDbEntity
8
1
6
ByLayer
62
256
370
-1
100
AcDbLine
10
172
20
-58
11
172
21
-52
0
LINE
5
30D
100
AcDbEntity
8
1
6
ByLayer
62
256
370
-1
100
AcDbLine
10
150
20
-60
11
170
21
-60
0
ARC
5
30E
100
AcDbEntity
8
1
6
ByLayer
62
256
370
-1
100
AcDbCircle
10
170
20
-58
40
2
100
AcDbArc
50
270
51
0
0
LINE
5
30F
100
AcDbEntity
8
1
6
ByLayer
62
256
370
-1
100
AcDbLine
10
122
20
-75
11
198
21
-75
0
ENDSEC
0
SECTION
2
OBJECTS
0
DICTIONARY
5
C
330
0
100
AcDbDictionary
281
1
3
ACAD_GROUP
350
D
0
DICTIONARY
5
D
330
C
100
AcDbDictionary
281
1
0
ENDSEC
0
EOF
