999
dxfrw 0.5.11
0
SECTION
2
HEADER
9
$ACADVER
1
AC1021
9
$HANDSEED
5
20000
9
$DWGCODEPAGE
3
ANSI_1252
9
$INSBASE
10
0
20
0
30
0
9
$EXTMIN
10
-10
20
-90
30
0
9
$EXTMAX
10
590
20
210
30
0
9
$LIMMIN
10
0
20
0
9
$LIMMAX
10
420
20
297
9
$ORTHOMODE
70
0
9
$LTSCALE
40
1
9
$TEXTSTYLE
7
Standard
9
$CLAYER
8
1
9
$DIMASZ
40
2.5
9
$DIMLFAC
40
1
9
$DIMSCALE
40
1
9
$DIMEXO
40
0.625
9
$DIMEXE
40
1.25
9
$DIMTXT
40
2.5
9
$DIMTSZ
40
0
9
$DIMAUNIT
70
0
9
$DIMADEC
70
2
9
$DIMLUNIT
70
2
9
$DIMSTYLE
2
Standard
9
$DIMGAP
40
0.625
9
$DIMTIH
70
0
9
$LUNITS
70
2
9
$LUPREC
70
4
9
$AUNITS
70
0
9
$AUPREC
70
2
9
$SPLINESEGS
70
8
9
$GRIDMODE
70
1
9
$SNAPSTYLE
70
0
9
$PINSBASE
10
-52.4540636042
20
4.71731448763
30
0
9
$PLIMMIN
10
0
20
0
9
$PLIMMAX
10
297
20
210
9
$INSUNITS
70
4
9
$PSVPSCALE
40
1
0
ENDSEC
0
SECTION
2
CLASSES
0
ENDSEC
0
SECTION
2
TABLES
0
TABLE
2
VPORT
5
8
330
0
100
AcDbSymbolTable
70
1
0
VPORT
5
31
330
2
100
AcDbSymbolTableRecord
100
AcDbViewportTableRecord
2
*ACTIVE
70
0
10
0
20
0
11
1
21
1
12
371.608255978
22
133.940103103
13
0
23
0
14
10
24
10
15
10
25
10
16
0
26
0
36
1
17
0
27
0
37
0
40
437.571239085
41
2.04833141542
42
50
43
0
44
0
50
0
51
0
71
0
72
100
73
1
74
3
75
0
76
1
77
0
78
0
281
0
65
1
110
0
120
0
130
0
111
1
121
0
131
0
112
0
122
1
132
0
79
0
146
0
348
10020
60
7
61
5
292
1
282
1
141
0
142
0
63
250
421
3358443
0
ENDTAB
0
TABLE
2
LTYPE
5
5
330
0
100
AcDbSymbolTable
70
4
0
LTYPE
5
14
330
5
100
AcDbSymbolTableRecord
100
AcDbLinetypeTableRecord
2
ByBlock
70
0
3

72
65
73
0
40
0
0
LTYPE
5
15
330
5
100
AcDbSymbolTableRecord
100
AcDbLinetypeTableRecord
2
ByLayer
70
0
3

72
65
73
0
40
0
0
LTYPE
5
16
330
5
100
AcDbSymbolTableRecord
100
AcDbLinetypeTableRecord
2
Continuous
70
0
3
Solid line
72
65
73
0
40
0
0
LTYPE
5
32
330
5
100
AcDbSymbolTableRecord
100
AcDbLinetypeTableRecord
2
DOT
70
0
3
Dot . . . . . . . . . . . . . . . . . . . . . .
72
65
73
2
40
6.35
49
0
74
0
49
-6.35
74
0
0
LTYPE
5
33
330
5
100
AcDbSymbolTableRecord
100
AcDbLinetypeTableRecord
2
DOT2
70
0
3
Dot (.5x) .....................................
72
65
73
2
40
3.175
49
0
74
0
49
-3.175
74
0
0
LTYPE
5
34
330
5
100
AcDbSymbolTableRecord
100
AcDbLinetypeTableRecord
2
DOTX2
70
0
3
Dot (2x) .  .  .  .  .  .  .  .  .  .  .  .  .
72
65
73
2
40
12.7
49
0
74
0
49
-12.7
74
0
0
LTYPE
5
35
330
5
100
AcDbSymbolTableRecord
100
AcDbLinetypeTableRecord
2
DASHED
70
0
3
Dot . . . . . . . . . . . . . . . . . . . . . .
72
65
73
2
40
19.05
49
12.7
74
0
49
-6.35
74
0
0
LTYPE
5
36
330
5
100
AcDbSymbolTableRecord
100
AcDbLinetypeTableRecord
2
DASHED2
70
0
3
Dashed (.5x) _ _ _ _ _ _ _ _ _ _ _ _ _ _ _ _ _
72
65
73
2
40
9.525
49
6.35
74
0
49
-3.175
74
0
0
LTYPE
5
37
330
5
100
AcDbSymbolTableRecord
100
AcDbLinetypeTableRecord
2
DASHEDX2
70
0
3
Dashed (2x) ____  ____  ____  ____  ____  ___
72
65
73
2
40
38.1
49
25.4
74
0
49
-12.7
74
0
0
LTYPE
5
38
330
5
100
AcDbSymbolTableRecord
100
AcDbLinetypeTableRecord
2
DASHDOT
70
0
3
Dash dot __ . __ . __ . __ . __ . __ . __ . __
72
65
73
4
40
25.4
49
12.7
74
0
49
-6.35
74
0
49
0
74
0
49
-6.35
74
0
0
LTYPE
5
39
330
5
100
AcDbSymbolTableRecord
100
AcDbLinetypeTableRecord
2
DASHDOT2
70
0
3
Dash dot (.5x) _._._._._._._._._._._._._._._.
72
65
73
4
40
12.7
49
6.35
74
0
49
-3.175
74
0
49
0
74
0
49
-3.175
74
0
0
LTYPE
5
3A
330
5
100
AcDbSymbolTableRecord
100
AcDbLinetypeTableRecord
2
DASHDOTX2
70
0
3
Dash dot (2x) ____  .  ____  .  ____  .  ___
72
65
73
4
40
50.8
49
25.4
74
0
49
-12.7
74
0
49
0
74
0
49
-12.7
74
0
0
LTYPE
5
3B
330
5
100
AcDbSymbolTableRecord
100
AcDbLinetypeTableRecord
2
DIVIDE
70
0
3
Divide ____ . . ____ . . ____ . . ____ . . ____
72
65
73
6
40
31.75
49
12.7
74
0
49
-6.35
74
0
49
0
74
0
49
-6.35
74
0
49
0
74
0
49
-6.35
74
0
0
LTYPE
5
3C
330
5
100
AcDbSymbolTableRecord
100
AcDbLinetypeTableRecord
2
DIVIDE2
70
0
3
Divide (.5x) __..__..__..__..__..__..__..__.._
72
65
73
6
40
15.875
49
6.35
74
0
49
-3.175
74
0
49
0
74
0
49
-3.175
74
0
49
0
74
0
49
-3.175
74
0
0
LTYPE
5
3D
330
5
100
AcDbSymbolTableRecord
100
AcDbLinetypeTableRecord
2
DIVIDEX2
70
0
3
Divide (2x) ________  .  .  ________  .  .  _
72
65
73
6
40
63.5
49
25.4
74
0
49
-12.7
74
0
49
0
74
0
49
-12.7
74
0
49
0
74
0
49
-12.7
74
0
0
LTYPE
5
3E
330
5
100
AcDbSymbolTableRecord
100
AcDbLinetypeTableRecord
2
BORDER
70
0
3
Border __ __ . __ __ . __ __ . __ __ . __ __ .
72
65
73
6
40
44.45
49
12.7
74
0
49
-6.35
74
0
49
12.7
74
0
49
-6.35
74
0
49
0
74
0
49
-6.35
74
0
0
LTYPE
5
3F
330
5
100
AcDbSymbolTableRecord
100
AcDbLinetypeTableRecord
2
BORDER2
70
0
3
Border (.5x) __.__.__.__.__.__.__.__.__.__.__.
72
65
73
6
40
22.225
49
6.35
74
0
49
-3.175
74
0
49
6.35
74
0
49
-3.175
74
0
49
0
74
0
49
-3.175
74
0
0
LTYPE
5
40
330
5
100
AcDbSymbolTableRecord
100
AcDbLinetypeTableRecord
2
BORDERX2
70
0
3
Border (2x) ____  ____  .  ____  ____  .  ___
72
65
73
6
40
88.9
49
25.4
74
0
49
-12.7
74
0
49
25.4
74
0
49
-12.7
74
0
49
0
74
0
49
-12.7
74
0
0
LTYPE
5
41
330
5
100
AcDbSymbolTableRecord
100
AcDbLinetypeTableRecord
2
CENTER
70
0
3
Center ____ _ ____ _ ____ _ ____ _ ____ _ ____
72
65
73
4
40
50.8
49
31.75
74
0
49
-6.35
74
0
49
6.35
74
0
49
-6.35
74
0
0
LTYPE
5
42
330
5
100
AcDbSymbolTableRecord
100
AcDbLinetypeTableRecord
2
CENTER2
70
0
3
Center (.5x) ___ _ ___ _ ___ _ ___ _ ___ _ ___
72
65
73
4
40
28.575
49
19.05
74
0
49
-3.175
74
0
49
3.175
74
0
49
-3.175
74
0
0
LTYPE
5
43
330
5
100
AcDbSymbolTableRecord
100
AcDbLinetypeTableRecord
2
CENTERX2
70
0
3
Center (2x) ________  __  ________  __  _____
72
65
73
4
40
101.6
49
63.5
74
0
49
-12.7
74
0
49
12.7
74
0
49
-12.7
74
0
0
ENDTAB
0
TABLE
2
LAYER
5
2
330
0
100
AcDbSymbolTable
70
1
0
LAYER
5
10
330
2
100
AcDbSymbolTableRecord
100
AcDbLayerTableRecord
2
0
70
4
62
1
6
CONTINUOUS
370
0
390
F
0
LAYER
5
44
330
2
100
AcDbSymbolTableRecord
100
AcDbLayerTableRecord
2
1
70
4
62
1
6
CONTINUOUS
370
0
390
F
0
LAYER
5
45
330
2
100
AcDbSymbolTableRecord
100
AcDbLayerTableRecord
2
reference_600x300
70
4
62
255
6
CONTINUOUS
370
0
390
F
0
ENDTAB
0
TABLE
2
STYLE
5
3
330
0
100
AcDbSymbolTable
70
3
0
STYLE
5
46
330
2
100
AcDbSymbolTableRecord
100
AcDbTextStyleTableRecord
2
Standard
70
0
40
0
41
1
50
0
71
0
42
1
3
txt
4

0
ENDTAB
0
TABLE
2
VIEW
5
6
330
0
100
AcDbSymbolTable
70
0
0
ENDTAB
0
TABLE
2
UCS
5
7
330
0
100
AcDbSymbolTable
70
0
0
ENDTAB
0
TABLE
2
APPID
5
9
330
0
100
AcDbSymbolTable
70
1
0
APPID
5
12
330
9
100
AcDbSymbolTableRecord
100
AcDbRegAppTableRecord
2
ACAD
70
0
0
ENDTAB
0
TABLE
2
DIMSTYLE
5
A
330
0
100
AcDbSymbolTable
70
1
100
AcDbDimStyleTable
71
1
0
DIMSTYLE
105
47
330
A
100
AcDbSymbolTableRecord
100
AcDbDimStyleTableRecord
2
Standard
70
0
40
1
41
2.5
42
0.625
43
0.38
44
1.25
45
0
46
0
47
0
48
0
140
2.5
141
0.09
142
0
143
25.4
144
1
145
0
146
1
147
0.625
148
0
71
0
72
0
73
0
74
1
75
0
76
0
77
0
78
0
79
0
170
0
171
2
172
0
173
0
174
0
175
0
176
0
177
0
178
0
179
0
271
4
272
4
273
2
274
2
275
0
276
0
277
2
278
46
279
0
280
0
281
0
282
0
283
1
284
0
285
0
286
0
288
0
289
3
340
Standard
341

371
-2
372
-2
0
ENDTAB
0
TABLE
2
BLOCK_RECORD
5
1
330
0
100
AcDbSymbolTable
70
2
0
BLOCK_RECORD
5
1F
330
1
100
AcDbSymbolTableRecord
100
AcDbBlockTableRecord
2
*Model_Space
70
0
280
1
281
0
0
BLOCK_RECORD
5
1E
330
1
100
AcDbSymbolTableRecord
100
AcDbBlockTableRecord
2
*Paper_Space
70
0
280
1
281
0
0
ENDTAB
0
ENDSEC
0
SECTION
2
BLOCKS
0
BLOCK
5
20
330
1F
100
AcDbEntity
8
0
100
AcDbBlockBegin
2
*Model_Space
70
0
10
0
20
0
30
0
3
*Model_Space
1

0
ENDBLK
5
21
330
1F
100
AcDbEntity
8
0
100
AcDbBlockEnd
0
BLOCK
5
1C
330
1B
100
AcDbEntity
8
0
100
AcDbBlockBegin
2
*Paper_Space
70
0
10
0
20
0
30
0
3
*Paper_Space
1

0
ENDBLK
5
1D
330
1F
100
AcDbEntity
8
0
100
AcDbBlockEnd
0
ENDSEC
0
SECTION
2
ENTITIES
0
ARC
5
48
100
AcDbEntity
8
0
6
ByLayer
62
256
370
-1
100
AcDbCircle
10
310
20
10
40
10
100
AcDbArc
50
270
51
0
0
LINE
5
49
100
AcDbEntity
8
0
6
ByLayer
62
256
370
-1
100
AcDbLine
10
10
20
0
11
310
21
0
0
ARC
5
4A
100
AcDbEntity
8
0
6
ByLayer
62
256
370
-1
100
AcDbCircle
10
10
20
10
40
10
100
AcDbArc
50
180
51
270
0
LINE
5
4B
100
AcDbEntity
8
0
6
ByLayer
62
256
370
-1
100
AcDbLine
10
0
20
190
11
0
21
10
0
ARC
5
4C
100
AcDbEntity
8
0
6
ByLayer
62
256
370
-1
100
AcDbCircle
10
10
20
190
40
10
100
AcDbArc
50
90
51
180
0
LINE
5
4D
100
AcDbEntity
8
0
6
ByLayer
62
256
370
-1
100
AcDbLine
10
310
20
200
11
10
21
200
0
LINE
5
4E
100
AcDbEntity
8
0
6
ByLayer
62
256
370
-1
100
AcDbLine
10
320
20
10
11
320
21
190
0
ARC
5
4F
100
AcDbEntity
8
0
6
ByLayer
62
256
370
-1
100
AcDbCircle
10
310
20
190
40
10
100
AcDbArc
50
0
51
90
0
ARC
5
50
100
AcDbEntity
8
0
6
ByLayer
62
256
370
-1
100
AcDbCircle
10
303
20
183
40
1
100
AcDbArc
50
180
51
270
0
LINE
5
51
100
AcDbEntity
8
0
6
ByLayer
62
256
370
-1
100
AcDbLine
10
303
20
182
11
307
21
182
0
ARC
5
52
100
AcDbEntity
8
0
6
ByLayer
62
256
370
-1
100
AcDbCircle
10
307
20
183
40
1
100
AcDbArc
50
270
51
0
0
LINE
5
53
100
AcDbEntity
8
0
6
ByLayer
62
256
370
-1
100
AcDbLine
10
308
20
183
11
308
21
187
0
ARC
5
54
100
AcDbEntity
8
0
6
ByLayer
62
256
370
-1
100
AcDbCircle
10
307
20
187
40
1
100
AcDbArc
50
0
51
90
0
LINE
5
55
100
AcDbEntity
8
0
6
ByLayer
62
256
370
-1
100
AcDbLine
10
302
20
187
11
302
21
183
0
LINE
5
56
100
AcDbEntity
8
0
6
ByLayer
62
256
370
-1
100
AcDbLine
10
307
20
188
11
303
21
188
0
ARC
5
57
100
AcDbEntity
8
0
6
ByLayer
62
256
370
-1
100
AcDbCircle
10
303
20
187
40
1
100
AcDbArc
50
90
51
180
0
ARC
5
58
100
AcDbEntity
8
0
6
ByLayer
62
256
370
-1
100
AcDbCircle
10
303
20
17
40
1
100
AcDbArc
50
90
51
180
0
LINE
5
59
100
AcDbEntity
8
0
6
ByLayer
62
256
370
-1
100
AcDbLine
10
307
20
18
11
303
21
18
0
ARC
5
5A
100
AcDbEntity
8
0
6
ByLayer
62
256
370
-1
100
AcDbCircle
10
307
20
17
40
1
100
AcDbArc
50
0
51
90
0
LINE
5
5B
100
AcDbEntity
8
0
6
ByLayer
62
256
370
-1
100
AcDbLine
10
308
20
13
11
308
21
17
0
ARC
5
5C
100
AcDbEntity
8
0
6
ByLayer
62
256
370
-1
100
AcDbCircle
10
307
20
13
40
1
100
AcDbArc
50
270
51
0
0
LINE
5
5D
100
AcDbEntity
8
0
6
ByLayer
62
256
370
-1
100
AcDbLine
10
303
20
12
11
307
21
12
0
LINE
5
5E
100
AcDbEntity
8
0
6
ByLayer
62
256
370
-1
100
AcDbLine
10
302
20
17
11
302
21
13
0
ARC
5
5F
100
AcDbEntity
8
0
6
ByLayer
62
256
370
-1
100
AcDbCircle
10
303
20
13
40
1
100
AcDbArc
50
180
51
270
0
ARC
5
60
100
AcDbEntity
8
0
6
ByLayer
62
256
370
-1
100
AcDbCircle
10
190
20
17
40
1
100
AcDbArc
50
90
51
180
0
LINE
5
61
100
AcDbEntity
8
0
6
ByLayer
62
256
370
-1
100
AcDbLine
10
194
20
18
11
190
21
18
0
ARC
5
62
100
AcDbEntity
8
0
6
ByLayer
62
256
370
-1
100
AcDbCircle
10
194
20
17
40
1
100
AcDbArc
50
0
51
90
0
LINE
5
63
100
AcDbEntity
8
0
6
ByLayer
62
256
370
-1
100
AcDbLine
10
195
20
13
11
195
21
17
0
ARC
5
64
100
AcDbEntity
8
0
6
ByLayer
62
256
370
-1
100
AcDbCircle
10
194
20
13
40
1
100
AcDbArc
50
270
51
0
0
LINE
5
65
100
AcDbEntity
8
0
6
ByLayer
62
256
370
-1
100
AcDbLine
10
189
20
17
11
189
21
13
0
LINE
5
66
100
AcDbEntity
8
0
6
ByLayer
62
256
370
-1
100
AcDbLine
10
190
20
12
11
194
21
12
0
ARC
5
67
100
AcDbEntity
8
0
6
ByLayer
62
256
370
-1
100
AcDbCircle
10
190
20
13
40
1
100
AcDbArc
50
180
51
270
0
ARC
5
68
100
AcDbEntity
8
0
6
ByLayer
62
256
370
-1
100
AcDbCircle
10
126
20
17
40
1
100
AcDbArc
50
90
51
180
0
LINE
5
69
100
AcDbEntity
8
0
6
ByLayer
62
256
370
-1
100
AcDbLine
10
126
20
18
11
130
21
18
0
ARC
5
6A
100
AcDbEntity
8
0
6
ByLayer
62
256
370
-1
100
AcDbCircle
10
130
20
17
40
1
100
AcDbArc
50
0
51
90
0
LINE
5
6B
100
AcDbEntity
8
0
6
ByLayer
62
256
370
-1
100
AcDbLine
10
131
20
17
11
131
21
13
0
ARC
5
6C
100
AcDbEntity
8
0
6
ByLayer
62
256
370
-1
100
AcDbCircle
10
130
20
13
40
1
100
AcDbArc
50
270
51
0
0
LINE
5
6D
100
AcDbEntity
8
0
6
ByLayer
62
256
370
-1
100
AcDbLine
10
130
20
12
11
126
21
12
0
LINE
5
6E
100
AcDbEntity
8
0
6
ByLayer
62
256
370
-1
100
AcDbLine
10
125
20
13
11
125
21
17
0
ARC
5
6F
100
AcDbEntity
8
0
6
ByLayer
62
256
370
-1
100
AcDbCircle
10
126
20
13
40
1
100
AcDbArc
50
180
51
270
0
ARC
5
70
100
AcDbEntity
8
0
6
ByLayer
62
256
370
-1
100
AcDbCircle
10
13
20
13
40
1
100
AcDbArc
50
180
51
270
0
LINE
5
71
100
AcDbEntity
8
0
6
ByLayer
62
256
370
-1
100
AcDbLine
10
12
20
13
11
12
21
17
0
ARC
5
72
100
AcDbEntity
8
0
6
ByLayer
62
256
370
-1
100
AcDbCircle
10
13
20
17
40
1
100
AcDbArc
50
90
51
180
0
LINE
5
73
100
AcDbEntity
8
0
6
ByLayer
62
256
370
-1
100
AcDbLine
10
13
20
18
11
17
21
18
0
ARC
5
74
100
AcDbEntity
8
0
6
ByLayer
62
256
370
-1
100
AcDbCircle
10
17
20
17
40
1
100
AcDbArc
50
0
51
90
0
LINE
5
75
100
AcDbEntity
8
0
6
ByLayer
62
256
370
-1
100
AcDbLine
10
18
20
17
11
18
21
13
0
LINE
5
76
100
AcDbEntity
8
0
6
ByLayer
62
256
370
-1
100
AcDbLine
10
17
20
12
11
13
21
12
0
ARC
5
77
100
AcDbEntity
8
0
6
ByLayer
62
256
370
-1
100
AcDbCircle
10
17
20
13
40
1
100
AcDbArc
50
270
51
0
0
ARC
5
78
100
AcDbEntity
8
0
6
ByLayer
62
256
370
-1
100
AcDbCircle
10
13
20
187
40
1
100
AcDbArc
50
90
51
180
0
LINE
5
79
100
AcDbEntity
8
0
6
ByLayer
62
256
370
-1
100
AcDbLine
10
13
20
188
11
17
21
188
0
ARC
5
7A
100
AcDbEntity
8
0
6
ByLayer
62
256
370
-1
100
AcDbCircle
10
17
20
187
40
1
100
AcDbArc
50
0
51
90
0
LINE
5
7B
100
AcDbEntity
8
0
6
ByLayer
62
256
370
-1
100
AcDbLine
10
18
20
187
11
18
21
183
0
ARC
5
7C
100
AcDbEntity
8
0
6
ByLayer
62
256
370
-1
100
AcDbCircle
10
17
20
183
40
1
100
AcDbArc
50
270
51
0
0
LINE
5
7D
100
AcDbEntity
8
0
6
ByLayer
62
256
370
-1
100
AcDbLine
10
17
20
182
11
13
21
182
0
LINE
5
7E
100
AcDbEntity
8
0
6
ByLayer
62
256
370
-1
100
AcDbLine
10
12
20
183
11
12
21
187
0
ARC
5
7F
100
AcDbEntity
8
0
6
ByLayer
62
256
370
-1
100
AcDbCircle
10
13
20
183
40
1
100
AcDbArc
50
180
51
270
0
LINE
5
80
100
AcDbEntity
8
reference_600x300
6
ByLayer
62
256
370
-1
100
AcDbLine
10
-10
20
210
11
590
21
210
0
LINE
5
81
100
AcDbEntity
8
reference_600x300
6
ByLayer
62
256
370
-1
100
AcDbLine
10
590
20
210
11
590
21
-90
0
LINE
5
82
100
AcDbEntity
8
reference_600x300
6
ByLayer
62
256
370
-1
100
AcDbLine
10
590
20
-90
11
-10
21
-90
0
LINE
5
83
100
AcDbEntity
8
reference_600x300
6
ByLayer
62
256
370
-1
100
AcDbLine
10
-10
20
-90
11
-10
21
210
0
ARC
5
84
100
AcDbEntity
8
0
6
ByLayer
62
256
370
-1
100
AcDbCircle
10
133
20
187
40
1
100
AcDbArc
50
90
51
180
0
LINE
5
85
100
AcDbEntity
8
0
6
ByLayer
62
256
370
-1
100
AcDbLine
10
133
20
188
11
137
21
188
0
ARC
5
86
100
AcDbEntity
8
0
6
ByLayer
62
256
370
-1
100
AcDbCircle
10
137
20
187
40
1
100
AcDbArc
50
0
51
90
0
LINE
5
87
100
AcDbEntity
8
0
6
ByLayer
62
256
370
-1
100
AcDbLine
10
132
20
183
11
132
21
187
0
ARC
5
88
100
AcDbEntity
8
0
6
ByLayer
62
256
370
-1
100
AcDbCircle
10
133
20
183
40
1
100
AcDbArc
50
180
51
270
0
LINE
5
89
100
AcDbEntity
8
0
6
ByLayer
62
256
370
-1
100
AcDbLine
10
137
20
182
11
133
21
182
0
LINE
5
8A
100
AcDbEntity
8
0
6
ByLayer
62
256
370
-1
100
AcDbLine
10
138
20
187
11
138
21
183
0
ARC
5
8B
100
AcDbEntity
8
0
6
ByLayer
62
256
370
-1
100
AcDbCircle
10
137
20
183
40
1
100
AcDbArc
50
270
51
0
0
ARC
5
8C
100
AcDbEntity
8
0
6
ByLayer
62
256
370
-1
100
AcDbCircle
10
187
20
187
40
1
100
AcDbArc
50
360
51
90
0
LINE
5
8D
100
AcDbEntity
8
0
6
ByLayer
62
256
370
-1
100
AcDbLine
10
187
20
188
11
183
21
188
0
ARC
5
8E
100
AcDbEntity
8
0
6
ByLayer
62
256
370
-1
100
AcDbCircle
10
183
20
187
40
1
100
AcDbArc
50
90
51
180
0
LINE
5
8F
100
AcDbEntity
8
0
6
ByLayer
62
256
370
-1
100
AcDbLine
10
188
20
183
11
188
21
187
0
ARC
5
90
100
AcDbEntity
8
0
6
ByLayer
62
256
370
-1
100
AcDbCircle
10
187
20
183
40
1
100
AcDbArc
50
270
51
360
0
LINE
5
91
100
AcDbEntity
8
0
6
ByLayer
62
256
370
-1
100
AcDbLine
10
183
20
182
11
187
21
182
0
LINE
5
92
100
AcDbEntity
8
0
6
ByLayer
62
256
370
-1
100
AcDbLine
10
182
20
187
11
182
21
183
0
ARC
5
93
100
AcDbEntity
8
0
6
ByLayer
62
256
370
-1
100
AcDbCircle
10
183
20
183
40
1
100
AcDbArc
50
180
51
270
0
LINE
5
94
100
AcDbEntity
8
1
6
ByLayer
62
256
370
-1
100
AcDbLine
10
0
20
-85
11
0
21
-55
0
LINE
5
95
100
AcDbEntity
8
1
6
ByLayer
62
256
370
-1
100
AcDbLine
10
260
20
-55
11
260
21
-85
0
LINE
5
96
100
AcDbEntity
8
1
6
ByLayer
62
256
370
-1
100
AcDbLine
10
260
20
-85
11
0
21
-85
0
ARC
5
97
100
AcDbEntity
8
1
6
ByLayer
62
256
370
-1
100
AcDbCircle
10
138
20
-7
40
2
100
AcDbArc
50
0
51
90
0
LINE
5
98
100
AcDbEntity
8
1
6
ByLayer
62
256
370
-1
100
AcDbLine
10
0
20
-55
11
118
21
-55
0
ARC
5
99
100
AcDbEntity
8
1
6
ByLayer
62
256
370
-1
100
AcDbCircle
10
118
20
-53
40
2
100
AcDbArc
50
270
51
0
0
LINE
5
9A
100
AcDbEntity
8
1
6
ByLayer
62
256
370
-1
100
AcDbLine
10
140
20
-7
11
140
21
-53
0
LINE
5
9B
100
AcDbEntity
8
1
6
ByLayer
62
256
370
-1
100
AcDbLine
10
142
20
-55
11
260
21
-55
0
ARC
5
9C
100
AcDbEntity
8
1
6
ByLayer
62
256
370
-1
100
AcDbCircle
10
142
20
-53
40
2
100
AcDbArc
50
180
51
270
0
LINE
5
9D
100
AcDbEntity
8
1
6
ByLayer
62
256
370
-1
100
AcDbLine
10
120
20
-53
11
120
21
-7
0
LINE
5
9E
100
AcDbEntity
8
1
6
ByLayer
62
256
370
-1
100
AcDbLine
10
122
20
-5
11
138
21
-5
0
ARC
5
9F
100
AcDbEntity
8
1
6
ByLayer
62
256
370
-1
100
AcDbCircle
10
122
20
-7
40
2
100
AcDbArc
50
90
51
180
0
ARC
5
A0
100
AcDbEntity
8
1
6
ByLayer
62
256
370
-1
100
AcDbCircle
10
96
20
-68
40
1
100
AcDbArc
50
90
51
180
0
LINE
5
A1
100
AcDbEntity
8
1
6
ByLayer
62
256
370
-1
100
AcDbLine
10
96
20
-67
11
100
21
-67
0
ARC
5
A2
100
AcDbEntity
8
1
6
ByLayer
62
256
370
-1
100
AcDbCircle
10
100
20
-68
40
1
100
AcDbArc
50
0
51
90
0
LINE
5
A3
100
AcDbEntity
8
1
6
ByLayer
62
256
370
-1
100
AcDbLine
10
101
20
-68
11
101
21
-72
0
ARC
5
A4
100
AcDbEntity
8
1
6
ByLayer
62
256
370
-1
100
AcDbCircle
10
100
20
-72
40
1
100
AcDbArc
50
270
51
0
0
LINE
5
A5
100
AcDbEntity
8
1
6
ByLayer
62
256
370
-1
100
AcDbLine
10
100
20
-73
11
96
21
-73
0
LINE
5
A6
100
AcDbEntity
8
1
6
ByLayer
62
256
370
-1
100
AcDbLine
10
95
20
-72
11
95
21
-68
0
ARC
5
A7
100
AcDbEntity
8
1
6
ByLayer
62
256
370
-1
100
AcDbCircle
10
96
20
-72
40
1
100
AcDbArc
50
180
51
270
0
ARC
5
A8
100
AcDbEntity
8
1
6
ByLayer
62
256
370
-1
100
AcDbCircle
10
160
20
-68
40
1
100
AcDbArc
50
90
51
180
0
LINE
5
A9
100
AcDbEntity
8
1
6
ByLayer
62
256
370
-1
100
AcDbLine
10
160
20
-67
11
164
21
-67
0
ARC
5
AA
100
AcDbEntity
8
1
6
ByLayer
62
256
370
-1
100
AcDbCircle
10
164
20
-68
40
1
100
AcDbArc
50
0
51
90
0
LINE
5
AB
100
AcDbEntity
8
1
6
ByLayer
62
256
370
-1
100
AcDbLine
10
165
20
-68
11
165
21
-72
0
ARC
5
AC
100
AcDbEntity
8
1
6
ByLayer
62
256
370
-1
100
AcDbCircle
10
164
20
-72
40
1
100
AcDbArc
50
270
51
0
0
LINE
5
AD
100
AcDbEntity
8
1
6
ByLayer
62
256
370
-1
100
AcDbLine
10
164
20
-73
11
160
21
-73
0
LINE
5
AE
100
AcDbEntity
8
1
6
ByLayer
62
256
370
-1
100
AcDbLine
10
159
20
-72
11
159
21
-68
0
ARC
5
AF
100
AcDbEntity
8
1
6
ByLayer
62
256
370
-1
100
AcDbCircle
10
160
20
-72
40
1
100
AcDbArc
50
180
51
270
0
LINE
5
B0
100
AcDbEntity
8
1
6
ByLayer
62
256
370
-1
100
AcDbLine
10
300
20
-85
11
300
21
-55
0
LINE
5
B1
100
AcDbEntity
8
1
6
ByLayer
62
256
370
-1
100
AcDbLine
10
560
20
-55
11
560
21
-85
0
LINE
5
B2
100
AcDbEntity
8
1
6
ByLayer
62
256
370
-1
100
AcDbLine
10
560
20
-85
11
300
21
-85
0
ARC
5
B3
100
AcDbEntity
8
1
6
ByLayer
62
256
370
-1
100
AcDbCircle
10
438
20
-7
40
2
100
AcDbArc
50
0
51
90
0
LINE
5
B4
100
AcDbEntity
8
1
6
ByLayer
62
256
370
-1
100
AcDbLine
10
300
20
-55
11
418
21
-55
0
ARC
5
B5
100
AcDbEntity
8
1
6
ByLayer
62
256
370
-1
100
AcDbCircle
10
418
20
-53
40
2
100
AcDbArc
50
270
51
0
0
LINE
5
B6
100
AcDbEntity
8
1
6
ByLayer
62
256
370
-1
100
AcDbLine
10
440
20
-7
11
440
21
-53
0
LINE
5
B7
100
AcDbEntity
8
1
6
ByLayer
62
256
370
-1
100
AcDbLine
10
442
20
-55
11
560
21
-55
0
ARC
5
B8
100
AcDbEntity
8
1
6
ByLayer
62
256
370
-1
100
AcDbCircle
10
442
20
-53
40
2
100
AcDbArc
50
180
51
270
0
LINE
5
B9
100
AcDbEntity
8
1
6
ByLayer
62
256
370
-1
100
AcDbLine
10
420
20
-53
11
420
21
-7
0
LINE
5
BA
100
AcDbEntity
8
1
6
ByLayer
62
256
370
-1
100
AcDbLine
10
422
20
-5
11
438
21
-5
0
ARC
5
BB
100
AcDbEntity
8
1
6
ByLayer
62
256
370
-1
100
AcDbCircle
10
422
20
-7
40
2
100
AcDbArc
50
90
51
180
0
ARC
5
BC
100
AcDbEntity
8
1
6
ByLayer
62
256
370
-1
100
AcDbCircle
10
396
20
-68
40
1
100
AcDbArc
50
90
51
180
0
LINE
5
BD
100
AcDbEntity
8
1
6
ByLayer
62
256
370
-1
100
AcDbLine
10
396
20
-67
11
400
21
-67
0
ARC
5
BE
100
AcDbEntity
8
1
6
ByLayer
62
256
370
-1
100
AcDbCircle
10
400
20
-68
40
1
100
AcDbArc
50
0
51
90
0
LINE
5
BF
100
AcDbEntity
8
1
6
ByLayer
62
256
370
-1
100
AcDbLine
10
401
20
-68
11
401
21
-72
0
ARC
5
C0
100
AcDbEntity
8
1
6
ByLayer
62
256
370
-1
100
AcDbCircle
10
400
20
-72
40
1
100
AcDbArc
50
270
51
0
0
LINE
5
C1
100
AcDbEntity
8
1
6
ByLayer
62
256
370
-1
100
AcDbLine
10
400
20
-73
11
396
21
-73
0
LINE
5
C2
100
AcDbEntity
8
1
6
ByLayer
62
256
370
-1
100
AcDbLine
10
395
20
-72
11
395
21
-68
0
ARC
5
C3
100
AcDbEntity
8
1
6
ByLayer
62
256
370
-1
100
AcDbCircle
10
396
20
-72
40
1
100
AcDbArc
50
180
51
270
0
ARC
5
C4
100
AcDbEntity
8
1
6
ByLayer
62
256
370
-1
100
AcDbCircle
10
460
20
-68
40
1
100
AcDbArc
50
90
51
180
0
LINE
5
C5
100
AcDbEntity
8
1
6
ByLayer
62
256
370
-1
100
AcDbLine
10
460
20
-67
11
464
21
-67
0
ARC
5
C6
100
AcDbEntity
8
1
6
ByLayer
62
256
370
-1
100
AcDbCircle
10
464
20
-68
40
1
100
AcDbArc
50
0
51
90
0
LINE
5
C7
100
AcDbEntity
8
1
6
ByLayer
62
256
370
-1
100
AcDbLine
10
465
20
-68
11
465
21
-72
0
ARC
5
C8
100
AcDbEntity
8
1
6
ByLayer
62
256
370
-1
100
AcDbCircle
10
464
20
-72
40
1
100
AcDbArc
50
270
51
0
0
LINE
5
C9
100
AcDbEntity
8
1
6
ByLayer
62
256
370
-1
100
AcDbLine
10
464
20
-73
11
460
21
-73
0
LINE
5
CA
100
AcDbEntity
8
1
6
ByLayer
62
256
370
-1
100
AcDbLine
10
459
20
-72
11
459
21
-68
0
ARC
5
CB
100
AcDbEntity
8
1
6
ByLayer
62
256
370
-1
100
AcDbCircle
10
460
20
-72
40
1
100
AcDbArc
50
180
51
270
0
LINE
5
CC
100
AcDbEntity
8
1
6
ByLayer
62
256
370
-1
100
AcDbLine
10
408
20
-6
11
408
21
-36
0
LINE
5
CD
100
AcDbEntity
8
1
6
ByLayer
62
256
370
-1
100
AcDbLine
10
148
20
-36
11
148
21
-6
0
LINE
5
CE
100
AcDbEntity
8
1
6
ByLayer
62
256
370
-1
100
AcDbLine
10
148
20
-6
11
408
21
-6
0
ARC
5
CF
100
AcDbEntity
8
1
6
ByLayer
62
256
370
-1
100
AcDbCircle
10
270
20
-84
40
2
100
AcDbArc
50
180
51
270
0
LINE
5
D0
100
AcDbEntity
8
1
6
ByLayer
62
256
370
-1
100
AcDbLine
10
408
20
-36
11
290
21
-36
0
ARC
5
D1
100
AcDbEntity
8
1
6
ByLayer
62
256
370
-1
100
AcDbCircle
10
290
20
-38
40
2
100
AcDbArc
50
90
51
180
0
LINE
5
D2
100
AcDbEntity
8
1
6
ByLayer
62
256
370
-1
100
AcDbLine
10
268
20
-84
11
268
21
-38
0
LINE
5
D3
100
AcDbEntity
8
1
6
ByLayer
62
256
370
-1
100
AcDbLine
10
266
20
-36
11
148
21
-36
0
ARC
5
D4
100
AcDbEntity
8
1
6
ByLayer
62
256
370
-1
100
AcDbCircle
10
266
20
-38
40
2
100
AcDbArc
50
360
51
90
0
LINE
5
D5
100
AcDbEntity
8
1
6
ByLayer
62
256
370
-1
100
AcDbLine
10
288
20
-38
11
288
21
-84
0
LINE
5
D6
100
AcDbEntity
8
1
6
ByLayer
62
256
370
-1
100
AcDbLine
10
286
20
-86
11
270
21
-86
0
ARC
5
D7
100
AcDbEntity
8
1
6
ByLayer
62
256
370
-1
100
AcDbCircle
10
286
20
-84
40
2
100
AcDbArc
50
270
51
360
0
ARC
5
D8
100
AcDbEntity
8
1
6
ByLayer
62
256
370
-1
100
AcDbCircle
10
312
20
-23
40
1
100
AcDbArc
50
270
51
360
0
LINE
5
D9
100
AcDbEntity
8
1
6
ByLayer
62
256
370
-1
100
AcDbLine
10
312
20
-24
11
308
21
-24
0
ARC
5
DA
100
AcDbEntity
8
1
6
ByLayer
62
256
370
-1
100
AcDbCircle
10
308
20
-23
40
1
100
AcDbArc
50
180
51
270
0
LINE
5
DB
100
AcDbEntity
8
1
6
ByLayer
62
256
370
-1
100
AcDbLine
10
307
20
-23
11
307
21
-19
0
ARC
5
DC
100
AcDbEntity
8
1
6
ByLayer
62
256
370
-1
100
AcDbCircle
10
308
20
-19
40
1
100
AcDbArc
50
90
51
180
0
LINE
5
DD
100
AcDbEntity
8
1
6
ByLayer
62
256
370
-1
100
AcDbLine
10
308
20
-18
11
312
21
-18
0
LINE
5
DE
100
AcDbEntity
8
1
6
ByLayer
62
256
370
-1
100
AcDbLine
10
313
20
-19
11
313
21
-23
0
ARC
5
DF
100
AcDbEntity
8
1
6
ByLayer
62
256
370
-1
100
AcDbCircle
10
312
20
-19
40
1
100
AcDbArc
50
360
51
90
0
ARC
5
E0
100
AcDbEntity
8
1
6
ByLayer
62
256
370
-1
100
AcDbCircle
10
248
20
-23
40
1
100
AcDbArc
50
270
51
360
0
LINE
5
E1
100
AcDbEntity
8
1
6
ByLayer
62
256
370
-1
100
AcDbLine
10
248
20
-24
11
244
21
-24
0
ARC
5
E2
100
AcDbEntity
8
1
6
ByLayer
62
256
370
-1
100
AcDbCircle
10
244
20
-23
40
1
100
AcDbArc
50
180
51
270
0
LINE
5
E3
100
AcDbEntity
8
1
6
ByLayer
62
256
370
-1
100
AcDbLine
10
243
20
-23
11
243
21
-19
0
ARC
5
E4
100
AcDbEntity
8
1
6
ByLayer
62
256
370
-1
100
AcDbCircle
10
244
20
-19
40
1
100
AcDbArc
50
90
51
180
0
LINE
5
E5
100
AcDbEntity
8
1
6
ByLayer
62
256
370
-1
100
AcDbLine
10
244
20
-18
11
248
21
-18
0
LINE
5
E6
100
AcDbEntity
8
1
6
ByLayer
62
256
370
-1
100
AcDbLine
10
249
20
-19
11
249
21
-23
0
ARC
5
E7
100
AcDbEntity
8
1
6
ByLayer
62
256
370
-1
100
AcDbCircle
10
248
20
-19
40
1
100
AcDbArc
50
360
51
90
0
ARC
5
E8
100
AcDbEntity
8
0
6
ByLayer
62
256
370
-1
100
AcDbCircle
10
303
20
97
40
1
100
AcDbArc
50
90
51
180
0
LINE
5
E9
100
AcDbEntity
8
0
6
ByLayer
62
256
370
-1
100
AcDbLine
10
303
20
98
11
307
21
98
0
ARC
5
EA
100
AcDbEntity
8
0
6
ByLayer
62
256
370
-1
100
AcDbCircle
10
307
20
97
40
1
100
AcDbArc
50
0
51
90
0
LINE
5
EB
100
AcDbEntity
8
0
6
ByLayer
62
256
370
-1
100
AcDbLine
10
308
20
97
11
308
21
93
0
ARC
5
EC
100
AcDbEntity
8
0
6
ByLayer
62
256
370
-1
100
AcDbCircle
10
307
20
93
40
1
100
AcDbArc
50
270
51
0
0
LINE
5
ED
100
AcDbEntity
8
0
6
ByLayer
62
256
370
-1
100
AcDbLine
10
307
20
92
11
303
21
92
0
LINE
5
EE
100
AcDbEntity
8
0
6
ByLayer
62
256
370
-1
100
AcDbLine
10
302
20
93
11
302
21
97
0
ARC
5
EF
100
AcDbEntity
8
0
6
ByLayer
62
256
370
-1
100
AcDbCircle
10
303
20
93
40
1
100
AcDbArc
50
180
51
270
0
ARC
5
F0
100
AcDbEntity
8
0
6
ByLayer
62
256
370
-1
100
AcDbCircle
10
13
20
97
40
1
100
AcDbArc
50
90
51
180
0
LINE
5
F1
100
AcDbEntity
8
0
6
ByLayer
62
256
370
-1
100
AcDbLine
10
13
20
98
11
17
21
98
0
ARC
5
F2
100
AcDbEntity
8
0
6
ByLayer
62
256
370
-1
100
AcDbCircle
10
17
20
97
40
1
100
AcDbArc
50
0
51
90
0
LINE
5
F3
100
AcDbEntity
8
0
6
ByLayer
62
256
370
-1
100
AcDbLine
10
18
20
97
11
18
21
93
0
ARC
5
F4
100
AcDbEntity
8
0
6
ByLayer
62
256
370
-1
100
AcDbCircle
10
17
20
93
40
1
100
AcDbArc
50
270
51
0
0
LINE
5
F5
100
AcDbEntity
8
0
6
ByLayer
62
256
370
-1
100
AcDbLine
10
17
20
92
11
13
21
92
0
LINE
5
F6
100
AcDbEntity
8
0
6
ByLayer
62
256
370
-1
100
AcDbLine
10
12
20
93
11
12
21
97
0
ARC
5
F7
100
AcDbEntity
8
0
6
ByLayer
62
256
370
-1
100
AcDbCircle
10
13
20
93
40
1
100
AcDbArc
50
180
51
270
0
LINE
5
F8
100
AcDbEntity
8
1
6
ByLayer
62
256
370
-1
100
AcDbLine
10
565
20
30
11
545
21
30
0
ARC
5
F9
100
AcDbEntity
8
1
6
ByLayer
62
256
370
-1
100
AcDbCircle
10
565
20
40
40
10
100
AcDbArc
50
270
51
360
0
ARC
5
FA
100
AcDbEntity
8
1
6
ByLayer
62
256
370
-1
100
AcDbCircle
10
558
20
47
40
1
100
AcDbArc
50
90
51
180
0
LINE
5
FB
100
AcDbEntity
8
1
6
ByLayer
62
256
370
-1
100
AcDbLine
10
558
20
48
11
562
21
48
0
ARC
5
FC
100
AcDbEntity
8
1
6
ByLayer
62
256
370
-1
100
AcDbCircle
10
562
20
47
40
1
100
AcDbArc
50
360
51
90
0
LINE
5
FD
100
AcDbEntity
8
1
6
ByLayer
62
256
370
-1
100
AcDbLine
10
563
20
47
11
563
21
43
0
ARC
5
FE
100
AcDbEntity
8
1
6
ByLayer
62
256
370
-1
100
AcDbCircle
10
562
20
43
40
1
100
AcDbArc
50
270
51
360
0
LINE
5
FF
100
AcDbEntity
8
1
6
ByLayer
62
256
370
-1
100
AcDbLine
10
562
20
42
11
558
21
42
0
LINE
5
100
100
AcDbEntity
8
1
6
ByLayer
62
256
370
-1
100
AcDbLine
10
557
20
43
11
557
21
47
0
ARC
5
101
100
AcDbEntity
8
1
6
ByLayer
62
256
370
-1
100
AcDbCircle
10
558
20
43
40
1
100
AcDbArc
50
180
51
270
0
LINE
5
102
100
AcDbEntity
8
1
6
ByLayer
62
256
370
-1
100
AcDbLine
10
560
20
200
11
575
21
200
0
LINE
5
103
100
AcDbEntity
8
1
6
ByLayer
62
256
370
-1
100
AcDbLine
10
575
20
200
11
575
21
40
0
ARC
5
104
100
AcDbEntity
8
1
6
ByLayer
62
256
370
-1
100
AcDbCircle
10
558
20
127
40
1
100
AcDbArc
50
90
51
180
0
LINE
5
105
100
AcDbEntity
8
1
6
ByLayer
62
256
370
-1
100
AcDbLine
10
558
20
128
11
562
21
128
0
ARC
5
106
100
AcDbEntity
8
1
6
ByLayer
62
256
370
-1
100
AcDbCircle
10
562
20
127
40
1
100
AcDbArc
50
360
51
90
0
LINE
5
107
100
AcDbEntity
8
1
6
ByLayer
62
256
370
-1
100
AcDbLine
10
563
20
127
11
563
21
123
0
ARC
5
108
100
AcDbEntity
8
1
6
ByLayer
62
256
370
-1
100
AcDbCircle
10
562
20
123
40
1
100
AcDbArc
50
270
51
360
0
LINE
5
109
100
AcDbEntity
8
1
6
ByLayer
62
256
370
-1
100
AcDbLine
10
562
20
122
11
558
21
122
0
LINE
5
10A
100
AcDbEntity
8
1
6
ByLayer
62
256
370
-1
100
AcDbLine
10
557
20
123
11
557
21
127
0
ARC
5
10B
100
AcDbEntity
8
1
6
ByLayer
62
256
370
-1
100
AcDbCircle
10
558
20
123
40
1
100
AcDbArc
50
180
51
270
0
LINE
5
10C
100
AcDbEntity
8
1
6
ByLayer
62
256
370
-1
100
AcDbLine
10
545
20
30
11
545
21
138
0
ARC
5
10D
100
AcDbEntity
8
1
6
ByLayer
62
256
370
-1
100
AcDbCircle
10
547
20
138
40
2
100
AcDbArc
50
90
51
180
0
LINE
5
10E
100
AcDbEntity
8
1
6
ByLayer
62
256
370
-1
100
AcDbLine
10
547
20
140
11
558
21
140
0
LINE
5
10F
100
AcDbEntity
8
1
6
ByLayer
62
256
370
-1
100
AcDbLine
10
560
20
200
11
560
21
142
0
ARC
5
110
100
AcDbEntity
8
1
6
ByLayer
62
256
370
-1
100
AcDbCircle
10
558
20
142
40
2
100
AcDbArc
50
270
51
0
0
LINE
5
111
100
AcDbEntity
8
1
6
ByLayer
62
256
370
-1
100
AcDbLine
10
531
20
30
11
511
21
30
0
ARC
5
112
100
AcDbEntity
8
1
6
ByLayer
62
256
370
-1
100
AcDbCircle
10
531
20
40
40
10
100
AcDbArc
50
270
51
360
0
ARC
5
113
100
AcDbEntity
8
1
6
ByLayer
62
256
370
-1
100
AcDbCircle
10
524
20
47
40
1
100
AcDbArc
50
90
51
180
0
LINE
5
114
100
AcDbEntity
8
1
6
ByLayer
62
256
370
-1
100
AcDbLine
10
524
20
48
11
528
21
48
0
ARC
5
115
100
AcDbEntity
8
1
6
ByLayer
62
256
370
-1
100
AcDbCircle
10
528
20
47
40
1
100
AcDbArc
50
360
51
90
0
LINE
5
116
100
AcDbEntity
8
1
6
ByLayer
62
256
370
-1
100
AcDbLine
10
529
20
47
11
529
21
43
0
ARC
5
117
100
AcDbEntity
8
1
6
ByLayer
62
256
370
-1
100
AcDbCircle
10
528
20
43
40
1
100
AcDbArc
50
270
51
360
0
LINE
5
118
100
AcDbEntity
8
1
6
ByLayer
62
256
370
-1
100
AcDbLine
10
528
20
42
11
524
21
42
0
LINE
5
119
100
AcDbEntity
8
1
6
ByLayer
62
256
370
-1
100
AcDbLine
10
523
20
43
11
523
21
47
0
ARC
5
11A
100
AcDbEntity
8
1
6
ByLayer
62
256
370
-1
100
AcDbCircle
10
524
20
43
40
1
100
AcDbArc
50
180
51
270
0
LINE
5
11B
100
AcDbEntity
8
1
6
ByLayer
62
256
370
-1
100
AcDbLine
10
526
20
200
11
541
21
200
0
LINE
5
11C
100
AcDbEntity
8
1
6
ByLayer
62
256
370
-1
100
AcDbLine
10
541
20
200
11
541
21
40
0
ARC
5
11D
100
AcDbEntity
8
1
6
ByLayer
62
256
370
-1
100
AcDbCircle
10
524
20
127
40
1
100
AcDbArc
50
90
51
180
0
LINE
5
11E
100
AcDbEntity
8
1
6
ByLayer
62
256
370
-1
100
AcDbLine
10
524
20
128
11
528
21
128
0
ARC
5
11F
100
AcDbEntity
8
1
6
ByLayer
62
256
370
-1
100
AcDbCircle
10
528
20
127
40
1
100
AcDbArc
50
360
51
90
0
LINE
5
120
100
AcDbEntity
8
1
6
ByLayer
62
256
370
-1
100
AcDbLine
10
529
20
127
11
529
21
123
0
ARC
5
121
100
AcDbEntity
8
1
6
ByLayer
62
256
370
-1
100
AcDbCircle
10
528
20
123
40
1
100
AcDbArc
50
270
51
360
0
LINE
5
122
100
AcDbEntity
8
1
6
ByLayer
62
256
370
-1
100
AcDbLine
10
528
20
122
11
524
21
122
0
LINE
5
123
100
AcDbEntity
8
1
6
ByLayer
62
256
370
-1
100
AcDbLine
10
523
20
123
11
523
21
127
0
ARC
5
124
100
AcDbEntity
8
1
6
ByLayer
62
256
370
-1
100
AcDbCircle
10
524
20
123
40
1
100
AcDbArc
50
180
51
270
0
LINE
5
125
100
AcDbEntity
8
1
6
ByLayer
62
256
370
-1
100
AcDbLine
10
511
20
30
11
511
21
138
0
ARC
5
126
100
AcDbEntity
8
1
6
ByLayer
62
256
370
-1
100
AcDbCircle
10
513
20
138
40
2
100
AcDbArc
50
90
51
180
0
LINE
5
127
100
AcDbEntity
8
1
6
ByLayer
62
256
370
-1
100
AcDbLine
10
513
20
140
11
524
21
140
0
LINE
5
128
100
AcDbEntity
8
1
6
ByLayer
62
256
370
-1
100
AcDbLine
10
526
20
200
11
526
21
142
0
ARC
5
129
100
AcDbEntity
8
1
6
ByLayer
62
256
370
-1
100
AcDbCircle
10
524
20
142
40
2
100
AcDbArc
50
270
51
0
0
LINE
5
12A
100
AcDbEntity
8
1
6
ByLayer
62
256
370
-1
100
AcDbLine
10
497
20
30
11
477
21
30
0
ARC
5
12B
100
AcDbEntity
8
1
6
ByLayer
62
256
370
-1
100
AcDbCircle
10
497
20
40
40
10
100
AcDbArc
50
270
51
360
0
ARC
5
12C
100
AcDbEntity
8
1
6
ByLayer
62
256
370
-1
100
AcDbCircle
10
490
20
47
40
1
100
AcDbArc
50
90
51
180
0
LINE
5
12D
100
AcDbEntity
8
1
6
ByLayer
62
256
370
-1
100
AcDbLine
10
490
20
48
11
494
21
48
0
ARC
5
12E
100
AcDbEntity
8
1
6
ByLayer
62
256
370
-1
100
AcDbCircle
10
494
20
47
40
1
100
AcDbArc
50
360
51
90
0
LINE
5
12F
100
AcDbEntity
8
1
6
ByLayer
62
256
370
-1
100
AcDbLine
10
495
20
47
11
495
21
43
0
ARC
5
130
100
AcDbEntity
8
1
6
ByLayer
62
256
370
-1
100
AcDbCircle
10
494
20
43
40
1
100
AcDbArc
50
270
51
360
0
LINE
5
131
100
AcDbEntity
8
1
6
ByLayer
62
256
370
-1
100
AcDbLine
10
494
20
42
11
490
21
42
0
LINE
5
132
100
AcDbEntity
8
1
6
ByLayer
62
256
370
-1
100
AcDbLine
10
489
20
43
11
489
21
47
0
ARC
5
133
100
AcDbEntity
8
1
6
ByLayer
62
256
370
-1
100
AcDbCircle
10
490
20
43
40
1
100
AcDbArc
50
180
51
270
0
LINE
5
134
100
AcDbEntity
8
1
6
ByLayer
62
256
370
-1
100
AcDbLine
10
492
20
200
11
507
21
200
0
LINE
5
135
100
AcDbEntity
8
1
6
ByLayer
62
256
370
-1
100
AcDbLine
10
507
20
200
11
507
21
40
0
ARC
5
136
100
AcDbEntity
8
1
6
ByLayer
62
256
370
-1
100
AcDbCircle
10
490
20
127
40
1
100
AcDbArc
50
90
51
180
0
LINE
5
137
100
AcDbEntity
8
1
6
ByLayer
62
256
370
-1
100
AcDbLine
10
490
20
128
11
494
21
128
0
ARC
5
138
100
AcDbEntity
8
1
6
ByLayer
62
256
370
-1
100
AcDbCircle
10
494
20
127
40
1
100
AcDbArc
50
360
51
90
0
LINE
5
139
100
AcDbEntity
8
1
6
ByLayer
62
256
370
-1
100
AcDbLine
10
495
20
127
11
495
21
123
0
ARC
5
13A
100
AcDbEntity
8
1
6
ByLayer
62
256
370
-1
100
AcDbCircle
10
494
20
123
40
1
100
AcDbArc
50
270
51
360
0
LINE
5
13B
100
AcDbEntity
8
1
6
ByLayer
62
256
370
-1
100
AcDbLine
10
494
20
122
11
490
21
122
0
LINE
5
13C
100
AcDbEntity
8
1
6
ByLayer
62
256
370
-1
100
AcDbLine
10
489
20
123
11
489
21
127
0
ARC
5
13D
100
AcDbEntity
8
1
6
ByLayer
62
256
370
-1
100
AcDbCircle
10
490
20
123
40
1
100
AcDbArc
50
180
51
270
0
LINE
5
13E
100
AcDbEntity
8
1
6
ByLayer
62
256
370
-1
100
AcDbLine
10
477
20
30
11
477
21
138
0
ARC
5
13F
100
AcDbEntity
8
1
6
ByLayer
62
256
370
-1
100
AcDbCircle
10
479
20
138
40
2
100
AcDbArc
50
90
51
180
0
LINE
5
140
100
AcDbEntity
8
1
6
ByLayer
62
256
370
-1
100
AcDbLine
10
479
20
140
11
490
21
140
0
LINE
5
141
100
AcDbEntity
8
1
6
ByLayer
62
256
370
-1
100
AcDbLine
10
492
20
200
11
492
21
142
0
ARC
5
142
100
AcDbEntity
8
1
6
ByLayer
62
256
370
-1
100
AcDbCircle
10
490
20
142
40
2
100
AcDbArc
50
270
51
0
0
LINE
5
143
100
AcDbEntity
8
1
6
ByLayer
62
256
370
-1
100
AcDbLine
10
463
20
30
11
443
21
30
0
ARC
5
144
100
AcDbEntity
8
1
6
ByLayer
62
256
370
-1
100
AcDbCircle
10
463
20
40
40
10
100
AcDbArc
50
270
51
360
0
ARC
5
145
100
AcDbEntity
8
1
6
ByLayer
62
256
370
-1
100
AcDbCircle
10
456
20
47
40
1
100
AcDbArc
50
90
51
180
0
LINE
5
146
100
AcDbEntity
8
1
6
ByLayer
62
256
370
-1
100
AcDbLine
10
456
20
48
11
460
21
48
0
ARC
5
147
100
AcDbEntity
8
1
6
ByLayer
62
256
370
-1
100
AcDbCircle
10
460
20
47
40
1
100
AcDbArc
50
360
51
90
0
LINE
5
148
100
AcDbEntity
8
1
6
ByLayer
62
256
370
-1
100
AcDbLine
10
461
20
47
11
461
21
43
0
ARC
5
149
100
AcDbEntity
8
1
6
ByLayer
62
256
370
-1
100
AcDbCircle
10
460
20
43
40
1
100
AcDbArc
50
270
51
360
0
LINE
5
14A
100
AcDbEntity
8
1
6
ByLayer
62
256
370
-1
100
AcDbLine
10
460
20
42
11
456
21
42
0
LINE
5
14B
100
AcDbEntity
8
1
6
ByLayer
62
256
370
-1
100
AcDbLine
10
455
20
43
11
455
21
47
0
ARC
5
14C
100
AcDbEntity
8
1
6
ByLayer
62
256
370
-1
100
AcDbCircle
10
456
20
43
40
1
100
AcDbArc
50
180
51
270
0
LINE
5
14D
100
AcDbEntity
8
1
6
ByLayer
62
256
370
-1
100
AcDbLine
10
458
20
200
11
473
21
200
0
LINE
5
14E
100
AcDbEntity
8
1
6
ByLayer
62
256
370
-1
100
AcDbLine
10
473
20
200
11
473
21
40
0
ARC
5
14F
100
AcDbEntity
8
1
6
ByLayer
62
256
370
-1
100
AcDbCircle
10
456
20
127
40
1
100
AcDbArc
50
90
51
180
0
LINE
5
150
100
AcDbEntity
8
1
6
ByLayer
62
256
370
-1
100
AcDbLine
10
456
20
128
11
460
21
128
0
ARC
5
151
100
AcDbEntity
8
1
6
ByLayer
62
256
370
-1
100
AcDbCircle
10
460
20
127
40
1
100
AcDbArc
50
360
51
90
0
LINE
5
152
100
AcDbEntity
8
1
6
ByLayer
62
256
370
-1
100
AcDbLine
10
461
20
127
11
461
21
123
0
ARC
5
153
100
AcDbEntity
8
1
6
ByLayer
62
256
370
-1
100
AcDbCircle
10
460
20
123
40
1
100
AcDbArc
50
270
51
360
0
LINE
5
154
100
AcDbEntity
8
1
6
ByLayer
62
256
370
-1
100
AcDbLine
10
460
20
122
11
456
21
122
0
LINE
5
155
100
AcDbEntity
8
1
6
ByLayer
62
256
370
-1
100
AcDbLine
10
455
20
123
11
455
21
127
0
ARC
5
156
100
AcDbEntity
8
1
6
ByLayer
62
256
370
-1
100
AcDbCircle
10
456
20
123
40
1
100
AcDbArc
50
180
51
270
0
LINE
5
157
100
AcDbEntity
8
1
6
ByLayer
62
256
370
-1
100
AcDbLine
10
443
20
30
11
443
21
138
0
ARC
5
158
100
AcDbEntity
8
1
6
ByLayer
62
256
370
-1
100
AcDbCircle
10
445
20
138
40
2
100
AcDbArc
50
90
51
180
0
LINE
5
159
100
AcDbEntity
8
1
6
ByLayer
62
256
370
-1
100
AcDbLine
10
445
20
140
11
456
21
140
0
LINE
5
15A
100
AcDbEntity
8
1
6
ByLayer
62
256
370
-1
100
AcDbLine
10
458
20
200
11
458
21
142
0
ARC
5
15B
100
AcDbEntity
8
1
6
ByLayer
62
256
370
-1
100
AcDbCircle
10
456
20
142
40
2
100
AcDbArc
50
270
51
0
0
LINE
5
15C
100
AcDbEntity
8
1
6
ByLayer
62
256
370
-1
100
AcDbLine
10
429
20
30
11
409
21
30
0
ARC
5
15D
100
AcDbEntity
8
1
6
ByLayer
62
256
370
-1
100
AcDbCircle
10
429
20
40
40
10
100
AcDbArc
50
270
51
360
0
ARC
5
15E
100
AcDbEntity
8
1
6
ByLayer
62
256
370
-1
100
AcDbCircle
10
422
20
47
40
1
100
AcDbArc
50
90
51
180
0
LINE
5
15F
100
AcDbEntity
8
1
6
ByLayer
62
256
370
-1
100
AcDbLine
10
422
20
48
11
426
21
48
0
ARC
5
160
100
AcDbEntity
8
1
6
ByLayer
62
256
370
-1
100
AcDbCircle
10
426
20
47
40
1
100
AcDbArc
50
360
51
90
0
LINE
5
161
100
AcDbEntity
8
1
6
ByLayer
62
256
370
-1
100
AcDbLine
10
427
20
47
11
427
21
43
0
ARC
5
162
100
AcDbEntity
8
1
6
ByLayer
62
256
370
-1
100
AcDbCircle
10
426
20
43
40
1
100
AcDbArc
50
270
51
360
0
LINE
5
163
100
AcDbEntity
8
1
6
ByLayer
62
256
370
-1
100
AcDbLine
10
426
20
42
11
422
21
42
0
LINE
5
164
100
AcDbEntity
8
1
6
ByLayer
62
256
370
-1
100
AcDbLine
10
421
20
43
11
421
21
47
0
ARC
5
165
100
AcDbEntity
8
1
6
ByLayer
62
256
370
-1
100
AcDbCircle
10
422
20
43
40
1
100
AcDbArc
50
180
51
270
0
LINE
5
166
100
AcDbEntity
8
1
6
ByLayer
62
256
370
-1
100
AcDbLine
10
424
20
200
11
439
21
200
0
LINE
5
167
100
AcDbEntity
8
1
6
ByLayer
62
256
370
-1
100
AcDbLine
10
439
20
200
11
439
21
40
0
ARC
5
168
100
AcDbEntity
8
1
6
ByLayer
62
256
370
-1
100
AcDbCircle
10
422
20
127
40
1
100
AcDbArc
50
90
51
180
0
LINE
5
169
100
AcDbEntity
8
1
6
ByLayer
62
256
370
-1
100
AcDbLine
10
422
20
128
11
426
21
128
0
ARC
5
16A
100
AcDbEntity
8
1
6
ByLayer
62
256
370
-1
100
AcDbCircle
10
426
20
127
40
1
100
AcDbArc
50
360
51
90
0
LINE
5
16B
100
AcDbEntity
8
1
6
ByLayer
62
256
370
-1
100
AcDbLine
10
427
20
127
11
427
21
123
0
ARC
5
16C
100
AcDbEntity
8
1
6
ByLayer
62
256
370
-1
100
AcDbCircle
10
426
20
123
40
1
100
AcDbArc
50
270
51
360
0
LINE
5
16D
100
AcDbEntity
8
1
6
ByLayer
62
256
370
-1
100
AcDbLine
10
426
20
122
11
422
21
122
0
LINE
5
16E
100
AcDbEntity
8
1
6
ByLayer
62
256
370
-1
100
AcDbLine
10
421
20
123
11
421
21
127
0
ARC
5
16F
100
AcDbEntity
8
1
6
ByLayer
62
256
370
-1
100
AcDbCircle
10
422
20
123
40
1
100
AcDbArc
50
180
51
270
0
LINE
5
170
100
AcDbEntity
8
1
6
ByLayer
62
256
370
-1
100
AcDbLine
10
409
20
30
11
409
21
138
0
ARC
5
171
100
AcDbEntity
8
1
6
ByLayer
62
256
370
-1
100
AcDbCircle
10
411
20
138
40
2
100
AcDbArc
50
90
51
180
0
LINE
5
172
100
AcDbEntity
8
1
6
ByLayer
62
256
370
-1
100
AcDbLine
10
411
20
140
11
422
21
140
0
LINE
5
173
100
AcDbEntity
8
1
6
ByLayer
62
256
370
-1
100
AcDbLine
10
424
20
200
11
424
21
142
0
ARC
5
174
100
AcDbEntity
8
1
6
ByLayer
62
256
370
-1
100
AcDbCircle
10
422
20
142
40
2
100
AcDbArc
50
270
51
0
0
LINE
5
175
100
AcDbEntity
8
1
6
ByLayer
62
256
370
-1
100
AcDbLine
10
395
20
30
11
375
21
30
0
ARC
5
176
100
AcDbEntity
8
1
6
ByLayer
62
256
370
-1
100
AcDbCircle
10
395
20
40
40
10
100
AcDbArc
50
270
51
360
0
ARC
5
177
100
AcDbEntity
8
1
6
ByLayer
62
256
370
-1
100
AcDbCircle
10
388
20
47
40
1
100
AcDbArc
50
90
51
180
0
LINE
5
178
100
AcDbEntity
8
1
6
ByLayer
62
256
370
-1
100
AcDbLine
10
388
20
48
11
392
21
48
0
ARC
5
179
100
AcDbEntity
8
1
6
ByLayer
62
256
370
-1
100
AcDbCircle
10
392
20
47
40
1
100
AcDbArc
50
360
51
90
0
LINE
5
17A
100
AcDbEntity
8
1
6
ByLayer
62
256
370
-1
100
AcDbLine
10
393
20
47
11
393
21
43
0
ARC
5
17B
100
AcDbEntity
8
1
6
ByLayer
62
256
370
-1
100
AcDbCircle
10
392
20
43
40
1
100
AcDbArc
50
270
51
360
0
LINE
5
17C
100
AcDbEntity
8
1
6
ByLayer
62
256
370
-1
100
AcDbLine
10
392
20
42
11
388
21
42
0
LINE
5
17D
100
AcDbEntity
8
1
6
ByLayer
62
256
370
-1
100
AcDbLine
10
387
20
43
11
387
21
47
0
ARC
5
17E
100
AcDbEntity
8
1
6
ByLayer
62
256
370
-1
100
AcDbCircle
10
388
20
43
40
1
100
AcDbArc
50
180
51
270
0
LINE
5
17F
100
AcDbEntity
8
1
6
ByLayer
62
256
370
-1
100
AcDbLine
10
390
20
200
11
405
21
200
0
LINE
5
180
100
AcDbEntity
8
1
6
ByLayer
62
256
370
-1
100
AcDbLine
10
405
20
200
11
405
21
40
0
ARC
5
181
100
AcDbEntity
8
1
6
ByLayer
62
256
370
-1
100
AcDbCircle
10
388
20
127
40
1
100
AcDbArc
50
90
51
180
0
LINE
5
182
100
AcDbEntity
8
1
6
ByLayer
62
256
370
-1
100
AcDbLine
10
388
20
128
11
392
21
128
0
ARC
5
183
100
AcDbEntity
8
1
6
ByLayer
62
256
370
-1
100
AcDbCircle
10
392
20
127
40
1
100
AcDbArc
50
360
51
90
0
LINE
5
184
100
AcDbEntity
8
1
6
ByLayer
62
256
370
-1
100
AcDbLine
10
393
20
127
11
393
21
123
0
ARC
5
185
100
AcDbEntity
8
1
6
ByLayer
62
256
370
-1
100
AcDbCircle
10
392
20
123
40
1
100
AcDbArc
50
270
51
360
0
LINE
5
186
100
AcDbEntity
8
1
6
ByLayer
62
256
370
-1
100
AcDbLine
10
392
20
122
11
388
21
122
0
LINE
5
187
100
AcDbEntity
8
1
6
ByLayer
62
256
370
-1
100
AcDbLine
10
387
20
123
11
387
21
127
0
ARC
5
188
100
AcDbEntity
8
1
6
ByLayer
62
256
370
-1
100
AcDbCircle
10
388
20
123
40
1
100
AcDbArc
50
180
51
270
0
LINE
5
189
100
AcDbEntity
8
1
6
ByLayer
62
256
370
-1
100
AcDbLine
10
375
20
30
11
375
21
138
0
ARC
5
18A
100
AcDbEntity
8
1
6
ByLayer
62
256
370
-1
100
AcDbCircle
10
377
20
138
40
2
100
AcDbArc
50
90
51
180
0
LINE
5
18B
100
AcDbEntity
8
1
6
ByLayer
62
256
370
-1
100
AcDbLine
10
377
20
140
11
388
21
140
0
LINE
5
18C
100
AcDbEntity
8
1
6
ByLayer
62
256
370
-1
100
AcDbLine
10
390
20
200
11
390
21
142
0
ARC
5
18D
100
AcDbEntity
8
1
6
ByLayer
62
256
370
-1
100
AcDbCircle
10
388
20
142
40
2
100
AcDbArc
50
270
51
0
0
ARC
5
18E
100
AcDbEntity
8
0
6
ByLayer
62
256
370
-1
100
AcDbCircle
10
171.132770403
20
159.185708192
40
1
100
AcDbArc
50
113.999999999
51
204.000000001
0
LINE
5
18F
100
AcDbEntity
8
0
6
ByLayer
62
256
370
-1
100
AcDbLine
10
170.726033759
20
160.09925365
11
203.613670234
21
174.7417728
0
ARC
5
190
100
AcDbEntity
8
0
6
ByLayer
62
256
370
-1
100
AcDbCircle
10
203.206933591
20
175.655318257
40
1
100
AcDbArc
50
293.999999999
51
23.9999999998
0
LINE
5
191
100
AcDbEntity
8
0
6
ByLayer
62
256
370
-1
100
AcDbLine
10
203.307005763
20
177.889145816
11
204.120479049
21
176.0620549
0
ARC
5
192
100
AcDbEntity
8
0
6
ByLayer
62
256
370
-1
100
AcDbCircle
10
204.22055122
20
178.295882459
40
1
100
AcDbArc
50
114
51
204
0
LINE
5
193
100
AcDbEntity
8
0
6
ByLayer
62
256
370
-1
100
AcDbLine
10
216.238032801
20
184.741046262
11
203.813814577
21
179.209427916
0
ARC
5
194
100
AcDbEntity
8
0
6
ByLayer
62
256
370
-1
100
AcDbCircle
10
216.644769444
20
183.827500805
40
1
100
AcDbArc
50
23.9999999998
51
114
0
LINE
5
195
100
AcDbEntity
8
0
6
ByLayer
62
256
370
-1
100
AcDbLine
10
219.185261474
20
180.580055617
11
217.558314902
21
184.234237448
0
ARC
5
196
100
AcDbEntity
8
0
6
ByLayer
62
256
370
-1
100
AcDbCircle
10
220.098806932
20
180.98679226
40
1
100
AcDbArc
50
204
51
294
0
LINE
5
197
100
AcDbEntity
8
0
6
ByLayer
62
256
370
-1
100
AcDbLine
10
236.035816355
20
186.987769735
11
220.505543575
21
180.073246803
0
ARC
5
198
100
AcDbEntity
8
0
6
ByLayer
62
256
370
-1
100
AcDbCircle
10
236.442552998
20
186.074224278
40
1
100
AcDbArc
50
23.9999999998
51
114
0
LINE
5
199
100
AcDbEntity
8
0
6
ByLayer
62
256
370
-1
100
AcDbLine
10
241.423464886
20
177.345506345
11
237.356098456
21
186.480960921
0
ARC
5
19A
100
AcDbEntity
8
0
6
ByLayer
62
256
370
-1
100
AcDbCircle
10
242.337010344
20
177.752242988
40
1
100
AcDbArc
50
204
51
294
0
LINE
5
19B
100
AcDbEntity
8
0
6
ByLayer
62
256
370
-1
100
AcDbLine
10
258.274019767
20
183.753220462
11
242.743746987
21
176.83869753
0
ARC
5
19C
100
AcDbEntity
8
0
6
ByLayer
62
256
370
-1
100
AcDbCircle
10
258.68075641
20
182.839675005
40
1
100
AcDbArc
50
23.9999999998
51
114
0
LINE
5
19D
100
AcDbEntity
8
0
6
ByLayer
62
256
370
-1
100
AcDbLine
10
262.238090048
20
177.308366173
11
259.594301868
21
183.246411648
0
ARC
5
19E
100
AcDbEntity
8
0
6
ByLayer
62
256
370
-1
100
AcDbCircle
10
263.151635506
20
177.715102816
40
1
100
AcDbArc
50
204
51
294
0
LINE
5
19F
100
AcDbEntity
8
0
6
ByLayer
62
256
370
-1
100
AcDbLine
10
279.088644928
20
183.71608029
11
263.558372149
21
176.801557358
0
ARC
5
1A0
100
AcDbEntity
8
0
6
ByLayer
62
256
370
-1
100
AcDbCircle
10
279.495381571
20
182.802534832
40
1
100
AcDbArc
50
24.0000000002
51
114
0
LINE
5
1A1
100
AcDbEntity
8
0
6
ByLayer
62
256
370
-1
100
AcDbLine
10
280.408927029
20
183.209271476
11
301.396537811
21
136.070325862
0
ARC
5
1A2
100
AcDbEntity
8
0
6
ByLayer
62
256
370
-1
100
AcDbCircle
10
300.482992353
20
135.663589219
40
1
100
AcDbArc
50
294
51
24.0000000002
0
LINE
5
1A3
100
AcDbEntity
8
0
6
ByLayer
62
256
370
-1
100
AcDbLine
10
285.359456217
20
127.835520829
11
300.889728997
21
134.750043761
0
ARC
5
1A4
100
AcDbEntity
8
0
6
ByLayer
62
256
370
-1
100
AcDbCircle
10
285.76619286
20
126.921975372
40
1
100
AcDbArc
50
114
51
204.000000004
0
LINE
5
1A5
100
AcDbEntity
8
0
6
ByLayer
62
256
370
-1
100
AcDbLine
10
288.309908869
20
118.750102338
11
284.852647403
21
126.515238729
0
ARC
5
1A6
100
AcDbEntity
8
0
6
ByLayer
62
256
370
-1
100
AcDbCircle
10
287.396363412
20
118.343365695
40
1
100
AcDbArc
50
294
51
24.0000000035
0
LINE
5
1A7
100
AcDbEntity
8
0
6
ByLayer
62
256
370
-1
100
AcDbLine
10
275.378881831
20
111.898201892
11
287.803100055
21
117.429820238
0
ARC
5
1A8
100
AcDbEntity
8
0
6
ByLayer
62
256
370
-1
100
AcDbCircle
10
274.972145188
20
112.811747349
40
1
100
AcDbArc
50
204.000000004
51
294
0
LINE
5
1A9
100
AcDbEntity
8
0
6
ByLayer
62
256
370
-1
100
AcDbLine
10
269.991233299
20
121.540465283
11
274.05859973
21
112.405010706
0
ARC
5
1AA
100
AcDbEntity
8
0
6
ByLayer
62
256
370
-1
100
AcDbCircle
10
269.077687841
20
121.133728639
40
1
100
AcDbArc
50
24.0000000035
51
114
0
LINE
5
1AB
100
AcDbEntity
8
0
6
ByLayer
62
256
370
-1
100
AcDbLine
10
250.034623862
20
113.749846578
11
268.670951198
21
122.047274097
0
ARC
5
1AC
100
AcDbEntity
8
0
6
ByLayer
62
256
370
-1
100
AcDbCircle
10
250.441360505
20
112.836301121
40
1
100
AcDbArc
50
114
51
204.000000001
0
LINE
5
1AD
100
AcDbEntity
8
0
6
ByLayer
62
256
370
-1
100
AcDbLine
10
255.628864693
20
98.7263826131
11
249.527815047
21
112.429564478
0
ARC
5
1AE
100
AcDbEntity
8
0
6
ByLayer
62
256
370
-1
100
AcDbCircle
10
254.715319236
20
98.3196459701
40
1
100
AcDbArc
50
294
51
24.0000000006
0
LINE
5
1AF
100
AcDbEntity
8
0
6
ByLayer
62
256
370
-1
100
AcDbLine
10
225.34047396
20
84.1464859482
11
255.122055879
21
97.4061005124
0
ARC
5
1B0
100
AcDbEntity
8
0
6
ByLayer
62
256
370
-1
100
AcDbCircle
10
224.933737317
20
85.0600314059
40
1
100
AcDbArc
50
204
51
294
0
LINE
5
1B1
100
AcDbEntity
8
0
6
ByLayer
62
256
370
-1
100
AcDbLine
10
217.105668927
20
100.183567542
11
224.020191859
21
84.6532947628
0
ARC
5
1B2
100
AcDbEntity
8
0
6
ByLayer
62
256
370
-1
100
AcDbCircle
10
216.19212347
20
99.7768308991
40
1
100
AcDbArc
50
23.9999999998
51
113.999999999
0
LINE
5
1B3
100
AcDbEntity
8
0
6
ByLayer
62
256
370
-1
100
AcDbLine
10
200.255114047
20
93.775853425
11
215.785386827
21
100.690376357
0
ARC
5
1B4
100
AcDbEntity
8
0
6
ByLayer
62
256
370
-1
100
AcDbCircle
10
199.848377404
20
94.6893988826
40
1
100
AcDbArc
50
204
51
293.999999999
0
LINE
5
1B5
100
AcDbEntity
8
0
6
ByLayer
62
256
370
-1
100
AcDbLine
10
198.731463625
20
94.7394349684
11
198.934831946
21
94.2826622395
0
ARC
5
1B6
100
AcDbEntity
8
0
6
ByLayer
62
256
370
-1
100
AcDbCircle
10
197.817918167
20
94.3326983253
40
1
100
AcDbArc
50
24.0000000003
51
114
0
ARC
5
1B7
100
AcDbEntity
8
0
6
ByLayer
62
256
370
-1
100
AcDbCircle
10
208.043621501
20
88.754358606
40
1
100
AcDbArc
50
48.0000000009
51
138
0
LINE
5
1B8
100
AcDbEntity
8
0
6
ByLayer
62
256
370
-1
100
AcDbLine
10
181.880908744
20
88.3317208507
11
197.411181524
21
95.2462437829
0
ARC
5
1B9
100
AcDbEntity
8
0
6
ByLayer
62
256
370
-1
100
AcDbCircle
10
181.474172101
20
89.2452663084
40
1
100
AcDbArc
50
204
51
294
0
LINE
5
1BA
100
AcDbEntity
8
0
6
ByLayer
62
256
370
-1
100
AcDbLine
10
165.267328864
20
123.187838872
11
180.560626643
21
88.8385296653
0
ARC
5
1BB
100
AcDbEntity
8
0
6
ByLayer
62
256
370
-1
100
AcDbCircle
10
166.180874322
20
123.594575515
40
1
100
AcDbArc
50
114
51
204
0
LINE
5
1BC
100
AcDbEntity
8
0
6
ByLayer
62
256
370
-1
100
AcDbLine
10
181.304410459
20
131.422643905
11
165.774137678
21
124.508120973
0
LINE
5
1BD
100
AcDbEntity
8
0
6
ByLayer
62
256
370
-1
100
AcDbLine
10
170.219224945
20
158.778971549
11
181.811219273
21
132.742926006
0
ARC
5
1BE
100
AcDbEntity
8
0
6
ByLayer
62
256
370
-1
100
AcDbCircle
10
180.897673816
20
132.336189363
40
1
100
AcDbArc
50
294
51
24.0000000009
0
LINE
5
1BF
100
AcDbEntity
8
0
6
ByLayer
62
256
370
-1
100
AcDbLine
10
207.300476676
20
89.4234892124
11
198.200300429
21
79.3167195859
0
ARC
5
1C0
100
AcDbEntity
8
0
6
ByLayer
62
256
370
-1
100
AcDbCircle
10
198.943445255
20
78.6475889796
40
1
100
AcDbArc
50
138
51
228.000000001
0
LINE
5
1C1
100
AcDbEntity
8
0
6
ByLayer
62
256
370
-1
100
AcDbLine
10
198.274314648
20
77.9044441541
11
208.381084275
21
68.804267908
0
ARC
5
1C2
100
AcDbEntity
8
0
6
ByLayer
62
256
370
-1
100
AcDbCircle
10
209.050214881
20
69.5474127335
40
1
100
AcDbArc
50
228.000000001
51
318
0
LINE
5
1C3
100
AcDbEntity
8
0
6
ByLayer
62
256
370
-1
100
AcDbLine
10
209.793359706
20
68.8782821271
11
218.893535953
21
78.9850517536
0
LINE
5
1C4
100
AcDbEntity
8
0
6
ByLayer
62
256
370
-1
100
AcDbLine
10
218.819521734
20
80.3973271854
11
208.712752107
21
89.4975034315
0
ARC
5
1C5
100
AcDbEntity
8
0
6
ByLayer
62
256
370
-1
100
AcDbCircle
10
218.150391127
20
79.6541823599
40
1
100
AcDbArc
50
318
51
48.0000000009
0
ARC
5
1C6
100
AcDbEntity
8
0
6
ByLayer
62
256
370
-1
100
AcDbCircle
10
190.689122596
20
65.095056551
40
1
100
AcDbArc
50
66.9999999993
51
157
0
LINE
5
1C7
100
AcDbEntity
8
0
6
ByLayer
62
256
370
-1
100
AcDbLine
10
203.598719731
20
60.7016180568
11
191.079853724
21
66.0155614045
0
ARC
5
1C8
100
AcDbEntity
8
0
6
ByLayer
62
256
370
-1
100
AcDbCircle
10
203.207988603
20
59.7811132033
40
1
100
AcDbArc
50
336.999999999
51
66.9999999993
0
LINE
5
1C9
100
AcDbEntity
8
0
6
ByLayer
62
256
370
-1
100
AcDbLine
10
198.814550109
20
46.8715160677
11
204.128493456
21
59.3903820748
0
ARC
5
1CA
100
AcDbEntity
8
0
6
ByLayer
62
256
370
-1
100
AcDbCircle
10
197.894045255
20
47.2622471962
40
1
100
AcDbArc
50
247
51
336.999999999
0
LINE
5
1CB
100
AcDbEntity
8
0
6
ByLayer
62
256
370
-1
100
AcDbLine
10
184.98444812
20
51.6556856903
11
197.503314127
21
46.3417423427
0
LINE
5
1CC
100
AcDbEntity
8
0
6
ByLayer
62
256
370
-1
100
AcDbLine
10
189.768617742
20
65.4857876795
11
184.454674395
21
52.9669216723
0
ARC
5
1CD
100
AcDbEntity
8
0
6
ByLayer
62
256
370
-1
100
AcDbCircle
10
185.375179248
20
52.5761905438
40
1
100
AcDbArc
50
157
51
247
0
ARC
5
1CE
100
AcDbEntity
8
0
6
ByLayer
62
256
370
-1
100
AcDbCircle
10
148.867229597
20
159.185708192
40
1
100
AcDbArc
50
335.999999999
51
66.0000000006
0
LINE
5
1CF
100
AcDbEntity
8
0
6
ByLayer
62
256
370
-1
100
AcDbLine
10
149.273966241
20
160.09925365
11
116.386329766
21
174.7417728
0
ARC
5
1D0
100
AcDbEntity
8
0
6
ByLayer
62
256
370
-1
100
AcDbCircle
10
116.793066409
20
175.655318257
40
1
100
AcDbArc
50
156
51
246.000000001
0
LINE
5
1D1
100
AcDbEntity
8
0
6
ByLayer
62
256
370
-1
100
AcDbLine
10
116.692994237
20
177.889145816
11
115.879520951
21
176.0620549
0
ARC
5
1D2
100
AcDbEntity
8
0
6
ByLayer
62
256
370
-1
100
AcDbCircle
10
115.77944878
20
178.295882459
40
1
100
AcDbArc
50
336
51
66.0000000002
0
LINE
5
1D3
100
AcDbEntity
8
0
6
ByLayer
62
256
370
-1
100
AcDbLine
10
103.761967199
20
184.741046262
11
116.186185423
21
179.209427916
0
ARC
5
1D4
100
AcDbEntity
8
0
6
ByLayer
62
256
370
-1
100
AcDbCircle
10
103.355230556
20
183.827500805
40
1
100
AcDbArc
50
66.0000000002
51
156
0
LINE
5
1D5
100
AcDbEntity
8
0
6
ByLayer
62
256
370
-1
100
AcDbLine
10
100.814738526
20
180.580055617
11
102.441685098
21
184.234237448
0
ARC
5
1D6
100
AcDbEntity
8
0
6
ByLayer
62
256
370
-1
100
AcDbCircle
10
99.9011930683
20
180.98679226
40
1
100
AcDbArc
50
246
51
336
0
LINE
5
1D7
100
AcDbEntity
8
0
6
ByLayer
62
256
370
-1
100
AcDbLine
10
83.9641836449
20
186.987769735
11
99.4944564253
21
180.073246803
0
ARC
5
1D8
100
AcDbEntity
8
0
6
ByLayer
62
256
370
-1
100
AcDbCircle
10
83.5574470018
20
186.074224278
40
1
100
AcDbArc
50
66.0000000002
51
156
0
LINE
5
1D9
100
AcDbEntity
8
0
6
ByLayer
62
256
370
-1
100
AcDbLine
10
78.5765351136
20
177.345506345
11
82.6439015442
21
186.480960921
0
ARC
5
1DA
100
AcDbEntity
8
0
6
ByLayer
62
256
370
-1
100
AcDbCircle
10
77.6629896559
20
177.752242988
40
1
100
AcDbArc
50
246
51
336
0
LINE
5
1DB
100
AcDbEntity
8
0
6
ByLayer
62
256
370
-1
100
AcDbLine
10
61.7259802329
20
183.753220462
11
77.2562530129
21
176.83869753
0
ARC
5
1DC
100
AcDbEntity
8
0
6
ByLayer
62
256
370
-1
100
AcDbCircle
10
61.3192435898
20
182.839675005
40
1
100
AcDbArc
50
66.0000000002
51
156
0
LINE
5
1DD
100
AcDbEntity
8
0
6
ByLayer
62
256
370
-1
100
AcDbLine
10
57.7619099521
20
177.308366173
11
60.4056981322
21
183.246411648
0
ARC
5
1DE
100
AcDbEntity
8
0
6
ByLayer
62
256
370
-1
100
AcDbCircle
10
56.8483644945
20
177.715102816
40
1
100
AcDbArc
50
246
51
336
0
LINE
5
1DF
100
AcDbEntity
8
0
6
ByLayer
62
256
370
-1
100
AcDbLine
10
40.9113550721
20
183.71608029
11
56.4416278514
21
176.801557358
0
ARC
5
1E0
100
AcDbEntity
8
0
6
ByLayer
62
256
370
-1
100
AcDbCircle
10
40.5046184291
20
182.802534832
40
1
100
AcDbArc
50
66.0000000002
51
156
0
LINE
5
1E1
100
AcDbEntity
8
0
6
ByLayer
62
256
370
-1
100
AcDbLine
10
39.5910729714
20
183.209271476
11
18.6034621889
21
136.070325862
0
ARC
5
1E2
100
AcDbEntity
8
0
6
ByLayer
62
256
370
-1
100
AcDbCircle
10
19.5170076465
20
135.663589219
40
1
100
AcDbArc
50
156
51
246
0
LINE
5
1E3
100
AcDbEntity
8
0
6
ByLayer
62
256
370
-1
100
AcDbLine
10
34.6405437829
20
127.835520829
11
19.1102710035
21
134.750043761
0
ARC
5
1E4
100
AcDbEntity
8
0
6
ByLayer
62
256
370
-1
100
AcDbCircle
10
34.2338071398
20
126.921975372
40
1
100
AcDbArc
50
335.999999996
51
66.0000000002
0
LINE
5
1E5
100
AcDbEntity
8
0
6
ByLayer
62
256
370
-1
100
AcDbLine
10
31.6900911306
20
118.750102338
11
35.1473525974
21
126.515238729
0
ARC
5
1E6
100
AcDbEntity
8
0
6
ByLayer
62
256
370
-1
100
AcDbCircle
10
32.6036365882
20
118.343365695
40
1
100
AcDbArc
50
155.999999996
51
246
0
LINE
5
1E7
100
AcDbEntity
8
0
6
ByLayer
62
256
370
-1
100
AcDbLine
10
44.6211181692
20
111.898201892
11
32.1968999451
21
117.429820238
0
ARC
5
1E8
100
AcDbEntity
8
0
6
ByLayer
62
256
370
-1
100
AcDbCircle
10
45.0278548123
20
112.811747349
40
1
100
AcDbArc
50
246
51
335.999999996
0
LINE
5
1E9
100
AcDbEntity
8
0
6
ByLayer
62
256
370
-1
100
AcDbLine
10
50.0087667013
20
121.540465283
11
45.9414002699
21
112.405010706
0
ARC
5
1EA
100
AcDbEntity
8
0
6
ByLayer
62
256
370
-1
100
AcDbCircle
10
50.9223121589
20
121.133728639
40
1
100
AcDbArc
50
66.0000000002
51
155.999999996
0
LINE
5
1EB
100
AcDbEntity
8
0
6
ByLayer
62
256
370
-1
100
AcDbLine
10
69.9653761383
20
113.749846578
11
51.329048802
21
122.047274097
0
ARC
5
1EC
100
AcDbEntity
8
0
6
ByLayer
62
256
370
-1
100
AcDbCircle
10
69.5586394952
20
112.836301121
40
1
100
AcDbArc
50
335.999999999
51
66.0000000002
0
LINE
5
1ED
100
AcDbEntity
8
0
6
ByLayer
62
256
370
-1
100
AcDbLine
10
64.3711353067
20
98.7263826131
11
70.4721849529
21
112.429564478
0
ARC
5
1EE
100
AcDbEntity
8
0
6
ByLayer
62
256
370
-1
100
AcDbCircle
10
65.2846807643
20
98.3196459701
40
1
100
AcDbArc
50
155.999999999
51
246
0
LINE
5
1EF
100
AcDbEntity
8
0
6
ByLayer
62
256
370
-1
100
AcDbLine
10
94.65952604
20
84.1464859482
11
64.8779441212
21
97.4061005124
0
ARC
5
1F0
100
AcDbEntity
8
0
6
ByLayer
62
256
370
-1
100
AcDbCircle
10
95.0662626831
20
85.0600314059
40
1
100
AcDbArc
50
246
51
336
0
LINE
5
1F1
100
AcDbEntity
8
0
6
ByLayer
62
256
370
-1
100
AcDbLine
10
102.894331073
20
100.183567542
11
95.9798081407
21
84.6532947628
0
ARC
5
1F2
100
AcDbEntity
8
0
6
ByLayer
62
256
370
-1
100
AcDbCircle
10
103.80787653
20
99.7768308991
40
1
100
AcDbArc
50
66.0000000014
51
156
0
LINE
5
1F3
100
AcDbEntity
8
0
6
ByLayer
62
256
370
-1
100
AcDbLine
10
119.744885953
20
93.775853425
11
104.214613173
21
100.690376357
0
ARC
5
1F4
100
AcDbEntity
8
0
6
ByLayer
62
256
370
-1
100
AcDbCircle
10
120.151622596
20
94.6893988826
40
1
100
AcDbArc
50
246.000000001
51
336
0
LINE
5
1F5
100
AcDbEntity
8
0
6
ByLayer
62
256
370
-1
100
AcDbLine
10
121.268536375
20
94.7394349684
11
121.065168054
21
94.2826622395
0
ARC
5
1F6
100
AcDbEntity
8
0
6
ByLayer
62
256
370
-1
100
AcDbCircle
10
122.182081833
20
94.3326983253
40
1
100
AcDbArc
50
66.0000000002
51
156
0
ARC
5
1F7
100
AcDbEntity
8
0
6
ByLayer
62
256
370
-1
100
AcDbCircle
10
111.956378499
20
88.754358606
40
1
100
AcDbArc
50
41.9999999999
51
131.999999999
0
LINE
5
1F8
100
AcDbEntity
8
0
6
ByLayer
62
256
370
-1
100
AcDbLine
10
138.119091256
20
88.3317208507
11
122.588818476
21
95.2462437829
0
ARC
5
1F9
100
AcDbEntity
8
0
6
ByLayer
62
256
370
-1
100
AcDbCircle
10
138.525827899
20
89.2452663084
40
1
100
AcDbArc
50
246
51
336
0
LINE
5
1FA
100
AcDbEntity
8
0
6
ByLayer
62
256
370
-1
100
AcDbLine
10
154.732671136
20
123.187838872
11
139.439373357
21
88.8385296653
0
ARC
5
1FB
100
AcDbEntity
8
0
6
ByLayer
62
256
370
-1
100
AcDbCircle
10
153.819125678
20
123.594575515
40
1
100
AcDbArc
50
336
51
66.0000000002
0
LINE
5
1FC
100
AcDbEntity
8
0
6
ByLayer
62
256
370
-1
100
AcDbLine
10
138.695589541
20
131.422643905
11
154.225862322
21
124.508120973
0
LINE
5
1FD
100
AcDbEntity
8
0
6
ByLayer
62
256
370
-1
100
AcDbLine
10
149.780775055
20
158.778971549
11
138.188780727
21
132.742926006
0
ARC
5
1FE
100
AcDbEntity
8
0
6
ByLayer
62
256
370
-1
100
AcDbCircle
10
139.102326184
20
132.336189363
40
1
100
AcDbArc
50
155.999999999
51
246
0
LINE
5
1FF
100
AcDbEntity
8
0
6
ByLayer
62
256
370
-1
100
AcDbLine
10
112.699523324
20
89.4234892124
11
121.799699571
21
79.3167195859
0
ARC
5
200
100
AcDbEntity
8
0
6
ByLayer
62
256
370
-1
100
AcDbCircle
10
121.056554745
20
78.6475889796
40
1
100
AcDbArc
50
311.999999999
51
41.9999999999
0
LINE
5
201
100
AcDbEntity
8
0
6
ByLayer
62
256
370
-1
100
AcDbLine
10
121.725685352
20
77.9044441541
11
111.618915725
21
68.804267908
0
ARC
5
202
100
AcDbEntity
8
0
6
ByLayer
62
256
370
-1
100
AcDbCircle
10
110.949785119
20
69.5474127335
40
1
100
AcDbArc
50
222
51
311.999999999
0
LINE
5
203
100
AcDbEntity
8
0
6
ByLayer
62
256
370
-1
100
AcDbLine
10
110.206640294
20
68.8782821271
11
101.106464047
21
78.9850517536
0
LINE
5
204
100
AcDbEntity
8
0
6
ByLayer
62
256
370
-1
100
AcDbLine
10
101.180478266
20
80.3973271854
11
111.287247893
21
89.4975034315
0
ARC
5
205
100
AcDbEntity
8
0
6
ByLayer
62
256
370
-1
100
AcDbCircle
10
101.849608873
20
79.6541823599
40
1
100
AcDbArc
50
131.999999999
51
222
0
ARC
5
206
100
AcDbEntity
8
0
6
ByLayer
62
256
370
-1
100
AcDbCircle
10
129.310877404
20
65.095056551
40
1
100
AcDbArc
50
23.0000000005
51
113.000000001
0
LINE
5
207
100
AcDbEntity
8
0
6
ByLayer
62
256
370
-1
100
AcDbLine
10
116.401280269
20
60.7016180568
11
128.920146276
21
66.0155614045
0
ARC
5
208
100
AcDbEntity
8
0
6
ByLayer
62
256
370
-1
100
AcDbCircle
10
116.792011397
20
59.7811132033
40
1
100
AcDbArc
50
113.000000001
51
203.000000001
0
LINE
5
209
100
AcDbEntity
8
0
6
ByLayer
62
256
370
-1
100
AcDbLine
10
121.185449891
20
46.8715160677
11
115.871506544
21
59.3903820748
0
ARC
5
20A
100
AcDbEntity
8
0
6
ByLayer
62
256
370
-1
100
AcDbCircle
10
122.105954745
20
47.2622471962
40
1
100
AcDbArc
50
203.000000001
51
293
0
LINE
5
20B
100
AcDbEntity
8
0
6
ByLayer
62
256
370
-1
100
AcDbLine
10
135.01555188
20
51.6556856903
11
122.496685873
21
46.3417423427
0
LINE
5
20C
100
AcDbEntity
8
0
6
ByLayer
62
256
370
-1
100
AcDbLine
10
130.231382258
20
65.4857876795
11
135.545325605
21
52.9669216723
0
ARC
5
20D
100
AcDbEntity
8
0
6
ByLayer
62
256
370
-1
100
AcDbCircle
10
134.624820752
20
52.5761905438
40
1
100
AcDbArc
50
293
51
23.0000000005
0
ENDSEC
0
SECTION
2
OBJECTS
0
DICTIONARY
5
C
330
0
100
AcDbDictionary
281
1
3
ACAD_GROUP
350
D
0
DICTIONARY
5
D
330
C
100
AcDbDictionary
281
1
0
ENDSEC
0
EOF
